<mxfile host="app.diagrams.net" modified="2024-03-07T23:51:56.040Z" agent="Mozilla/5.0 (Macintosh; Intel Mac OS X 10_15_7) AppleWebKit/537.36 (KHTML, like Gecko) Chrome/120.0.0.0 Safari/537.36" etag="Glitq-EmpcesBaZnrD8Q" version="21.2.1" type="device">
  <diagram name="PÃ¡gina-1" id="OgvUhR5Tk8KF7nIxKxte">
    <mxGraphModel dx="954" dy="617" grid="1" gridSize="10" guides="1" tooltips="1" connect="1" arrows="1" fold="1" page="1" pageScale="1" pageWidth="827" pageHeight="1169" math="0" shadow="0">
      <root>
        <mxCell id="0" />
        <mxCell id="1" parent="0" />
        <mxCell id="YpN4zdeK5pnCccLMo8XV-11" value="" style="shape=image;verticalLabelPosition=bottom;labelBackgroundColor=default;verticalAlign=top;aspect=fixed;imageAspect=0;image=data:image/png,iVBORw0KGgoAAAANSUhEUgAAAeEAAAPMCAYAAAB15wHPAACAAElEQVR4XuydB3gV1daGz73W9OQERKyoqEgRBfsV7L1372/Xq9IS0hNCSOgiHZXeQ4fQe++9996LXZGqWNa/vp2cMKyzJglJENQ9z/M+SU7mzMyZmbPfWbus7fHYJd8lNjb28pSUxFcyGjeIa/ZJowZNmqRnpKYmNYyOqdWwTp2PB0bH1F4Tl1D3m8Sk2CPJKfG/ML8lJcf9kZgUR/waxSfUpdi4KKobU5uiomsaatf5mGrW+tBisVjOCFwO0fTpk2j+/Fl+9OrdzW/9OlE1TNkUXbcWxcTWobj4aEpIjDFlGMqzlHoJv/M2f01Kjj/Orx/kMm1XnaiaM2vX/qh1QlJMQy4VGzZr1iiDqZeWnvZxYmLif17JeOVCWZ7axS5+S0xMTJn0Rmm1mzbNSE9MjG3CN+F8FughvuF+hzxr1f7I74a1WCyWcxmWJs2ePY0WL57nR9/Mnn7rnwkgdZb4HyzuE7Hx0XvrRNfskZ6emtGERZ1cP/mZjIyM82V5bJe/+cIR7AN8A9SPiYnqFJ8Q8zVukPyiUvwf0Sw/6VHLVs2pY6cO1KtXN+o/oA8NHTaIxowZQZMmj6cZM6fSvHmzafGSBbRi5VJas3Ylbdi4ljZtXk9bt22iHTu30K7d22n3nh20h9m7bxft27/bYrFYip3du3fQunWraC2XQ5LNXCY5192zZ6cpl8DOXVtp2/bNtGXrRtq4aR2tW7+aVq1eTsuWL6YFC+fS7DkzaOq0STR+whgaMXIYDRrcz0i9a7dO1L5Da2rStKF5AEBELctSCSJuFvQvdevWnp+alpLRqFF6bV4iZbltl7/wkp5e/4W09JSM2Li661ikf2hRLSRbLzWR2rRtSb37dDc3FoQKkUKe+w/soS+/2p/LgS/30t69u/hm3c436xbavGWDke3adatpzZqVtHLlMlq+fAktXbaYhbyQFi1eQAsXzacFC+bS/PlzjKjngrmzaM7cmRaLxVLszF8wh9ZvWE0buWySrOSy7eS6s7LLI2bevDn8vrks23lcbs3nqHkBLVm6iJZxWbZixVJatWo5S3wVb3eNI7jYyvLeSfv3o5zcd7Ks/HKfkTrWhbwnTBxLAwf1o85dPjeiRi2jLIsB5M3B0dH4+OhejZs2TEhKirpClut2OYeXhIS3gho1SY+KjYsekZAY86uULi7wJy2aUGa/XiZ6xRMeItLsG2efkevWbZvNjQOZQqCQ5fQZU3j9CTR23GgaOWo4izqLRowYRsNHDKWs4UzWEBrGDB02OJuhg2iIYSANHuJkQDaDLRaL5cyB8mnFiiUcGCz3Y9asaX7rG3zlU055hfIrm0GmTEPZNiwLDDFlHsq+4bwf7Atl4ujRI4xsp06dRDNnTTdCRzCCWsFNm9abwAVBjE/SkPi8+bN5G0OoU+fPTDCkldnxCTH76tVPblK/fvI9ssy3yzmyNGqU9h5HuuPi4qN/d15AdIZq17413yRDaeWqZTlPa/tpz96d5kkOop3H0enUaZNp7NhR5kbCjYUbDTeduRn55hw0uD8NHNiPBgzMpP4D+hr69e9D/fr1YaH3NvTN7JVLn749c+ndB/Q4hV69u1ssFssZA1Hn0qULTdQrmTJ1ot/6sozKLrdOlmPgZBmXXeYBUw72zy4T+w/I5DKyn9k3ykwIHRKHvCFtCHvU6OE0ceI4I+klSxbS2nWraPuOLblyxu+oicQxoAnQKWV0HktMivkmNS2paVpa2vXSA3b5k5eUlNiyKSmJrVm+h50XCr0CcQFRHbNv324T4W7fsdVEvXPnzTI3AKLZrOGIXLNFixvGJ9hMFqtPpLgJe/U+Kc2evbrl0qNnV0P3Hl2oY6fPqX2HNtSyVQuOtJtSkyYNKaNhA0pLq0f16iVRcnICJSTGUVx8LMXE1jXUjYmiqOg6FovFUuzEc1nTvn0b+uKLDn40adIod71oJiY22pRJsXF1OerEqI544rKVUuunUIP0+tSoUQY1a9aYWnza3DTbff5Fe+rStVNuGdij58lyETjF7pO3T9gQdbakswWNgAdyHj1mpKlxRJ+ajRvX5ZbdmzZvMP1uWrVuccqoEo6Q/4iPrzs/IyP1XekGu5zhpUHjetUSk+NGxcTWyY160b4AGaL6+MCBveYCokoZUe748WPNRR7GT2N4MsMN0L8/ZJsdvfoiU6dccZM1a96EUligUVG16f0P3qPXX3+Vnn32GXrk0UeoWvVqdPvtt1PlypWpfPnyhptuuonKlStHN954I11//fV03XXX0bXXXkvXXHMNlSlThq6++mq66qqr6Morr8zliiuusJxDOK+N5STyPFn+PshrjTIK5RVA2YUyrGzZsnTDDTeYsg3lHECZV7FiRapSpQrdfffd9MAD99OTTz5BL730Ir311htUo8ZHHHTEcDSbRq3btDQdt1C2npT0SUFDzgiCEAyh6hu1kaNGjaBp06bQ8hVLaPv2LSZKRoexMSzrps0a5soYAVhCYt3vGjSol/TRRx8FSl/YpRiXjIy0hxOTYufUiarxh+8CNG6SThMnjTUdANCBat36NTR7zkx+qhphIl08aaEaGRfZKVxfBIvIFU99kOzzLzxP991XnW655RZzk+GGww2IG7N06dJ0ySWXUGRkJIWFhVFwcDAFBgbSxRdfTBdccAGdd9559K9//Yv4MC1/Qc4//3y66KKLLC5ceOGF9O9//9vvvFn+meBewHcG90VAQAAFBQVRaGgoRUREUIkSJejSSy+lyy+/3IgcAQnK0woVKtCdd95Bjz3+GP33/17nqLYWNWzYgDp2/OwUOUPMCJBQK4loGVXZ6CyLPjxLly4yHcEQIaNms2evrqbJ0SfjuPi6R1JTk5pGRUWFeuxSfEvjxg2qJSTGzvTJFye7XftWpvceGvfRhrBo0XzTaQpPUIh28VSFC4kL6pPu5190oNTUZHr33bfpkUceZtlWNqLF0x4kC8HiRoJYbYHzzwEPUHiwQkEC4eD6W06CcxISEmKwD5qWwoD7BsEKvmPh4eEmoEFwgwgbETUi6RdffIHqRKHjbDPq1r2zkTKCpuxIuS8NHNTfNB+OHJlF06ZPoTVrV5nAaydLGQFXUnJcbnQcFx99JCU1ISM2NjbAY5fCL/Ua1iuXnJIwIiq6Zq58P/+8nelgdYDlu2HjOpoxc5rpTDVkyEAjXnQYwIWDdLt170JNmjYyUe5DDz1onsQQ2UK4uBFQuNhCxYIned/DF8DflpP4zguiHPtwailu8BAMOZcsWdKIGYHRbbfdRi++9IKpzkbTYPceiJSzo2TUag5iIaOHNgIvDKHCECl0th0zdqQZo3wyMo7+IS0t+WOPXU5viYqKuiglJbFtbFzUL74nm7btWubKF1XOU6ZOouEc9aK6AhcFHajw5IQq5qbNGtObb71Bd911p2nHuOyyy0whi+oTj3ITWP7ZoGkBhYBPwGhmsJzEJ2LUFtjvkOVMg8AI9xuqtVGdjXbnJ554nGJioumLjh1MgIXaTUTICLwQHaNT18KF82nX7h0s4100clSWSbnpk3F8Qt31GU0z7vXYJf8lPT31qdi46K98vZ2bNMngkzvXVDuv37CWpkyZZKqc0YCP6mZf1IunpZq1alD16tWMeNEmgQLERrqW/IBk8JBmBewOzo3X6zVRizx/FsuZBA9+qIVBx1Z0hEXHr4aN0k3AhcCrT99epsc1OnSNGj3CJEZCZIwxychq6MvcFRVd6/eU1MR+sbEfeD128V84+i1ZLzVpiK/dF2kix40fber8t2zdZNoAsiPfbPn62nk/bdmcXn/9NXNxUJWBwtSK13I6QCxonkBEbEXsj+8hxbYJW8426AiGamsEWvfff58ZUtW5S8ccGffMlTEiYyQJQUpOjJJp267VyfbiuOjv66fXf85jl5NLo0bpD8TGRX3jO0nInIKu6HiaQRq17PykA0xiDHRrh3ybNW9Mzz//nGnURxsv2nc9ykWzWAqC7R3tDqoGbe9oy7kEHgbx4Iw+PnfddRfVql2TvfH5KTJGNfWECWNN8yUSgSABiK/zFgd7v6emJg6wHbc8SLiR0DEquuZvODE4QbPnTDcnDN3Px4wdZYYYZbf5Zsu3RYtmRr7o8l6qVCnbRmUpNvDFtrgjz5fFcrbBfYkaGrQd33nnnSanQ5eu2ZEx2oyREwLNlzNnTqOdu7aZ4U2du3yR21YcGxe9s3HjBlU9/8QlOjr6KhbwdF/bL2bfQPSLenw8sWRlDTHpz/BUgxOKbFT//e/rpoezla/FYrFYfPhkjMj43nvvpeSURNNmjGZLZEBEVkRUUa9ctdwEedOmT8aYYuOe2LionxNT4v/n+SctTZtm3BYTW+frnGoBk0sUWa4w7stEv3zCfO2+yLJSu05NqlLlVpPdBdViHuUiWCwWi+WfDWSMamq0GSN7F9Jsoga1T5+eJqhDcIec1UjuhNSYvsxbqJ5OqZfQx/NPWOqlJT0bFxd1HB8cOZ6RJ3Tf/j0mvSRSSyK7FXq7Zbf7NqEHH3zApH/EEBKPctItFovFYnGCzpaoMa1UqRL978MPTBU1gjo0baKJc9z4MbRx03rau2+3ybrlq56uXz958t8621ZCQkxc3ZjaJ8zQo6YNzTy8O3duM2N+kcQbWVF80e///ve+GR+GnnC2Q4jFYrFYThf07EdGxPsfuJ+af9I0OyrmIA8dfTGJz7LlS0z19Nhxo0ytbM6Y4hUxKTFlPH+3JSkprg1CftP+27616fmMqQTxRIIu5ah+Rttv69af0iOPPmzq9tEr06OcWIvFYrFYCgKqqBHM3XzzzSzZGqatGB19UT2N+eDnzpttpridM3cmxcTWMVFxTGzU3qSkpJs8f5clKSm+a+06HxsB40kE1c+r16w0E0AjzzN6seF1TPlXtWpVk2jDRr8Wi8ViKS4w5h2TSWB0DeYRQK0rJolAOzHyUOzhwBCRcWJSbI6Ia3/doEGDyp6/+sIC7ugTcD+Odvcf2EvLli02+Z7RfRy9n/Fk8sEH75lhR0gK4FFOoMVisVgsRQFtxUjqVK3avfRpy09M7St6T6M2dtLkCWZ0zuo1K3LzT9eNqf11ampqRc9fdUlIiG1Zu052FfTAQZmmB/TixQtM5qsBAzJNlQDGbGH2DMymgcQAHuXE/Rmc969/Uenzz6c7AgLouZAQ+iAigpJLlKBmJUtSh1KlqGvp0tSLybzsMuqnwf/LE47u84X3UyAuuSRv+JgLBH++PImMVMlkevnweqkbn6smYWH0Ip+7cFuDYfkb8y+mPJcTH/C93ig4mFpz0NCe6ZDzU6OdC22d8PcHtHGhtQutJOHh1NKFT11oofAJf6c1mis0EzRlGjJpTBJvqw4f17tcpr4QFET38XmrcOGFVIJl+G/l/P4Z+Kqnq1atQmkNUnPGFPc2w5iQ3ANjidetX50r4piYOvsSExOv9/zVlqSk2Bp1omqYJByZ/XoZASOnJwZOI5sJqgI++7wdPfbYo2ag9Z897vd8vhDlWPov8RegHgunO0R6+eX+SNm6IaUrkcLVkLJ1Q0pXImXrhpSuRBGwHyxhJ1/wl66qHUZm+RsSyGXGuyyRDiyUzxj8hHx9SPn+UyXsE3FTLg8kTRw04HXe48/+EJ/TMlz+o0yW5/xMgqFM6D0dFxdjmkPRLIrm0fETxtCOHVtpzdqVZgQPHBafEL22du3akZ6/ytKwYdqjvl7Q6OkMAS9ZstBEwKiDh4DbtW9D999/vxn7+2e1/17MF/lOvuBRLI+uECfv20+6EilbN6R0JVK4GlK2bkjpSqRs3ZDSlUjhaggJA0TGN19wgd/5t1j+qlzIZcf/uOyAfH1YCRdNwk4aM6n8nteCg6kiP8TjfMtrcCZAvng0g9auXTOn53TPHBGPNRm2Vq5chmQeptc0R8YziVAZco4vSAEWG1fHjANu27Yl7du3m5avWGLGAKMKGgJGMu1q1aqZnM9/Rjq86/iivs8XOFe8TqR0JVK2bkjpSqRwNaRs3ZDSlUjZuiGlK5HC1RAC9tGcC4TgP+Ha4v7BQ9y//vXnPMhZ/pn8hx8q2zsEbCVc/BJ2AiE/ExREV/wJNaQYxoQ5jD/6OLvjMCJiJIyaOGm8GcUzf8EcioquaUScmpo0zHMuL/HxH5WIiY3aDQE3bJRGu3Ztp7VrV5lOWOgOjskXEAFjukH0gD6TAkYb7+18ctNZSplSvFbCZ1zCfZm7zlC1NKR74YUX8ZcniAKDgikoOISfaEMpOATTEQb+6U0blr83F3BZkhAYeIqArYTPrIRBI6Yh8z/+XOUxgYhybYoLDIeFiDEdbraIe5vOWlOnTTaB5KTJ4021NDoZJybGpnjO1SW1ftIEPC0kJMbSho1racvWjSZfJ3pBoxMWuoU/8MD9dBlL60wJ+N+ocuYvTHNITQpXQ0pXImXrhpSuRApXQ8rWDSldiZStG1K6EilcDa+/gH28w9dBXp+i8S+64IILjWgDAk8VcEhIGIWEhlNoWDiFhUeY/52pe8zyz6I0P/Q1Cw62ElYEfKYlbOByBtTm40JV9ZmSMSLicuXKUd2YaBYxek33pmHDBtPsOTPNqB5k28oeulTnROPmjat5zrUlISmuMR/gH/ykQPPmzzZRMBJxDBrUP7cX9BNPPG7agM9U4Vien2YasaQyr7yS+gEpXA0pXYmUrRtSuhIpXA0pWzekdCVStm5I6UqkcDW8/vL1EcuFlLxGhQX3zIUX5US/PgEHhZwi4dDQbAGHR3gpwhvJf4f9af0NLH9frjvvPGolBGwl/OdLGDRkPuLPec0Z6nOC9MjI1FivXrKJiI2Is4bkpldu2aq5L5nHt4mJtS71nCtL48YN7q4bU8d0xMIcjsg+gjAeDdxo6O7WvTO98urLJn0Yxml5lA9fFMJ5mzX54vTxyddKuGBI6UqkcDW8/vL1kVSMEs6OgCHgYCPgsHAvlbr8GipZ+moqUeoq87P0lWUpsmRpI2CvtwR5I0tydBxGiKDl9iyWgnLD+edTGyvhc0LCPhGnMy8GB1PIGXjIDuPzeOutt1DTZo3N8CWkU0afJsxLvHXrJtNjGjW+9eonjfWcC8srr7xyYWxc1A4I+NOWzczTwoKF84yMTSasHl3p448/NLNaXFDMTy8Ys/cffnL5ArKUArYSzh8pXYkUrobXX74+6ocWT+KVf//7PIeAQygsogSVuLwsRVx6DXlLX0uXXHkjefn38JJXUsnLr6NLLr2CBVyCIktcQiWYi2z6U0sRKMcSbmslfE5J2Eci76fyRRcZF8jrVhRKcPl3zz33mCl00Zl4wMBMGjN2pBlDjI5akDDah5PrJXzsOdtLcnJCDxxQXHy0mZVi/Ya15qmhX78+JpxvkF7fzAGM+naP8mELSzA/AdXmi9BXitdK2F+2bkjpSqRwNbz+8vWRHlo8EkY1tK/6OTTMS5dcfROVvuluuvrWR+mSa6uQ94ryVOKqinR5uXuo1LW3UqmrbmIRX04lSpaikpdcaiJjuU2LpaAgOUc7K+FzUsIgg3mZr0VgMUbFaP66nMt/TIeIYbZoUsWkD6jh3X9gj8l9gcAzLj7qeGJi9NlL5NG0aca9dWNq/4qDmThpnJmjcey40aYndM9eGAvcmu644w4zKNqjfNDCUubCC6klxCalK5HC1ZDSlUjZuiGlK5HC1ZCydUNKVyJl64aUrkQKV8PrL18fzbhQKOoTKr4M6ITla/8tdUVZuqxCdbrhoXfoxnvfomvKP0HBl95EIaUrUMkb7qWrqzxNJcvcSpdfU8FI+JJSlxoR2x7TlsJSme8dKWAr4XNHwj7QcQtZD+X1KyxoOsU0uu+//65JrYyaXdTwLlm6kPbs3UnpGalGxCn1Eid7ztYSn1B3LQ6idZtPTe+xOXNmmnbg3n2y24GffvqpYu8JfXdQEHWTsnVDCldDSlciZeuGlK5ECldDytYNKV2JlK0bUroSKVwNr798fXzKhcJFRbz2qIqGgM0QJKYUR8Fl7nyOKj4TTy+80YWee7YtXXbt/RR0aQXyXl+Nrrr9Zbq8/IN06ZU3UkmWcKlLSzOX0UUX2SppS+G444IL/ARsJXzuSRgRcQqvX6kY0x8jlTJqcjMaNshtHx45Mou2bttsOmuhIzKqpeun13/N82cv9eolxKE3dHTdWqYKGo3WSEmJ3mSohq5dp5aZsaK4OmIhonqWb9bekOtVV/kLV0MKV0NKVyJl64aUrkQKV0PK1g0pXYmUrRtSuhIpXA2vv3x9tOYvc1ETdpx33vm5vZ8xDrj0dTfTjQ+9SzexhKs924iqPZBIEZdXoaBSLOGy99KVt7/G0fBzVLpMRY6AS9GlpS9jLjfDmuS2LZaCcN+FF/oJ2Er43JQwSGOqBQQUuRbORwR/FrQP+2ZewpDbKVMmmmppuC67Wjr623ffffdiz5+1IIdmbFzUUex8yNABtHffbpPmC43XeFpo1boF3Xrrraa7t0f5UKcLEm+8xSeiL+TrQwpXQwpXQ0pXImXrhpSuRApXQ8rWDSldiZStG1K6Ep9o88LrL18fn/GX+ZIittPgIS53DHBoGF16TQW69j8vU7mn6tKlt71IIVdmC/j6B96gh2I6UIUn69AVlR6j0mgXLnUplWYBl77simLvk2D55/AMR0NSwFbC566EAXpPP87+KY4xxajJvYqd83//97qplsaIn6HDBtOKlUtp+46tlJAYk10tnZLQ0vNnLcnJCd1MCq/6SSat16LFC0x2Ed9wpKeeerLYMmJBwB/whch0CthKOG+kbN2Q0pX4RJsXXn/5+ujCX8RrilgTgnG+GGYUGhZBYUzpq2+kyypUo3KPfkhX3PEihV19G4WUrkS3vliXnk7rRbe9nEClyt5JV15X0UTBEDC48Axl77L8/Xnz4ov9BGwlfG5L2CdipL4sDhGj/Chfvryplkb0izkQkIhq1270gxrli4Z/SUhIuMZzppd69eLLIWMIdjpl6kTasXMbjRw13GQTwcElJMab9F/FUQ2N6oR3IkQEbCXsL12JlK0bUroSSDY/vP7y9dGbqVTEYWl4kEObsEnCEe6lkpeyVMveQlfc/ACVuf0ZKsnC9V51C13CP2+490W6DD2ky1SgK8tcb6Lgyy6/0rQLF8cDoeWfSbSSstJK+NyXsE/ET7KIi6NqOpK3df8D91HnLh1Nb2n0f5o3f45Ja5nRsL4RcVJKfKbnTC+8k4HYWZMmGaZOHCm9Bg9GZ6we1LHTZ3T33XeZwc4e5UOcLq/xzaAK2Eo4b6Rs3ZDSlUQq0pV4/eXr5OFi6CSBp1BfFiwk4Sh1+dV06TUVKfLKm+iSq8rz7zdTySvLUUTOmOErr7nRtANDwJdfcRWFhBTPUCnLP48AfnhL40JcCthK+K8hYdCAeagYUuiiVg69pWvlzLiEwBPDcbdt30yzZk83Eq4bU+fX1NTUip4ztSQ3SK7kG5I0Z+5M2rpt08kxwT260v8+/MBkxSqOqOMRvsH7SPFaCf/lJPxuMdz8uJ/QKcsk4IgsSZElStKll11NV15XgS65vAxzDV1yWRm66rqcCPiykwIuVaq0TV1pKTTIG91cyRv9l5Qwi9FwuhLm77EPKeC/goQRDaOz1h3F0C8EUx/edttt9Nnn7UwnLYwdnjlruhkd1Kx5o+xoODl+iOdMLUlJcf2xE+wMO505c5o5CBxM+/ZtTGes4ugAU+nii6knJCrFWwQJ9+e/B/ADwoAyZU79n5SuoH/Oe/HTT7zAt66UrkQKV0PK1g0pXYmUrRtSupJIRboSr794nTTmAuY85RqfLv8+7zxTHW2yYJUslZOIw8eldAnL1tcGfPkV2QLG7xfYtmBLEbjl/PP9pjD8q0m4FX8PO3CZ2aVyZerMtOHyyCljKeAW/L/WXKZ1KFuWOlaqRJ25XO9cpQp14p9f8N/tr7+eWvH/fVKWAnZKWAo2V6wCzJYkyfCRI1OItrASBqkMprWV1/h0QEBwJfvgnXfeMp20MBoIgSgmK5o7b1ZuNFyvXnx5T3EviYmJ1/nyQ8+eM4N3iig4e0gSDuatt98slskZLsHAeEhNSlcihasBcfLPQTfcQKPuvZemvPIKTX7hBRpx1100kG8ws44iXh+QNt437tFHacQdd1B/3i+EPIxvxOFVq9KIO+80/x984435i1gKV0PK1g0pXYmUrRtSupJIRboSr794nXzBX+rLiqF/AEA/A1RL+6TrGwOMqmdn9HvFlVeZ15FvWm7DYjkdXnLpGf1XknB7LgenJiTQN2vX0oHly2ngk09SKy4n/CQM+XI51IlFPbZGDVqVmUlf83t+3LWLDu7ZY35+vW4dre7fn8bWqkWdbrmFWnIg0oy/55qEId0GDMbuJnJZkchlCkhwIT4P8P/UHCFL+RZUwum8jVjeRkQRyyNMe1j5lsomGVV2NNyfo+FpJjBt2qyhEXFicnxvT3EvKSmJbbHxRo0bmLZg1IH7ouC27VpRZb5wODiPctAFBfN21odkpHA1pHBdGHzTTTSvbl36evFi+mnbNjq4dSvtnzGDpr/5ZraIEelCrtimIzLG35Dvgdmz6eDmzbSmQwcaUr48Da1YkTZ0705fzZ9vtvXdqlU04623aCAibCleK2HK5C/jfcXQLuzDl0HLVEnnjAFGxOsTMP5GG3BRHwYtFiSaSXVpDz6XJYzItx3LEbTi7+jn115Ly7p0oV8OH6YjX39NI99+m9pweeOU8Kf8ng4cdAx/4w3aMn48HTpwgH45coROHD9ufv7800/m/SeOHTN/H/7yS9o6aRINf+cdasflaHPej1PCjZkkpg6XfUkcOdfnsrN+hQoqqS7Uc5DAgU4t/jxxfJwQqhRwQSUM3uXzdH4RygeULQg433zz/06JhtE8CxnDk7FxUSfi4z8q4SmuJSMj48KEhLrHsXGkp9y+YwuNcLQFv/PO28USBb/EN0Pfq6/2F66GIlwJItlJHPl+z09zx775hnaMGEG7+QY7xjfigTlzaFT16iZKHvfYY4aB112XLWH+LMP4KW9Dt270y8GDdIJvuk29exsBQ8SrWraknSNH0vHvvzfbmv3hhzSQ9+UnXith6ocvIxdWxTFMQIJUlBcHBJipDZGMo7gnCLH8s7nRZfakc1nCrfk715kDj7FcJo3naLZ71arUkcu4FRw4+CQ86t13s6ukfRLm72h7DiKmJCXRdxxwnDh6lH4+dMhEvzumT6cVXPYtaNOGVvTqRdumTqWDu3eb///KQv6eA5GpqanUlkXvi4gRBTfIEfBnjz9Owz7+mEZFR9MoDobcGOnCCMDvHVqzJn3+9NNUi8tnRNZaRCzl6ybhBsz9ReyrgoDzFnaEb4IHBKRz5swyExjVT0sxEzykpaVkeIpradQoLd6E2EmxtGfvLlqwYG5OesoepoG6SpWitwWX5WipB+RajBIexE9Pi9PS6NhXX9FXCxfS2IceMtHttytX0uG9e2kWbtQnnqCvlywxkTKqlvE+RMizP/qIftq+nX7hJ8ATfMP5JIy2YYh43COP0Pfr1tFRfiK0Es4D/jJ24S/6tcWY09Vi+TN4mwvazxX5nssSRtXz5NhY+gG1frt20fwWLahblSp5Srglf9f73H8/fb1mDf3Kke+PLNllvP7A556jrnfeSV1vvz2XLmiWe+YZWsKR9Y87d5r1UUXdm8vDT7hMgYSbMMn83U8pV45G1KlDe7l8PbR/v4meCwPeu2/5chrJnyu1cmWKg0wjCy9hkMJ/X1GEMskXDSOvNAJR9JRGOsudu7bTqNFZ2VXSSbGHPMW1xMfX3YiNYoAyJDx69AiTQxPdtGvU+IiuZnEWJQpGNXQjiAoCLk4J8xPgwuRkI0pUK4/8z39o5D330H7+/SiLeTE/wY1lKe/IyqLtw4Zlt/vy/kffdx/t5Se+7/mm3Dttmol2fRL2dcgaftttRuZWwop4hYTB/4ope5rF8mdwxXnnUYvg4HNewm34O/gZl1mfcyTbjsuGz/jn3GbN6PjBg6baeBWXWz1YnnlJGJ20Ot98M20aNYr2crAyhgMQCLdX9eo0gSNRCHfNgAHm50QWYS8Wdhf+/6gPPqA9CxbQpnHjqOOtt+ZWSaMqOoF/b8Rl5OT0dCPS30+cKBI47qn8uZpxoBTDn7Mh4DKqsBJGNPwBf/aiVEsHcjSNntIYmouAdMiQgbR4yUIW8TZCOmd25h/p6fXf8BR1adAg5fY6UTV+Q3i9YeNaWrlymZlJAtmxMMXTf/5zj+m27VEOsqA8wTehqYYuZgn35xtywtNP06EdO+jIvn20rFEjWpSSYiLc499+S0v4BhlSoQIN46crMID3PbRSJVrVujX9sH49LeeLDvlCtFbCLkjpSnIk3Jlv+GuK8ORpsfxZILEDsmRBwOeyhNvw96s7y29By5a05PPPKeuVV6gTR5/zPvnkpIT79KEeHFzkJWG0CaOjVnder8+DD1LXqlVpcnw87eMI9sg332S3BR89mv1+/nv/smU0hYObzlwGQshd776bWnD55WwPhoSbcBQ9lctcvEdK9XQ5yuX1dI7qP+EHg3gu29vxQ0AT/gxFkXAac1cRanAReGJIbkxMFAek3UyQilkE0WeqS9eO2Vm04qLHeoq61Kuf2AQba9myOR34ci9NmjyeBgzINFFwSr1kKlu2bJGiYPRU64gOUWdAwmjbzeKbdNvQoXT0wAE6vHu3ETLaMn7+/nta0qCBqbJ29oae+vrrRsBfzp1LM955hzZnZpr25O28jdHVqpne0VbCpy9hEMsPa8UxXMliOZPcwA+LrXMEfE5JmGXZjr/fHbg8acvfPfwc//HHptoZklrL0WoPFmhhJGw6Z/E223H5OyE6mn7gQAVVzcd//NFUB6N9GD+P/fCDef0HLkcnJSRQWy73mnNZ4ewhfcYk/OmnRsJJ111HfV56iZrzsRZFwiCeXw8pQh4BJKZ68MEHTEDqyym9bv1qWrR4vi+V5Yl3M4o4sUNiUuxBbGzcuFG0ffsWM1MS5lVEjujnn3+OSnJh7lEOrqC8hYLaKeBiljCql9HWuyQtjdZ17Ehr2renQzt3GrEu4Ke9QddfnythRMXrO3em4999R7/wzXeYb+6f+efvv/5Kx3l9ZzRsJXz6Eu7NVC/GntIWS3ETyAFFQmBgroDPJQlDulkvvkjjubzpc8899EWZMjQ1Lo6OcXkFMW4ZN456snALK2ETEXP5MvTVV+nLVavoq9WraXaTJpT52GPU7a67KPPRR2lmw4Z0gMu9r9asoaw33jDzusvhSX+GhDNfe40+4TLXWSUt5VsQCYPHi1CTi0RAN910EzVr3thMXjRgYD+aNXsG7d+/h5JT4o2IGzduEOcp7FK/fvK9tet8/FudqBpmtgjUd+cm5+jQ1gxLKkqP1FL8xGnmBj6DEsa6GKaEtmB0zJofE2Pagw/zk91UvpBoN8aYX4Cq6KXp6bRn0iTaP3MmfTlvnlnvt59/pkMs5DXt2tEQ3paVcOEkDD7jwgTtbfJesFjONqiG9o0LPtck3IYF2ZPLqK+4zEFEumHwYOp+yy2nSnj8+CJLGD2l27Hch7z8MvV7/HGTpKMnBzEDnn2WelarRp34774s4yFcdpoo2Os/RvhMSziR99v9qaeoGZfxRY2EQRL/ryhjh0vzuXz77TdNYJrZr4+ZS2Hvvl0mWIWEY+LqTPEUdklLT6lvqqJbZVdFT5g4ztR7Y2xUdN06Re6Q9TYKaSngYpYwJDsvKoq2DhpEO0eNym0P3p6VRcP55hzzwAOm6hlDllDdjJ7PqMLO4ptt9P3306ZevUzHrG1804+8++7czFlWwoWTMGjEhVdoEaqALJYzwX84oGgnBHzOSJi/N305kPhp715TM7dv4ULqxWVQsUs4R8QtuTxqf+21ZtgSol6IH72gp9WvT+04EsX/IWAtY1auhHm/UzhyLjYJt2hBzbmMjuVjb8blbSMuw4pDwuCJIkTDmLL3Tn7gQDswOmihz9Satas4aF1gJByfUPeEp7BLfHzdPdjIiBFDaQdHwsMdVdFP8ZOIly+CRzmogoAnjy4QpRRwMUt4cLlyphf0t8uXm2QdP27cSJv79jXjggfwzTT2wQfpGwxRYswQJUg2p3oaEfTypk3Ne9e0bZsbBYMsfgpFxIz/TX/jDZusww1FwiCRb3pU/cn7wmI5GyA9ZZuc3tASKd9zRcI9WcJTYmJyJbx57Fjqefvtau/o5V27npTwO+/4JeuQIGd0Wy6LZzVpQoe/+or++P138965LMK2XNbllTu6Cb7f/N1Pu/lmGp+SQt9z4IO25KKANuiJ6emUwWKP5bILInUKuKgSRkavwrYNIxC98cYbqGGjdFMlPXBQf5ozZ6aZXSkuPtr0ks7ISP2f53SX2NjYgJjYOmayhvUb1pgJjAcPGUi9e2NscHu6mU9wUaqin+cbK1PK9wxIGJmv0NY7unp1MyYYw5SG8rGj5zTWQWcsRLXA5JXOEbDJmsX/R2SM/2EbzvzR+B8iZvxvEJJ84HUpXithP/k6QRKPwt74FktxcRuXY61ZwF8oAj5nJMxi7FmlCh1YupQO7txJ6wcNom4VK9IoDgAwvhfjgpd17EhdK1WiiVFR9M369SbxxlwOIrrwa7M4Iv1u0yb6atUqGvLCC9Say5H8JNyCv9+ojl7J0fT3vP3VAwaYHtGfcNmQl4SRrCOVieYysvfrr9Ms9N7mSHxJz56FYnGPHjSrTRvqzZ81mstrCBNyLU4Jg2pFSOCBKul33n3b1BJjzDDmGkYv6U6dP/elsWzmOd0lI6NBHRgcjcsHDuylGTOmmkZn9IpOSk6ga6+9ttBV0RgX3Baik/I9AxLOhf9GJy2/1x3SVcmRbr5I6UqkcDWkbN2Q0pVI2bohpSuJVKQrkdKVKPJ10oQLoMuL0B5jsRQW9NR/7MILTRU0BHwuSxgds9AzGh2y+j/wAHVnAbfl72gHLsP6ogbv/vtNpqw2/L3GWOG+HHRk8mtfXH89tebX8LMv/93nvvuoHb8nzwkcciQMPuV9IEf0yPfeMxM5tOBtFWQWpYZMDJcPibzfdo88Qp2ffZY6P/98nnRS6Aiee47aPvqoSV0ZxfvHjEhSwMUh4Sgurwo7bjiE74X7+Nx27daZ+vTtRVlZQ2jLlo00bvzobAknxnznOd0lKSmuOd7cpcsXxuijRo8wjc4w/ev/fY0u4RvCoxxMQajCTxx9pHjPtITdkNKVSNm6IaUrkcLVkLJ1Q0pXImXrhpSuBJLNDyldiUO4bnTiL311LgzPRGpLi0XD++9/U42AACNZn4DPdQn7xgYjQQeqp/E3ckUjVSVeN3mjmZb4H68D8LuZyIF/Io80kNMZSgE7JeyLiFtxGYefUsBuEm7CYCYkVEvHcJkUzeVWFJdxGnVcqO2D31uHtxEXmT03sJRvcUm4PnNDIWdZwuQyFSpUoDZtW+amsVy2fAlt3LQuZ2al2r/VqlUr2HM6S0Ji7JdmaBKbHNM0DWOzw/AwfVETdNRAAS/FayXsL1s3pHQlUrZuSOlKIhXpSqR0JRH+0tXI5C9+Et9TV9mo2HIGQS3cgxdcYLJhOeX7V5GwRKat1GZRyp1P2AUpYClhJ1LAbhL2TWWImZTU6QkF6QqYgckQmS1fCLUoUxnmJ2HwHF9Tec8UBNQKlylThmLj6pra4gEDM2n6jKmmFjlnqNIf6Y3SanpOZ4lPiDHtwavXrMhtD/bNmATjw/we5WDyI4CfQDtBkFK8VsL+snVDSlciZeuGlK4kUpGuxKuI10mEv3BV+IsPejM1AgOtjC3FCmZEQu/nhnxvdXQRsJVw8UtY0sQF55zDfnMPR2bL14eUb3FKGMk7cK/I+6cgoHb4v/997ZR2YYwq+vyLdiYabtCgXpqnoEtqavITtWp/9DvyX+7bv5vmzJ1JAwf2o549u1FiUnyR2oOroioaEpXitRL2l60bUroSKVs3pHQlkYp0JV5FvE4iFOFqhGdL2EdfJo0Ly4cuuogibOctSyFAm+/1/DD3Kt9DnwYFGfn6kPK1ErYSBqnMjYWskka7cPXq1Uz2rL457cLIrzFs2CBflfQiT0GXps0zUpErusWnTdnk+2j8+DFmwgYY/u233zI9wTzKQRSEd/ik+klXIoWrIYWrIYWrIaUrkbJ1Q0pXIoWrIWXrhpSuRMrWDSldSaQiXQmuZ15EKMLVCD9VwlLILfkG/zAggJ7gArXy+efTZVy42iFOFgDZRiCPL98Td3K0+xwXolF8r2DIkVO8VsI6UsD/ZAkjn3RhM2hhtFDFihXNzIIYRTRk6EBas2YlLVg4z0g4OSX+F09Bl7i46KZ4E8Y8IfMHJizum9nbjA9+/PHHKIJPsEc5iPxARppWEJuUrkQKV0MKV0MKV0NKVyJl64aUrkQKV0PK1g0pXYmUrRtSupJIRboSryJeJxGKcDXC/eV7ClzAaPTkAuxzBpJuzF+eBhzxYCL25MBASiwsXIAXiIsvzht+YCgWWCqnQwLg90niXYg7DWJdiFGo64TPR35EC6Ic4O84wOc9ia9RA6YpX+fWTCe+7p0Z/JRI+VoJ+yMF/E+XcO2IQvqNHwSvv/56Ss9Iyx0vvHDRfJPuGT6Niq75W1RU1EWegiyxcdHb8abRY0bQlq2bTFLqPn2yZ02qWrVqoecORprK3DmD80IKV0MKV0MKV0NKVyJl64aUrkQKV0PK1g0pXYmUrRtSupJIRboSryJeJxGKcDXCFfE6CfMXsAoXaPnChWeecCFdIFgAecKiKBD8fcoTlo8bmQp9Ab9P0seF3gq9fPDxOenpQg+F7k74fPjo5kJXQReN4GzhakgBWwlbCRdGwsmRhUtjCQlfyd6pVbuG6ZyF7JLTZ0wxnbMSEmNM56y0tHrveQqycNh8AhJesmQhrVq9wsyTiE5Zrdt8ajplIWm1RzmI/LiLv0SnTFnohhSuhhSuhhSuhpSuRMrWDSldiRSuhpStG1K6EilbN6R0JZGKdCVeRbxOIhThaoQr4nUSpghXI1SRriREEa+TYEW4GkGKeJ0EKsLVCFDE60SRr5WwP1LAVsJWwoWRMNqFK1xUuIlm0Dnr1VdfMU23GNI7Zuwo+vLLfdSq9SeEJt5mzZrU9xRkia5b+zdIeNu2zWZKpkEcViO8rp9Wr0hTF77KF9dPuBpSuBpSuBpSuBpSuhIpWzekdCVSuBpStm5I6UqkbN2Q0pVEKtKVeBXxOolQhKuBeyMvwhThaoQq0pWEKOJ1EqwIVyNIEa+TQEW4GgGKeJ0o8rUS9kcK2ErYSrgwEgYP8r0m/VUQMLXhww8/bJpukeIZqZ737t3F/uyKSJgSkmIaePJbkpPjH0PP6LoxtWk/h9EzZ003Y54QXteuXZOuYgEWVsIJEIQUroYUroYUroYUroaUrkTK1g0pXYkUroaUrRtSuhIpWzekdCWRinQlXkW8TiIU4WqEK+J1EqYIVyNUka4kRBGvk2BFuBpBinidBCrC1QhQxOtEka+VsD9SwFbCVsKFlfDrfE2kvwoCmmrRZOubX3hY1mDaysFs1vAhRsLR0bUWevJbmjVrlIiVGzZKMz2jJ04cl9sz+o03/o8uZVl4lJ0XhHaQmhSuhhSuhhSuhhSuhpSuRMrWDSldiRSuhpStG1K6EilbN6R0JZGKdCVeRbxOIhThaoQr4nUSpghXI1SRriREEa+TYEW4GkGKeJ0EKsLVCFDE60SRr5WwP1LAVsJWwoWVMFJYSn8VhPPPP9/0kG7fvo2ZUWnI0EG0bt1qDmanGQknJccd9eS3NGmS3gB11xhgjIHGI0dlUWa/7J7RzzzzNEXyh/EoOy8AB7tDnlK4GlK4GlK4GlK4GlK6EilbN6R0JVK4GlK2bkjpSqRs3ZDSlUQq0pV4FfE6iVCEqxGuiNdJmCJcjVBFupIQRbxOghXhagQp4nUSqAhXI0ARrxNFvlbC/kgBWwlbCRdWwphjGM5SPJYnqCUuV64cNW7S0DThDhrc36SvXLN2pZFwYlLsb578lriE6AZYGRbfvXuHSVfZu09P6tK1E1WvXp1CQwsXpjNre1oJ542UrRtSuhIpWzekdCWRinQlXkW8TiIU4WqEK+J1EqYIVyNUka4kRBGvk2BFuBpBinidBCrC1QhQxOtEka+VsD9SwFbCVsKFlXAKw85ap3gsTyBhJLNKSIwztcf9B2TS/PlzaOfObUbCGKbkyW+pE1VzOlZGXTY6ZmGC4l69e5gJi2+99VZT5+1Rdl4Apve2Es4bKVs3pHQlUrZuSOlKIhXpSryKeJ1EKMLVCFfE6yRMEa5GqCJdSYgiXifBinA1ghTxOglUhKsRoIjXiSJfK2F/pICthK2ECyvheiWMhKcrHssT3zClj2t8RN26dzFNuTNmTjP9q5CBEsOUYhNj7/PktcQnxHwPCU+eMoHWb1hrhichrO7wWVszPKkIcwhn5TlzkpWwv2zdkNKVSNm6IaUriVSkK/Eq4nUSoQhXI1wRr5MwRbgaoYp0JSGKeJ0EK8LVCFLE6yRQEa5GgCJeJ4p8rYT9kQK2ErYSLqyEMUwJzlI8li/oN/XGm/9nmnDRlDtp0njTv6p+WrKJhhs1SqvryWtJTs4eI4yhSStXLTd12sgZ/UmLpnTTTTcVumc00zNTytYNKVwNKVwNKVwNKV2JlK0bUroSKVwNKVs3pHQlUrZuSOlKIhXpSryKeJ1EKMLVCFfE6yRMEa5GqCJdSYgiXifBinA1ghTxOglUhKsRoIjXiSJfK2F/pICthK2ECythTGsIZykey5cS/N4XXnw+O4d0Zi+T9AoSbtmyefZY4U8a5T1WGA3HkPDadato6bLFJvUWhic1SK9PN9xwQ1Ek/LmVcD5I2bohpSuRsnXDKVyNSEW6Eq8iXicRinA1whXxOglThKsRqkhXEqKI10mwIlyNIEW8TgIV4WoEKOJ1osjXStgfKWArYSvhwkoYsLM6Kh7LF6R1fuyxR00/Kkz/i7TPyJrVsVOH7Ei4SXreY4Ux+TBWRL7LBQvmmjHC3Xt0pfj42CLNnsS08ZOtG1K4GlK4GlK4GlK6EilbN6R0JVK4GlK2bkjpSqRs3ZDSlUQq0pV4FfE6iVCEqxGuiNdJmCJcjVBFupIQRbxOghXhagQp4nUSqAhXI0ARrxNFvlbC/kgBWwlbCRdRwu0Vj+ULZlO69957jYTRqRmdm3fv2Um9enczEk5MjE33uC0xMTGleaXfETJjCsPZc2aY/Jfo5VW7TtESdXishPNHytYNKV2JlK0bUrqSSEW6Eq8iXicRinA1whXxOglThKsRqkhXEqKI10mwIlyNIEW8TgIV4WoEKOJ1osjXStgfKWArYSvhIkq4jeKxfAnk+/22228znZkxyghzL2BKw4GD+hkJ1679cVeP25KSkvgSem/FxUeb8Hna9CmmdxcamP/34ft0OUvJo+y0gFgJ54eUrRtSuhIpWzecwtWIVKQr8SridRKhCFcjXBGvkzBFuBqhinQlIYp4nQQrwtUIUsTrJFARrkaAIl4ninythP2RArYSthI+GxK+8MILqVKlStS5yxdmzgUk7Ni8ZQONGj3cSDi6bp21HrclLS21NiRcLzXRJOqYNHkCS7iPkfCbb71RpGxZHivh/JGydUNKVyJl64aUriRSka7Eq4jXSYQiXI1wRbxOwhThaoQq0pWEKOJ1EqwIVyNIEa+TQEW4GgGKeJ0o8rUS9kcK2ErYSvhsSNiXNQsjiiDhwUMGmpFGEyeNMxKOj6/7rcdtado0IwkrNW6SbnpzjRs/Jjdb1iuvvGxmiPAoOy0gVsL5IWXrhpSuRMrWDSldSaQiXYlXEa+TCEW4GuGKeJ2EKcLVCFWkKwlRxOskWBGuRpAiXieBinA1AhTxOlHkayXsjxSwlbCV8NmQMGYZxHDelq0+ycmaNcBkzJo1e7qRcFJy3DGP29Lskyb10R6MN0PCo0aPoL6ZvU1X6+eee9Z0vfYoOy0gVsL5IWXrhpSuRMrWDadwNSIV6Uq8inidRCjC1QhXxOskTBGuRqgiXUmIIl4nwYpwNYIU8ToJVISrEaCI14kiXythf6SArYSthM+GhNFvCsN5mzZrnC3hQf1pxcpltHjJAiPh5JT4Xz1uS5Nm2XmjP/s8O280ulZjnBMk/MQTj5uu1x5lpwXESjg/pGzdkNKVSNm6IaUriVSkK/Eq4nUSoQhXI1wRr5MwRbgaoYp0JSGKeJ0EK8LVCFLE6yRQEa5GgCJeJ4p8rYT9kQK2ErYSPlsSxnDejIYNqEfPbmaY79Jli2jNmhW+SPh3j9vSIKNeOlZCry70jsZciJiOCRJ++OGHzFyJHmWnBeTPkTC/f9CNN9KQihXNT7OuFK+VsJVwXgQrwtUIUsTrJFARrkaAIl4ninythP2RArYSthI+WxIuW7YspaYmmxwbAwb2o0WLFtDGTeuMhBMSY9wlnFwv3kgYExDv2bOTsrKGGAlnT95QzYx/8ig7LSBnXML9y5ShEXfdRQvj42ld+/bm5/DbbqP+eYlYSlciZeuGlK5ECldDytYNKV2JlK0bUrqSSEW6Eq8iXicRinA1whXxOglThKsRqkhXEqKI10mwIlyNIEW8TgIV4WoEKOJ1osjXStgfKWArYSvhsyVh3yQO2RLOpPkL5pq5GODX2LgodwnXjY0yEu6b2ZN27dpuJnHwzaB0zz13UxB/CTzKTgvIGZUwBDy6enXa3LMnHdqwgY7t3k0H166lVZ98QkPKl/eXr5Wwv3QlkYp0JV5FvE4iFOFqhCvidRKmCFcjVJGuJEQRr5NgRbgaQYp4nQQqwtUIUMTrRJGvlbA/UsBWwlbCZ0vCZdhHdWOic2dSmjtvFu3avd1IOCq6pruEa9b8qBlWQoKOHTu3mkHGGGyM6uk777zDDEL2KDstIGdMwrkC7tWLjmzfTie+/ZZ+/e47+uWrr2j/xImUVaWKv3ythP2lK4lUpCvxKuJ1EqEIVyNcEa+TMEW4GqGKdCUhinidBCvC1QhSxOskUBGuRoAiXieKfK2E/ZECthK2Ej5bEkZiq6io2jkS7kuz58ykfft2GwnXqv3R77GxsQEebaldp0YWVhoydCBt237qNIZVq1ali/nL7VF2WkDOiITdBAyO79tH2wcNomGVK/vL10rYX7qSSEW6Eq8iXicRinA1whXxOglThKsRqkhXEqKI10mwIlyNIEW8TgIV4WoEKOJ1osjXStgfKWArYSvhsyVhTGdYs9bHRsJIeDXTTGe4B1EwRPxHXFxUZY+2REXVnAMJDx8xlLZs3WgyffgkXJlFdtFFF/nt8DQodgnnJWBEwd/On08z3niDBl53nb98rYT9pSuJVKQr8SridRKhCFcjXBGvkzBFuBqhinQlIYp4nQQrwtUIUsTrJFARrkaAIl4ninythP2RArYSthI+WxJGdsmPPvqfybEBCU+fMcXMKRwTW8dIODYx9lGPtkTXrbUaEkZ6rU2bN+RIuLtJv4UMIEjH5VF2WkCKVcJ5CRi/H960iZbWr09j7rvPdM7K4kheMuyWW2hwuXLUH1G1lK+VsL9wNbyKeJ1EKMLVCFfE6yRMEa5GqCJdSYgiXifBinA1ghTxOglUhKsRoIjXiSJfK2F/pICthK2Ez4aEwWXshA8+eC9Hwn1o6rTJRsLxCXWNhJOS4l/0aEvd2Do7IOGx40bSxk3rafCQAWawccdOnxkJX3DBBX47Ow2KTcIQ8Mh77jGdsKSAfRJGx6zvFi2ir2bOpK9mzPDjy+nTac/o0bSiUSMacfvt7iKWsnVDSlcihashZeuGlK5EytYNKV1JpCJdiVcRr5MIRbga4Yp4nYQpwtUIVaQrCVHE6yRYEa5GkCJeJ4GKcDUCFPE6UeRrJeyPFLCVsJXw2ZJwaS7z33337Zw5hXvT5CkTTe6NxKRYI+F69ZLe82hLXFz0Pkh4/ITRtGHjOho8eIAZbPz5F+1NGi7kxPQoOywgxSbhweXL09IGDegQR7tSwE4Rn/j6a1Mt7cbPBw7QT+vW0bL0dBMR+wnYSjh/vIp4nUQowtUIV8TrJEwRrkaoIl1JiCJeJ8GKcDWCFPE6CVSEqxGgiNeJIl8rYX+kgK2ErYTPloQxz8I777yVK2HMw4AslMkp8ZAwpaXV+9ijLXEJdb/BCpOnjKd169fkSLirSUQNCZ933nl+OzsNik3CqEbe3r8//bxvn598TxdsY/uAATTs5pv9BWwlnD9eRbxOIhThaoQr4nUSpghXI1SRriREEa+TYEW4GkGKeJ0EKsLVCFDE60SRr5WwP1LAVsJWwmdLwqW4nH7jzf8z/amQdXLCxHEmEq6flmwk3CCjfh2PtiQkxv6EFaZOm0Tr1q0mJJ6GhNt3aHNOSRjZsNa0bk1Hd+ygX10i4QLB7z2ybRutbdMmeyyxFLCVcP54FfE6iVCEqxGuiNdJmCJcjVBFupIQRbxOghXhagQp4nUSqAhXI0ARrxNFvlbC/kgBWwlbCZ9VCb/x31wJj58wxki4QXo9I+HGjTPiPNrik/C06ZNp7dpVuRJu3ablOSXh/tdeS+Mfe4z2jhuXHQ0rIkZ18+EtW+in9etd+XHlShNRj3vkEeqP/UoBWwnnj1cRr5MIRbga4Yp4nYQpwtUIVaQrCVHE6yRYEa5GkCJeJ4GKcDUCFPE6UeRrJeyPFLCVsJXw2ZIwZhx87fXXciWMGQkh4fSM1IJLeI2RcP9TJIyu1x5lhwWk2CQMBpYtS5Oee472jR/vJ+IT33xDB9etM72jJ7/wAk148kk/xj/xBI25/34zhnhAmTL+8rUS9heuhlcRr5MIRbga4Yp4nYQpwtUIVaQrCVHE6yRYEa5GkCJeJ4GKcDUCFPE6UeRrJeyPFLCVsJXw2ZJwSS5fCyXhpOS4o1gBY5rOdQljnLAR8fPPqyL+ef9+ky1r0tNPm/XQo/oUeD8mp7SUrkTK1g0pXYkUroaUrRtSuhIpWzekdCWRinQlXkW8TiIU4WqEK+J1EqYIVyNUka4kRBGvk2BFuBpBinidBCrC1QhQxOtEka+VsD9SwFbCVsLnhIT7+ku4WbNGyR5tSUqOP4YVMPnwX0HCeYoYw5R27aJNXbrQ0EqV/JN02GQd/tKVRCrSlXgV8TqJUISrEa6I10mYIlyNUEW6khBFvE6CFeFqBCnidRKoCFcjQBGvE0W+VsL+SAFbCVsJnysSHjtutJFwo8YNCibhOXNm0uo1K/4SEpYiPr53b66I0S58YMoUmzvaDSldSaQiXYlXEa+TCEW4GuGKeJ2EKcLVCFWkKwlRxOskWBGuRpAiXieBinA1AhTxOlHkayXsjxSwlbCV8FmV8Guv5kp4zNiRORJOL5yEW7ZqwRIuf85KOFfEzz1He8eOpWM7d9IvX35pej5vtJGwO1K6kkhFuhKvIl4nEYpwNcIV8ToJU4SrEapIVxKiiNdJsCJcjSBFvE4CFeFqBCjidaLI10rYHylgK2Er4bMp4Zdfean4JPxpy0/OeQn7RDzhiSdoY+fOtG/iRPPT9HxGxyspXythf+lKIhXpSryKeJ1EKMLVCFfE6yRMEa5GqCJdSYgiXifBinA1ghTxOglUhKsRoIjXiSJfK2F/pICthK2Ez5aES/D7/5ESBgOuucZEvsgNjZ95CthKOG8iFelKvIp4nUQowtUIV8TrJEwRrkaoIl1JiCJeJ8GKcDWCFPE6CVSEqxGgiNeJIl8rYX+kgK2ErYT/chJu07blz+3bt6YlSxbQGpbwxEljaeSoYdSnT89zuk3YFSlcDSldiZStG1K6EilcDSlbN6R0JVK2bjiFqxGpSFfiVcTrJEIRrka4Il4nYYpwNUIV6UpCFPE6CVaEqxGkiNdJoCJcjQBFvE4U+VoJ+yMFbCVsJXw2Jfzee+/Q8OFDaOy4UTRr1jTauXMr9e7TnVq3aUFt27dO8WjLuHEjTyxbtog2bFhD69evptWrl9OKlUto/vxZZgIHK+E8kNKVSOFqSNm6IaUrkbJ1wylcjUhFuhKvIl4nEYpwNcIV8ToJU4SbB/0Bvw8MyMG8FloECRdknSArYSthK2Er4RKUlJRg/AmPwqfw6ooVS2jBgtnUJ7NXfY+2WAkrSNm6IaUrkcLVkLJ1Q0pXImXrhlO4GpGKdCVeRbxOIhThaoQr4nUS5i/aU6TL6wzg7QxiBjNDed/D+PiycsDveG0I/s/rD2QGhLoIOfikVPszA/i1gbzuIH4PwPsNeI3x/TRgXWYA3htUQBEHKOJ1osjXStgfKWArYSthK+FTsRLODylbN6R0JVK2bjiFqxGpSFfiVcTrJEIRrka4Il4nYf7iBYhwB/L7B/O+sviYR/HnGs/XY/I119DUsmVp+g030Iwbb6Rp/HPKddfRRL53xvI5HMnHPozfB6n6yTj4pIQh36G8j5G83bF8jcbxtRzvg/828PbG8v/H8DZH83GM4O1m8XuGhGZLeUBQPjIOUMTrRJGvlXAOfH675CAFbCVsJfz3kPAKK+ECIaUrkcLVkLJ1Q0pXImXrhk+2bkQq0pV4FfE6iVCEqxGuiNdJmC7gIbyP4Xys4/gaTC9Xjhbcfjuteuop2hIVRTszMmhvq1a0v3172tuiBe1ITaWNH35ISx98kOZUrkyTy5Qx0vbJOLeqOjgnCubfh/A+xvL1m3///bSct7vqmWf84deX8TYX33UXLahShebefDNNZ/FP5PtnJB/fUN7uIGwvyEXGAYp4nSjy/adLGNLtxue1B1+3njl057/xujMqlvK1EvZHCthK2ErYX7gaUrgaUrgaUroSKVs3pHQlUrgaUrZuSOlKpGzd8MnWjUhFuhKvIl4nEYpwNcIV8ToJ8xfwUN7/GD5viHaXP/oo7WnZkn6aO5d+3rMne57pH36g3w4epN9++sn8xN/IK35s2zb6ftw42hIbS/PvuIMm8r0ynLeFKmYj4hwJI0Iezsc269Zb6cdFi0wq1F8OHFD5ee9eOrZlCx1esoR+nDSJDnTrRuvfeovm8nsn8X2G6BhRsSriAEW8ThT5/pMlDNF252uVyffXEP5uZfH5HcYM5HuhF98XXfm6+UQs5Wsl7I8UsJWwlbC/cDWkcDWkcDWkdCVStm5I6UqkcDWkbN2Q0pVI2brhFK5GpCJdiVcRr5MIRbga4Yp4nYT5CxgR6jyOPLdzhHt4xQr69ccf6Y8TJ4j++IPyXH7/nX4/ftxkVPuBhbnmv/81VdUjInNEHJIdDaMqehS/tuDOO00CmIJs949ff6U/fv6Zfjt8mH5hMX8/diyt/+gjmnb99TSCz4cq4gBFvE4U+f6TJYyIFwIede21tOi112jlBx/Qivffp7kvvUSD+DuN6NhXPS3layXsjxSwlfBZlHDTpg2PN2yYRgsWzjVDlEaNHk6DBvejTp0/t0OU8kNKVyKFqyFl64aUrkTK1g2ncDUiFelKvIp4nUQowtUIV8TrJOxkByy0/47m84Aoc1/79vTLvn1Gfqe9sFR/P3aMDq9aRRs+/pgmXXMNDeNtQ74QMTpvjebzsOiuuwomYbnkbP/Y5s20sVYtU/2dxdscyBLwi4Z9BCgSZvo7cIpZCtgn4UxeJ5O356NIEmb59XaAv3uCwEJKGCJlegA+zwB/4/X8JNyN1+3N90AWfzeXvvoqHVq/nn755hv6+euv6fvFi2ncLbdQH76fTDTM60r5Wgn7IwVsJVw8En7jzf+j/gP6UlbWYJoydSLt2bOTPvu8rZnEoWXL5voQJT1ZRxf6tGXzv0yyDivhv7eEB/K6aAOeXrYsbUtIMNXAiED9FhYgouLfjx41USkiXyNqRaS///ILHVq2jJY+9piJrofw/tAjGu3EeUo4Zx+G337z/3/Ogv8fXr6clj3zDI3h6zMkJLuzFiJi9KKGlHPBa77/MYOYwcwQ/p8P/I3XB7DcIGUj3IBsQeM1bANt0IN5P8B0DgvOHj7Vl/9fEAn3xnq8fmZIdmc1VM37wN94vS9vszcDKUsBSwn35PV68nt6M314G3353GbimuZcX/zem1/vxf/vzkDIUsBd+TVEuQP4vpt80020t1Mn+u3QoZyT/IdJUzvt9ttpEF8zVEujytrImOkUcqqQpXythK2Ei1vCJ5N19Cx4sg4rYQUpWzekdCVSuBpStm5I6UqkbN0ooYjXSaQiXYlXEa+TCEW4GuGKeJ2EnayGRu9ndIQ6tGBBdvXzKcbLFiPaaQ8tXEjfDhlCX/XoQd+PHk1HOOLFxB5GmGJBu/F+LtRnVqxoqqV9w5HykjAEf5SP4dDcuWbbx3ftol+//16Nys32u3WjqddfT8Ow7ZBsQeJ3dN4azfsE+D2LC+Wh/D/8HMWfeSy/PpHvoSl830/ie3IcX+PR/Dr+PzhH3JDyUP59ON7D20Dv7Un8XQI4X6P5eg/j92D4lJSxU759+PVM/r/plMbHlsXbGsX7G8v7ncCR/HjeHn5Hb/GhfN1QW5DJ+zTRsSJhRMx9sE98Zl5/GJ/PEXyvj+bv5zje3oTrrqPx115LY3i7I/g4B+O+4+OEqBEhQ7xGwBA9/53J2xjJ71943310eOXKk+ear82xHTto4b330jj+Xmfx5x+E7wJvrxe/pyvv3yliKV8rYSthK2ErYX/ZuiGlK5GydQMFXl5EKtKVeBXxOolQhKsRrojXSVh2FDyCj3tWhQqm1zOEd4oYUf3LYjy0aBFt+vBDWsDynH3zzTST10dv6KVccO9u3JiOb93qJ8o/OJpGh63Vr71G4/m6IxpG+/CYErqEIfLjGzfSxmefpSW33UYLOQJb8cgjtDstjY6tXu33cIC/D86ZQ7P5ONBJC8OX0OlrMkf0C1gcSx54wIDfp7GUJvJ1nMb3+Tw+/mV83BvefZe216tHW+rUodUcUaMXOHpgj+PzMYKPFbKewPcQzs2ie+6hta+/TtuSkw3r+b1LH33UPGAg0h/Knwvjn30i9gkYf+N1yBe9xqfccAPN5c+2lD/X+vfeo628/628vXXvvEOLH36YZletShP4WDE0DIlQ+iDadUTF+L0viwrNB2P4uzaVo9d5d99Ny55+mta+/z5tSUyknU2b0vaGDWljVBSt5HM/lz/rJF5vOL4PfH568nlCZIwoOpM/I16fdcsttCMlxXS+O3mC/zAPXlt5uysff5wW8eedx8c4vXp1GsHnqTffq114W752YilfK2Er4XNPwqtX0MBB/al7D5bwp1bC+SKlK5HC1ZCydUNKVyJl6wZEmxeRinQlXkW8TiIU4WqEK+J1gLZgDEfCUKQVTz1FR9et84tof//5Zzo4axatfOEFmorois/VCP4cqL4eyWBM7xwW0VYW2c8cNclqbAj868GDaQavM5z3BRnlJeGja9bQkjvuoMm8n3G83kTe/vzy5Wn7xx/TiS+/9HtAgOQXsCDR2SuLtz2B778NLJ/D/FkwFzY4vHYtba1Rg5azZLfydtBx7Nj27XTi66+ze3ezeNBL+wjv+8s+fUyNwEz+PszhiHLNSy/Rt8OH09FNm8wsYnhIAXjvcT7+b0aMoJWvvmravofinEKSQsAYroXe4otZhns6dKBDS5fS8T176BfsP2d7+B2v/bR4MW1v1Ijm3HknjeLrgpoKI2JHBDyEP+sUfpBYzeLe36MHHebjNr3MeRsnsL0ffzz5uTDzGR/73m7daDE/3Izha4iq5z58rnCPjODzNZelurtlSzrO59LvQYr/xmf9hbePfRxnDm3YQKtZ2EO4XEH1tC8alvK1ErYSLnYJv/wSde7SkfqwhEePsRJ2R0pXImXrhpSuRApXQ8rWDSldiZStGyUU8TqJVKQr8SridRKhCFcj3F+8TlDAI+vVFI4ct9evnx0Fn1IC/2F6O2N88FT0dObjR+asgfw+H8iYhUQdC269lb7u2ZN+P3zYbxumSpMFhEgQohrDP90kfIQj3vkcDSJBB9aFuCfzdVzF0eyxVav8HhJ+5kht2XPPmWNANDyFZbidI2dIyLf8fuQIHRw6lL755BM6vnmzacuW1eBYsG0Mu/pxwgTaymLdxcI+wsLE++XDRfYbsjuJHVm/ntax5MfzvY9MX+i0hSpon4BxfhHpHpw50xyXWzs6FiO9b76hb/kYlvMxINodwCLwtROjmnrM9dfTLpYvpI22eXlO5IIaCbTz4sFkXWwsjeVrOZivO6qXF3AE/d20aUbe+W3Ht5zgc7SZz2UWC70HXyMrYX+kgK2ErYT9hashhashhashpSuRsnVDSlcihashZeuGlK5EytYNn2zdiFSkK/Eq4nUSoQhXI9xfvKdImNcZzsc8iyPNA84OOTnLH7/8Qgdnz6b5HJWN5nMAAaOK1DlxAwQBkU/me2P9f/9rxhNLwUDkq19/3UTcWbwNZMLKU8K33WYyZaG9FUOQpvB1XF2tGh3jiE+KAtHZ0ieeMJ2zRvK2Ue28Mz39FAkT5MqS+c2l7fqUBWJl6f7M0fOJXbvMOchvwTo/8nmae/fd5qEBHbbQBoyofxJ/r9BL/OjGjWaYlTw35m/lNdQg/LhwIS145BEajvuP5QQRGwnzg8a25s3phPMzFmBB9f0hPr+LX3iBRvH3dCxvZ11Cgomg/Y4hj8VK2ErYSvgkVsL5IWXrhpSuRMrWDadwNSIV6Uq8inidRCjC1Qj3F6+TgRHZ7cFzK1em70eMMFGdc/mVC1sk60B6SuSKRuQsZ09CIo7B/DrEuviOO+gQR3tSXCdYfps5ApvE9yEklZeEUR29jKU/ha/JeF5vMl/nhRUr0i6Oxn+VsuAI7yhHtvN4v+g4hUgYEt4lJYzFJzvGjDlGwhHGTYwmWkX0i99ZXiY5yY8/Zp8jZX1Er5sTE2k8f0fQOQydtUbx9UZV+Y8zZphqfef6OEeo5kV1OqqB8X45HvtX3uferl1pCj8kDQrPrpZGe/AwPi+QM6rZzRhqxoyhRvUzkpzwgwmqoiFyeay/8QPG/oEDaQqf03F8rtbExNDR7duzz4XS+c1E0b6kLKiGZ47wdVvToIGtjg73l6+VsD9WwlbCBUNKVyJl64ZPtm5EKtKVeBXxOolQhKsR7i/eUyTsze6liw5Jh+bP9+v4BHluio6miWXKmLZjRL1SwgDV0sgbPbdSJfpu8ODswt+xQOa7P/3UVMsiss1Lwj9zxLj52WdpGTovIV3mww/TXpbqMQhHHB+E+HVWFk1HpyM+BuAqYSy8L7x+cMoU2t+qFR3gY8JDg6lCl2LNWR9R8eHFi+nLzz6jfU2a0A/Dh5ve4HJ9SHA/hJnTUxtR/BRE5Q0bZnd2cn5OFvLhBQtoM0fIyzjCX1a9Om3n83x02bJTPyM6tu3YQctee42G8z2KIUwQMR6GJvCD0Tb+DEe2bqWfVqygfcgmVrMmLX/mGVrGgkZnMxyrqUp3LDjHiIZn8bkdzd/F6f/5D63nByScD0T+qDVwLjhfB9q2NVX8m1JTaX1KCq2oW5cm3ncf9eV7x3bM0pECthK2EvYXroYUroYUroaUrkTK1g0pXYkUroaUrRtSuhIpWzecwtWIVKQr8SridRKhCFcj3F+8TgZ5sxN0LOKCGOkhZbsnqpHXvPGGGZ6iVUXnVknztpCichbL8MvOnf2qtSECdHiCLNGBCr2PkRNaSthIj2V2hMV4iEV5eNEi0+taG6Jkel4jInvnHVPNjVzSmOAhLwlj29/060fL77+f5rDE5t14I6198kk6ggcQpdrZdEqbNo1WP/00zeFjn82CXcHC/G7AAD+5oZ3521GjaHqFCqaHNj7nPDzcLF166rHzcf/Cstv63ntm/1P5+zCNWcjv21WrFp3gKPaUaJij7+3NmtG4a64xtQ69cqLhIXwvTalShZawoOfw9cN+McHGRL5WU5h55crRpuefp5+V63p8714TSWNY0zAGQ5qW8jk5wg8bpzwE8HFgiBikPpnP1yjefhY/kA3icqAvX8NufD84k3dI+VoJWwlbCVsJ+8vWDSldiZStGz7ZuhGpSFfiVcTrJEIRrka4v3hPkTCvM4bP4/LHHjO9iOWCqk1MsIAhOAWR8AwuqPe1aGGqL50LItZvR440PaSNhPl8qhLGgqpalp8BQlA6REHAGDqzq3VrmsZyRDszqoCz+PhcJQyh8P5Wc5Q9hT/PaH7POD4WiPCAcsxYUF28mcU4jb8/o3h9VHnP4O/JZhYo/udczHCpefNoVuXK2WOK+Z5Cj3N5XvG5jkydShv5nC+qVMnIfS6z9OabaSuvfwzjtB0PBKg+PsAPDpNYqr4OWughbc45n0dUf09iprAcp2GGK15vNp/nxbfeSpueeIKOTJpEf6AjmmNBJqzlb75Jw/k7NoA/VxZvZ85tt/mPEedzhl7ks/laDeN1+vLn6hmenbADEbDMniXlayVsJWwlbCXsL1s3pHQlUrZuOIWrEalIV+JVxOskQhGuRri/eDUJL3voIRMdyQUSXvHMMzSWr0VBJDwTEm7Z0k9oiBK/GzOmYBLOZ4EkMBRqT5s2NPuWW0w1uJlvmCWQl4RxDD9MnEjzIEn+LEjcgSQc0/ie3lajBv36zTenrG86ia1ZQ4vuvtt0EkNGLoxDRjv1Co4aTVYx5/oc7SJD2GyWH9ZHRzWMq0Zb7ynrIenJunX0fZcu9CV/hv38ILGP+apdO/qhe3c6IYYJQcjfT59OU1nYaBdGlTRkjA51k/izzuFoeNnjj5txy9uSkmhPq1b0Zdeu9G3fvvTT8OF0YvNmv2p8pKRc+f77NJy/ixgnjKh6ZtWqdFA2SfyRnTFr+h13mGFNufmjQ/TUlVK+VsJWwlbCVsL+snVDSlciZeuGT7ZuRCrSlXgV8TqJUISrEe4v3lMk7M2pjmbRHF2/3kSYzgW9Zte9/TZN4Os+JCJvCWP40uwKFejrbt38himZscIDB9KM8uWLJmE+vhO7d9POOnVoPktpLO8TYkQqSvRIHhbmLmG02X7JksM8yMN5PV82rEl8H214/XU68dVXp6xvejyz/Obwfkbw+tgHRI8MXIsx+QSqeZ3tvJDw8uU0hyWM8c3TrrvOv5e2WTG7U9bvhw7lzkTlm5UKr8nhS7423Bm8XeTgxsPQaD7mOXz+Nick0Pf8YIEqY9+YY7MtpBTlCBrnXXb2wgIJr/rgAyPhvrgPSugS/iNHwtNYwrjvUP3sJmArYSthKV8rYYkUroYUroYUroaUrkTK1g0pXYkUroaUrRtSuhIpWzdKKOJ1EqlIV+JVxOskQhGuRri/eJ0M5HVG8mfDuFyMYZXtouiYtTUuzrQ1YjxwXh2z0BN4PnpZozOQ6GWNNuJ9nTqZXtZIX2l6UrtIGBJCVAopQkynVEfzukjYsZ0j15l8TKj2RTW0L190nhJGT2+OEjHeeRiOOTDQ5IyewNd+3csvm0QczsVUofNnmYnqbl6/P6+PfWCfi26/nY5t2nTKQ4uUMGoF9n/2mV/7+Oku2MeRDRuMJJEcBTUXix55hL6bMMGI1/S6dnuQcXndJ2FM2HA6EpZpKiVSvlbCVsJWwlbC/rJ1Q0pXImXrRglFvE4iFelKvIp4nUQowtUI9xevkwER2eOEkYbyW6VXMyS4r0MHIyJkyIJspYAhZkTJ4/gcLr3nHjqycKFf9Sc6F+1o0oQmswDzGqJkOi3xa7tr16Ztb75JX/O+ZU9ktKke5Ah1abVqpoMXOmSZyRnykTD+3pmRYdpOh3FB75PwREj4lVf8JYzovX9/EzlLCSOdphn3m4eE8b79HTv6SxiRMH8G1BaYSDgHDEdS4XP349KlNI0fcJCQBG23Xw8blr1d57nj3yFkRMPIkoXx2qi2N00DsoajEBLu77US1pDytRL2x0rYSrhgSOlKpGzdKKGI10mkIl2JVxGvkwhFuBrh/uKVEsb43xnlypnpC03k6ViMWJYsoSXVq9M4PpcyGkb1NNopURU9neWHlJB+qSUpp1r7ww9NRqn8knUcXbuWVt57L83n7aEn8o8TJ2ZnuMpd6Q8jmr3t2pkkI0jQYcblBufdJoy/MUfyZL7P0R6MmZFyI2FFwugQ9VVmpsklDWn7JIzJIAoiYVMdzdKXxwEBH2epftO9u4mU9/KDxh4+97sZ/HSC13a0aUNrMf6YPxcSf6xjeZrOXkLAkPLBGTNoW716tOKFF0xO73VPPkk/9uvn15NbShgTPMxQJIzt+tqE+/N9Yquj/ZHytRL2x0rYSrhgSOlKpGzdKKGI10mkIl2JVxGvk4j/Z+88wKwoz/6dfP98SQR2T7PEEisgCAjSEWus6dH0Xr7EEruxpGusiSkaRaXvgrvsssuy7NKrFCuCINJR6b0oLM36/H+/d87svvucZ3YPianOua77mnNm3ilnZs7c53mrIVyLZK54fVzf0dgfK/isvPnmoBKRerizjetqyIvNj9hrFkVcjvUoX5ZPMkKeiGvFKHiX0eEHxVrHXrD69nVZ1mw/21y3lc8h2mPf0dNx3y793vfkACK6RsLDe87jAAisAEX5snJWkxKGuClhikxL+OUmJDwNEmb6Q5EwK2axxvIyiE5XzKIQdyHCfgmSnIM/Edz+pDZt6pkM2NZ4atu2brCHia1bSw3OAztV4WhRa+6/37W7brRN5g5MnepqubMtNkdk4jV5vksX2TFsWPMSxvFGSZgdeczEtWK0PCTRMIwha0aH7YNjCeeiBRxLOJZwrnAttHAttHAttHQ1WrZRaOlqtHAttGyj0NLVaNlGcbghXp+MIV1N2hCvT8oQrkUyV7yNSARD4dXgPD0HKXCYQp2VzM/7XnxRVuChPadjRzfsH7NF2U0km+FMxX0zFw/pDexGkZWbVBTsOrEYMkSmIdpmFNzcAA5h39GsdMV0HBxiY79+Llu2UVqKB5Hf84iWGVmznLepzjr+mRJmljXP0Tw2/WItav+4cT73zp0ri7BsOn5PY3EeWU7O2uWcsuIavw8HxpiAY60F7BaUwx9Oh7S3QOA5xQaQ8gbIeRb/KGG/LOefiOs076yzZM/MmTll/VrCZdj+9K5d5fU5c3IkzFrzcy+91HXsQREPR9oiXEd2V0khx0MZ2mgBxxKOJZwrXAstXAstXAstXY2WbRRauhotXAst2yi0dDVatlEcbojXJ2NIV5M2xOuTMoRrkTTE65MIxhPmeLRTEUFxiL4ckb4X1OZlRaR1d94pC/FAZqUqRqvzEP0u/cpXXHMYZkPr2tUsi2TNXdehBq47BcyhDKPGEw4lPAcSpowoVcqITahy/iAwWxqiZZn1rGytazY9mvEvljCbKDENYfOhN4zjZveXWwYNknnnnSdP4rwzap6A8zMJv1NmY7Od73MQ6EsQ5YKrrw4iYXw/J2Eje5l/dFgrnbW2pyLt1JNOkmdxfTgEpGvPrP4YaQmz57Spp5/uKns16l5Tgmz8tXffLc/26SPT2CEIGN+pk4zCcRfjmJyIYwnnoAUcS/hfKuGblYSfgIQfh4TvjSXcHFq6Gi1cCy3bKLR0NVq2UVC0TZExpKtJG+L1SRnCtUga4vXBA8aV66aDpkocK3gnH8Sqcwe+KEg+kA+uXSt1iOT2IAplP88c4s5JQT3o6yXZv7/MwEObkV4ZHoxlifwkTImF4wNPg1RW3Xij21ej/WSzpZdCKJSPq5UMia39F0uYfVhX4ntOxDFxfF+3bXXcPD72xrXmF7+Qpd/6ljsGtit+7Ve/ki1FRVK3cKGLordNniyTIWVKmNnUa//0J1dhy39x3+wZa8M998jSr31NluNPz5bHH5c3ca2sASt8CXNIwxJ8p0kcxAN/pvi9/Re3/SbO8c6KCtmEbW4pK5NtU6bIsj/8QSpwrhkRh512aPnGEo4l/I+RcD9IeDAkPDqWcCRauhot2yi0dDVauBZatlFo6Wq0bKOgaJsiY0hXkzbE65MyhGuRNMTrgwdMfTSM/VIai3/4Q9cG1np4uxcjYzyYGR03lYYP8514WHMIQzcCE/eDB+yhSJjS5tCAbJv7NKLKbazBrSXBbOlZs1y3i9Nwz8yGqNYZFaL+mRJmBM/KYqwJzmjY1WZWx83vHdZmZu4D98/yYx430/JcMIJ+/emnZWrnzu5PzHgc+5Jrr3Xdieo/Pdw/I2xui9Gvqz3N68N0TUTClPAw3Cu1EOqqu+6yR2bCdpgFzm1yyjLpDSNHypj27WUovivLiGMJxxLW8o0lrNHCtdDCtdDCtdDS1WjZRqGlq9HCtdCyjUJLV6NlG0Uo2ygyhnQ1aUO8PilDuBZJQ7w+iUDCLhpOBc2V2O0hozdKJmrc3SZfjPIgll0Q8PzLL3c1oiuw7VI8FEvwgB2RCCT8bBMSprg40MMIrENxV2AdVjRaeNllsm/x4sbyZ8QN+bA50DNdusjTOP4oCbPm8ERKGMIIJcxy7Ze//GVTwpshYVaQCiXMZlCUMIdajJLwTBwD+7B2fzhALe5Bjnf8xnPPBWLUWfZNvEIJTzn9dFchjpXg2EnHTj0qU8SL67+1aZNrd+2fM9djVlbCRTi3ZCTOw1OXXip7OFBG1J+r7Oud/ftl06hRUhtLOEe+sYRziSUcSzg/tHQ1WrZRULRNkTGkq0kb4vVJGcK1SBri9UkEEnYixudybHs0visrUb2MiHjnpElOTq7npWYezOGLzZy29e8v884/35V1skIRxUsBP4EHNcXKriY5/CBHCNIS3rNwoTzpiYzio8woZfZNvYbRmhqVKCx7XnrFFfIsosY1v/lNjoQ5BN+K22+XCbg/KV9KuAxTVoxaALlbEt5YXCyTW7d26Z+ghFu2dFEu/ySwAw0t4TdeeEGmU5g8p0hLmAPAbj+fv+QSV0HtwNq1rga5O59Rf3CyUTJlubm2VsZDdjyHbKddi3O6ENdmz6JF8o4xVKFbHcfF42e3m2t/9SvZOnhwo+Zn7Dt63g9+ICPxGxqK6zEYDMf5rW3TRlbg/PLPkavMZWzb/enBttaVlEg17hP2JR1nR+eiBRxL+N9Ewgsh4dIRT8jAQY/L72MJN4+WrkYL10LLNgotXY2WbRS+cC0yhnQ1aUO8PilDuBZJQ7w+iQYJ14s4FUTEE3DPzIEol117rSsHZDMjjlPrukfcscOO6viAhszW3niji0jZPaWLgrn9gkDCjIhZS5qy2jF7tuyHlA6sW+fYh4f/lvHjZfJpp7lKXMz+pcg4ZfkwI2jKe+uYMa7pTLge4ZB+6yHNpxClLsUxU1L7s8s43Y3jXwhJs8tHdllZcthhMgJTRrbPXHih6xDDT1+HSHfVH/8o43AemH440lPC7BxkaocOsh2R/n6In2nJPvyh2FRTIxPxvfmnYRikXQx4/MxWH4NzOr1jR3n5Rz9ywy/uWbDACZlZy5QtxwLme/bXzT8n2ydPlhWI6J887zypwLocOYmMwLkbe+KJ8gKi9y3YDvd7kNvANXHjCeP81y1fLhtLS2Xe5ZfLTBzrvC99Sd6YN0/28TjBrhdflNn441GK6zMY2xwI2C90Kc7veKR/6ZprZCevDTv8wPWu3zb2sw/HvG3aNJl33XVSjueB33ZYyzeWcCzhf4SEH3u8nxQVQ8I1sYSj0dLVaNlGoaWr0cK10LKNQktXo2UbBUXbFBlDupq0IV6flCFci6QhXp9EYwmHIuaDvgLHwbGGJ+CBPwMP5qd695b5X/yiLOZAATfdJFsR7bqa1ErEjKD2PvecLIIkpuC+cxWyuN2CQMKcMjpkM5ppEPHsHj2cWCn8md26OQEz25UiYxQcRpS+iDly0myk5VCBT4M5EO+TiE4nQ4BsOsWybUbTLg2WcUrpj8W96fqaphwh1VLAKJfrTOeIRl76GYiox7O7Thwr01PCwzFlpyD8TlNwnDOxz1lMD9i3MwXMPx2UNQVchHWKuR6PH9+nAue2Fvf1FBw/130Ggl3w9a/Ly1deKYuvukoWfPvb8jyHTezbV6ZC2LUcxxnfl/Idim0QjqDEa1SFe5s1leecf77Mx3qLr79eFv30pzLvW9+SmWefLRPYyxl+I6z5Phq/uUk4H1NxrqbgWMfhu5XjOIbiuw3E9+kPBmC7bAfM+68Kz4JJ+D5zLr5Y5n/ve7Lohhtk4dVXy1xse9ZFFwXrI80QfNd4KEMbLeBYwrGEc4VroYVroYVroaWr0bKNQktXo4VroWUbhZauRss2isMN8fpkDOlq0oZ4fVKGcC2Shnh9ErkSdiJOBJW1yrANdubBXrWq8d04pCEHc2AzGjZT2vTYYzndSrqs1H375HVGS5de6preuCxpPBQpYRcNFwQirsT2mc3smvRgH6wJTelpAfsiZoWnSqQZjeNjb1lslsTayKMwj+uyIpcbWzhMA0bjPbueLMf6jH5ZvvvExz8uJYAiLse8Udgu01WDKh4bj5HHmhX2MKQdhimzpSliypz7YPY0s865T3fc2BajYArYh/NCGfO7U9aUeTXu0TE4R6Qa55fDE7L8l52hcPzgYdgX5TsE6w8mlDHmDS8MBs6gpEdhvdG4LlX47fE9O9+gqIuRpojb4HXF59LsvcNmSUMwnwIegO1Rwo9nRcys6SLeGzwGHMtIXj88Gyqx/XJsuxT3QTG24UZUKozbCWv5xhLOJZZwLOH80NLVaNlGEco2iowhXU3aEK9PyhCuRdIQr08iV8AaPsz5sGd5JLOqR6aDCkITcP7ZlpWDHLCdqhYxs6u319TIc4j2xiEto0AKKBQxI2JmTVPOrryT4D1Fawk4JBysgSIcgW3UQ2Fm13XLkc6Rfe/6l4bEmA1NqVLCoYg5j7Jlf9IuLdOFabF8OAWclTBhRBweS/h9+JnzXTa0EnDIUMAIuRhpKVeXRQ84PKH/nsuKWyn5ZhmUZQiWDUXaIkDZ+nA+s5kHYRsULaf87OYVBNnPAzCvP7bhaBVImIRR8UBsh6IljJA55TjCnB+OJRz3mJUr31jCucQSjiWcH1q6Gi3bKELZRpExpKtJG+L1SRnCtUga4vVJ5ErXpDA7YAPes3yXURqjY1Zymv+Zz8gbs2fn1tbN1lreXFLisrJZJsoIMMyWbgTnhfOzso2EAgyJmk9C2frvfbISzoGSzYrXx5ewj5Mq4XsPLeBQwg6kd1CkHhSrg5Jt0Vi+WsIOpCWDs6INpTsQ80IY6frUi9cnK+AccE18GPVq8cYSttECjiUcSzhXuBZauBZauBZauhot2yi0dDVauBZatlFo6Wq0bKPwhWuRMaSrSRvi9UkZwrVIGuL1SRjCtShsPHISs0kpYmanTj7xRFn07W9L3aJFroawFjFrMq/p10+mdOrksp/9aNikpSFeH0o1Hw4zxOuj5euhBdykhCPQAjYlnCWUrkYLOErCxBfv+yZhQOlqtHxjCeeiBRxLOJZwrnAttHAttHAttHQ1WrZRaOlqtHAttGyj0NLVaNlG4QvXImNIV5M2xOuTMoRrkTTE65MwhGtRmDuGcChijqDEgQWWXn+9q5Hs11h2NY3XrpVdzz4rc7//fVdRiFnQOeL1aWmI16eFIVyLwwzx+hjyjSWcixZwLOFYwrGEGxNLuDm0bKPQ0tVo2UYRyjaKjCFdTdoQr0/KEK5F0hCvT8IQrkVhroSdiBMNnXywFjXHpGUt56d79ZKne/d272f16CFTu3SRGtxf5dinmR3t09IQr08LQ7gWhxni9THkG0s4Fy3gWMKxhGMJNyaWcHNo2UahpavRso3CF65FxpCuJm2I1ydlCNciaYjXJ2EI16IwV8C+iFlpayT2x24aWcuZgylU47u6Gs+Yx2zosNtKV+mqKVoa4vVpYQjX4jBDvD6GfGMJ56IFHEs4lnAs4cbEEm4OLdsotHQ1WrZRhLKNImNIV5M2xOuTMoRrkTTE65PIFe7wRFAbljVhOWXfwmwOo+XbSMSAFbZI2LNTPZzPNAV5CJi0NMTr08IQrsVhhnh9DPnGEs4V8F/BQ+DhVoFo328JPwT+nJ3GEo4l3BSxhGMJ54cvXIuMIV1N2hCvT8oQrkXSEK9PorGA2Z70QTwEb8SD+YeQxU/xoP8dHq7s2lCLN4eChmY25vxWhnAtWhri9WlhCNfiMEO8PoZ8Ywk3hgK+Fsf7A3z3GzHl5/dTwrzXfoH9/wTb/g2m/BxLOJZwFLGEYwnnhy9ci4whXU3aEK9PyhCuRdIQr0+icQTMB+OZH/2oZP7nfySB+/JITHv97/+6B2mOdDVM0xQUbD60NMTr08IQrsVhhnh9DPkeqoQp1n6Y/whwbYA9tID/EyX8eyzr/JGPyOG4D87E9A/4/H5K+F6s0w331xHY/lm47+7DZ0qYMr2PywFlqgUcSziWcCzh5tDS1WjZRqGlq9HCtdCyjUJLV6NlG4UvXIuMIV1N2hCvT8oQrkXSEK9PokHCHEmHUQkfuP+Le+v4//f/pAcekN+BNNh5Q450NUzTFBRsPrQ0xOvTwhCuxWGGeH0M+R6KhCnav2LexZDTeeBhvP9vk/D9WNYG3+3jeEZ1xZRSfj8lTOn2xj12NO65Cz/2Mfk9PjNb+m5wLqTMP4R8rwUcSziWcCzh5tDS1WjZRqGlq9HCtdCyjUJLV6NlG4UvXIuMIV1N2hCvT8oQrkXSEK9PoiEKfhQPra9BJC1xPxaA70MWd/HhivnDAHtb4gOVD0lGK+y4gdnUYXkx+zfmA7pfq6B3JvbIxHJEwv6OfdEOB+x68TE81P8K/gIeAv1aBp1VsHvHHPmCYZQAjusRQAk9ThGCh8CjWblRVFz+EL7Lo2Aw3rPf51C+fD+I28BD/yHwV/AoGOoJd0h2XS7/C3gQPAy4XijZAeAmSOJInKtPQCK/5fawTv/DcuU7BFDSDwIe/8Pgz+BPhwXH3h/H/Bj4C97/ETwI+JnfMRTvo4Dr/AE8EKZpGYiWEqZM/4I0fwI8jzyvD+D9H7jtlg0C5nzOuw/cD/7I9K1yBdyUhJn+L9nl92ThMt4bFGwoX94nf0S6ewCLNXg/3Z39zCj4T+A2rHcFvsuvePxI/wDmXYFjYm4MI+SbMf8uzP9DQRAhxxKOJRxLWAvXQktXo2UbhZauRgvXQss2Ci1djZZtFL5wLTKGdDVpQ7w+KUO4FklDvD6JQMLsL/gaPPjaIPr9CO4rcgLed0eUwgcmo5Yr8aDsjgcx57cG50NAN2EdRskUMR/Ol2BeD6S5BrL5OqTUEek64jPLEn0JF4HfYnsXYvvcJyOhTzLyRtprsd7AFkE/y1rCFNMlWKcb0v4A+7oI6dtg3ROZnYn3t2C/P8L8M7D8BMzri3lX4DNl7QZgOCzIPv4J5nEbn8Rv7ySui/e3Yd5gLKOMf4v3F2Ld1lj2CaRhuu5Icw3mU7KU8S04zk6Yx1wDcgrScr9MQ0H7EqaAeaxc/l0svwDvmZ7HyGzeG7H8+5jfGcuPx7w+mPcj/kHAujwXlDO/V1ceM5afDM7JnquHsZwipoAvwLmhLH+C7V2O9KchPfk9llHAFO73sA73c2x2/72R/npsn5Wv8pEwI15Ov4N9nI55x/KYAYsteA+xklX4Z+1n+PxZ7K8D02FfTMd751R87ov0v8R2GPG2w+dPIx0FfTWOpT0+/y/2yfPK+43r/wDzH4glnCPgWMKHLOH5kPBwSPgxSPieWMLNoaWr0cK10LKNQktXo2UbhS9ci4whXU3aEK9PyhCuRdIQr08ikPBjeGBdiIdhCg/K/8F9RfieD0xGKl/HA/cofD4M92phFkbMfEBejwctBwNgxMuHJedTJMlsRH0q0mgJDwE3YJuUQBppmAXObfJhz3m/xLIiQ8IUTgdsj8eRysL9fAzHy3V5jBlMuU0eB+cdg3k34gHPaJRy/CYe/oxeufzwbNoWWJ8y/hUFin3fgDT1x/bh4Pt+HGn4vX5OOSLNpfiu3D/P1f8D3C/XoSy1hBkBt8cyHk943Cxz18fN+TyujwH+MbkG+2L0+7WPBhE3vzfPKWkBKOSrkebRlkHU2w7nJpzP7bcC/JNDCT8IvoLtHJHdB78b98f0PO6bsZ9H8pDwn8Hl2CevWbgdXgNuh+fnRuyHAv4d0lHSPHdH4xh4HDweijWNdBdgGyz+aJu9Z1g2zGj4UzjGBJZ/2LsPj8O638Dx/SGWcI6AP3gSvhwSfgQSHhRLuEm0dDVatlFo6Wq0cC20bKPQ0tVo2UbhC9ciY0hXkzbE65MyhGuRNMTrkwgkzGZIjHgvwgMwFC2zBJmFeCc4EQ/Bj2Iep9+GUJhtTblRFnzQuuYmSMeI5iOYx7SMehjpXom07NNYZ0c/ggcuo7KrsPwXeMBSEHwY80H9LbxndGdJmKLhPpiO0eUPkTaM4Bk9nYrjYlR5CZZRDORyHAej4d9jX5Qt5UcpUrZXelKmWB9DGmZVfw/vr8Kyn2NbX8mKgvv8BuYxq/p3SNMb++U5oMxuQDrOY/TKcl9fwn9Beh4XZc3tMBLmMfJPTnjcjOi/g3kXYfu8Bjzuz+P9L/hnJXv+KUsKmVEuJc3vwT8ljHAp4bbZc8O0x2E5y6p/gGNiVv+dOI5wO/xjxPP+/axMua8LsM0/IV1TEubn32I/vLbcDvd3BbbzPRBuhxLlvfRj7C/8I/YtLL+1ZVDJi9s6BesxCub91To77wx8V2ZXMx2FzO3zj8SPsb9bMI9Rsl9JS8s3lnAuWsCxhGMJxxImGUO6mrQhXp+UIVyLpCFen0RDxSyOjPPVjwdlwoxUKF+OmPMzPAAZjfAB+wVmf2azGvnQ5sOT5XYsE2R2ZihhlucxsmLZIUftcaMEeRLmKEEPY50bkOab2ObnsS1mHXN7FBA/M/s0SsJ8QDNL9n5Gb4Cy4vE5SWJdzrsD22V0ye2x8hSzhG/FPAqT0VhbrP9ZzKd4j/pwEJV2wbZZRkwoaAr381jeF/PDY/scRc3vBrhdzqPEH/h4UEOa0tUVs0IJc7/MOr+b88Bns8LlOf8qjpvzfoW0PG7uj1nO/4djCSNNpmeZMcuFKVimYaR+Bz4z2g0lzOiURQIsH+Z5ZhnxdfjM7VD4lP/F2N+n/jeomczzyWIDRrpNSZjX+ZrDArlyO5Qp/7ixaCLcDnND7kQ6SpgSpYS/i/c/xzxug9vi/ilVSteXMMuJyTnZe4v30W+y8qVg44pZsYRjCccSbh5fuBYZQ7qatCFen5QhXIukIV6fRIOEB+ChxWxnCoEPPz4g2WHH1XiQF+IzH6Y/wvJBSMdy4DBtEstuRRpW1KGEGRnyQUwp+0P0+VEwxXAxHrouGxYwqmPlJkaFTnR4CD/ehIT5gKYwKVuWmTKCpIAph59BWqygRfGxPJfbY8TMSlNXIR2jfGZz8vtwOfcdZmGzzPVupKFcKVbOOzqbLjy2z2QlzIpgjLZDCf/p49G1o0MJM0ub5bFhxatvZo+bsroBx80KWhQs/xTwO/KPCf9U8Jh5vN/D+34UK2A0zPPv1sX2WdGKEub55zmilMMa0cx1YBkztxF+d5574rKlMWWU2pyE78Ln72Nf4XZ47GzGxu24bHZMmTPCSJhZy2EOCsv7u+B6888dr/cXcSx/iJAwa0yfi+XuDwbS3sE/fUrAsYRjCf9dEi4pHS4DBj4m9//+HjktlnDTaOlqtHAttGyj0NLVaNlG4QvXImNIV5M2xOuTMoRrkTTE65NoWsLsMYsRTBgJsyzw0YKgBiwrYVFALlpBmgezEuY8Nm1iFGw1UWKtaHb8wMiJwuDD/XrsN4zU8pEw0/TEeoxGKWHKiUKgCFx5MuaxHJYCDSXMclzWZnZlyFwf22FW9I2YR64DPwPXMDpkGvy+zsAxXo/P14Hw2HwJM4oOJfwH7jcr3UgJfzio4BVK+Nvecd+GNPwurPnMPyRhJHxVNnp3ORE4jrAGNbO0mYYSvR3rsqYzJRwKk1Fw2ESJkfBPkYbCphS5nNnUzJImzFIOO+NoSsKMhK86LIhwuZ0zMI9Z0azdTP4PsI5AWMuZsuX3o7RZLtwJ6b+A9Ly3WHPakvD94LyshHlv/RqfQ7myYtb9WO/PhnxjCeeiBfzfIOEvQ8KPPvaIDC0aJGNiCTeBlq5GyzYKLV2NFq6Flm0UWroaLdsofOFaZAzpatKGeH1ShnAtkoZ4fRJNS5hlxX/CQy+MaFiWyOxI1pQ+KTvvZEz/zIdqqwYJuw4+KF1Dwhz79uqsELivyyAi1pQOI7t8JdwrQsLMzrUkTGnei4c7y0o/it8OpUgpP4B594Fb8P4O8BMce3hsX8J6v8G8yz4SlAn7EmYZ81eQNoxGf4p092KfFC4rgVkS5vpREqZItYTPx774fVgWzGN2ZbA4VmZRcx6zt3kdGAWz2RGXcx/dlIR5Ln+D7bKGMtdhdjClzHJizmfW9a+QvrmKWfz8S6RjfYBwO5Q4y4m5Pms2s7IViysoVNZy5vlhTWgK+mamw/KwPbAlYS5jjWr+6WAOwA+wzs8xj3wL2/gclrHZ0h8NAccSjiX8IesVS9hAyzYKLV2NFq6Flm0UWroaLdsofOFaZAzpatKGeH1ShnAtkoZ4fRJNS5jdWLJcmJWxmO3IBzyF42r2fjgoD+aygQUNFbOakzDLg+/Fg5U1aSlxCoi1ebkt7psPX0q4qTJhX8JsQ5uPhCnO/pj3ZbxnOarL7vxwULZ8LKYsq2VFLIrYHRt+X4x+3bF9OJAyjy2UMNsfM+ub54VZ1TwnTMva1xT0+yFhltmy3PvrHw1qNYfnn3Li+efxcxnPS1gxy5IwYROmLyBtWN7MCJoVtcLmYSxqaC4SZnb1HwGvD9e3tsOmRGymxPvnlI8EdQR43pibwmtMcV+C88bcE5Ydawlz3atwrMyK5rqudvX/BD1qcX0Wf3wK67M3LS3gWMKxhD9kvWIJG2jZRqGlq9HCtdCyjUJLV6NlG4UvXIuMIV1N2hCvT8oQrkXSEK9PokHCLOtlf9Gs+craxiybo4TZkQezn7+LhzSzEykdPgwZFTMrkm1C2U6Y0qV82ZyEzZ3YbtiSMKEUvosHaXuk5fYoQGZvf+ajQY1hioVptIRZHkr5MpplO14nQ8xjdMjIkG1v78QxFWMeK2Kdhs9MexmOi+172U6Y87+Dzzx+io2wDJZteH+J/bLjju9iuTu2DwdyZhnxpz8StBv+WlayYY9ZlDKlTSGyohKbKOkOO1gezexvRqKfQnrWoH4cx/hj7Ivr8o/Ar7MSZgce3DfTssLZQy2CTjpYfsya0Dxe7ovn6VtY/89Z2VK6bGfN9c7HepSuL2H+qWE5MWtXc11KLuwQg9f1psNymyixm0oKnZHvudjmAy2DdsL3YvoV7Jvfl9sIt8PKXcyOZicc12HK5WFES3mGzdAo5C9h/V9jO5Qvs6rP/mjQbWXYYxabMPFeYjkyJc92xMx1oZC/iHPFbGkt4FjCsYQ/ZL1iCRto2UahpavRwrXQso1CS1ejZRuFL1yLjCFdTdoQr0/KEK5F0hCvT6JBwpQto+GwRyx2Y1m/DPMZ7XI+y+wI07maz4UNPWbxIc4KWXxQ83OUhFk5i4J4ENyDhzV7zGKWKfkrPrOCEnvH0hLmPNcb1mFBmewwpBtO2QDOc82DsvMoSQqXAqQ02dVk2GPWQKbFQ/1+PPjvAr//WNAjFnvKYveUbCvMXrLuwbI/Y8pmSyTs8Ypire87GrA8mM2T/pzdly9gwuxpHscfAcXNPw7slpK9YLF8l/A7h71jUcSMiMPOOjiPf0CYjn8yCCtwPcLv3rKhxyw2VaJoKWZ+1t1Wch6lzvJjFgGwadgdgBEuczL4x8mXcNgxB8uCKWT+0Qp7zGJ7Yc7/NbZ1G/gNYCTLQRgo066QK6XLCl8coOEmpOWfNmafU8Scz2g57E0rFLDfdzTLg9lk6Q4ux2fWlGZzpbBPaS3gWMKxhD9kvWIJG2jZRvmX4XsAAIAASURBVKGlq9HCtdCyjUJLV6NlG4UvXIuMIV1N2hCvT8oQrkXSEK9PokG0TZIVLaF0zaENtXQ1rRok7MPs6UbzWubKtxEtjH6iLQ4z+ov2+XhDn9CcWn1HF3vvdd/Rfh/SFO0/awAHSjkU89/TdzT/8LA7S06j+o4meixh3Xc0hcw/X5yG3VVSroximTV+JmTMZm6s4EcJM6udWftshsQ/c02NJ8xa0JSpXyM6/KzlG0s4Fy3gWMKxhGMJk4whXU3aEK9PyhCuRdIQr0/CEK5FoSFdjZauplWugE1aGuL1aWEI1+IwQ7w+SryWhJsawMGXsIUW8Psl4X/mAA75SNgawIGVq86CfJntHI7GxWZMzAJnb1isO3ALjp9Rc1MSjocyjCXsc0gS/v73v/t/Xbt0vLMLuPW2m96OJRxLOJawIVyLloZ4fVoYwrU4zBCvjyHfWMK5aAHnI2HKlJ29fAPnjPUEKF22Hef7L3/sY/KLFkEzJi3gWMKxhJvikCR8xRU/khUrlskrr6yQX/zyVpcglnAs4X+KhPNNR5KGmC0Shpg1hYaYfbSUo2hliNmnpSFmixaGmH0OM8ScJRzswcdJF+tpWAnMgjW0NfXixfH5cOQoi8EGvnjZHWjIwAg4mpUPhZsDzvvjEXC0LA3bilv0w3UOeRiwpjOznMNRk/ieoypRtFq+sYRjCTfHIUn4xhuvlUWLFjpiCRto2UahpavRwrXQso1CS1ejZRuFL1yLjCFdTdoQr0/KEGpIvulI0hCuRcKQrqbQEK9PgSFczC/BcZRwH9k0JdwWl7UyBExaGsK1aGGI18eQ73+ChDni1RCcL8L3/64SrqcgdyzhcDxhi1jCsYSjOCQJ//CH35VvfvPrjltvvSmWsEbLNgotXY0WroWWbRRauhot2yh84VpkDOlq0oZ4fVKGUEPyTUeShnAtEoZ0NYWGeH0KcuVbiu86qnVrqTjxRCdfMhL3hxNxK0PAhILNhxaGeH0M+f67S5ijVfF3Wt6hg5SdeqoU4/6mjFlLXcs3lnAsYS3gD5SEf/CD78gXvvg5xy233hhLWKNlG4WWrkYL10LLNgotXY2WbRS+cC0yhnQ1aUO8PilDqCH5piNJQ7gWCUO6mkJDvD4FWflie5RvJeRbimPk5/roF7jlPDZ+pnQ1oWSbo4UhXh9Dvv/2EsZ5KjnpJCnC+eP7wYAiHorP7FRFCziWcCxhzQdGwldf9WO56+47HbfdfnMsYY2WbRRauhotXAst2yi0dDVatlH4wrXIGNLVpA3x+qQMoYbkm44kDeFaJAzpagoN8Soo35G4z5x8uf8CJVqkGYFzGEfCtoTZ5edQnDdXHtwiqJjFLGnKeDDOKdtyxxKOJRyiBfyBkvCNN1wrY8ZUOW7/+S2xhDVatlFo6Wq0cC20bKPQ0tVo2UbhC9ciY0hXkzbE65MyhBqSbzqSNIRrkTCkqynMlW49WO6i35NPdtMc+WZhFFyOa1bCdYzlH3gJE5yDwTh/fgUtSngYfpuDcP5iCccSDtEC/kBJ+LbbbpYVK5c6fvHL22IJa7Rso9DS1WjhWmjZRqGlq9GyjcIXrkXGkK4mbYjXJ2UINSTfdCRpCNciYUhXU2jIlyQCAY/EvcMIOErATFtGAXN/eplPS0O4Fi0M8foY8v2PkDDPKc6lEzHOR30t6YQdDccSzpVvLOEPgoRvv1lWvbLckSvhYZDwo5Dw3bGEm0NLV6OFa6FlG4WWrkbLNgpfuBYZQ7qatCFen5Qh1JB805GkIVyLhCFdTWG0gMtxzUu5v4IIAQNmQZfy/DSRJpZwIOHh+B2yTLjoyMMh46yIMb8Y55nTWMKxhIkW8H+PhB+GhAdCwlWxhCPR0tVo2UahpavRwrXQso1CS1ejZRtFKNsoMoZ0NWlDvD4pQ6gh+aYjSUO4FglDuprCXAmz3DcsA25KrhRwGa5ns1EwaWkI16KFIV4fQ77/KRIeht/Q8GM/IdW9OktRJi1D0ykZgvtmZNeuMgTnOpZwLGGiBfzBkvBtkPCq5Y5YwgZatlFo6Wq0cC20bKPQ0tVo2UbhC9ciY0hXkzbE65MyhBqSbzqSNIRrkTCkqyk0omB8X1cBi5+1TEPw0A1rSTcl6ljCDRIeccpJMvWyi2Tmd78opSd+UsZ9qjfEfIxU9uzpZBxLOJYw0QL+wEl4JQRMYgkbaNlGoaWr0cK10LKNQktXo2UbRSjbKDKGdDVpQ7w+KUOoIfmmI0lDuBYJQ7qawtwouBzXqFHnG9kpK16VHXVEUAEL81xlrez7HOlqKNh8aGGI18eQ73+ChJkNXd27m6x4+Nfy0p3XSk3fbjL/51dIySknSnnnzkG5cKtYwrGEcwUcSxgSXrAQEi4ZJv0HPCr33Q8JnxZLuEm0dDVauBZatlFo6Wq0bKPwhWuRMaSrSRvi9UkZQg3JNx1JGsK1SBjS1RSqKBjfoz66BRRuOcRbmkzIyKOPkqe//XmpPP7YnHbCOdLVULD50MIQr48h3/8ECRcfeYTM/N7lsrbkAVlddJ+s7PcbWfXYHVJ6ygkyDL89VtCKJRxLmGgB/1dI+MuQ8KMPy5ChA6V6TLMSXuaIJWygZRuFlq5GC9dCyzYKLV2Nlm0UvnAtMoZ0NWlDvD4pQ6gh+aYjSUO4FglDuppCT8JYZwTPKecXBHItOyIjUy/qK2O7dpCa09vJij/dJk9+8UKpatu6kaxzpKuhYPOhhSFeH0O+poSRdji256QbTj20fP+REmaPWZWnnyavDLhLNo3pJxur/iqbRj8srw6+R0a0OUmKPnFUXDHLJxFLWBNLOJZwLOGMIV1N2hCvT8oQaki+6UjSEK5FwpCuptDLisY6YUWr0jT7hk5IBaLeZffdLK89fqe89MsrZcOIP8mriODG9uja0HEH0dLVtDSEawHZlSB9KbbNtseVuL8r8TuoOP6TiMiPlNJEYbSMsX4ZruWok0+W0e3byZiOHWT0ae1dF5tlxxztvm8oZC3ff5SEh+C7jDjpeJl7yxWyfXqpbBnbXzaP6Sebax6V1cX3S1XPzjIY39UXcCzhWMKaWMKxhGMJZwzpatKGeH1ShlBD8k1HkoZwLRKGdDWFjcuDR+I+KDvyCBnfp6uLfKsQqa0edJdsqe4nmyofkq1jHpV1TzwgUy45v6EDD0LRNgUF2wzM3q447ljst5NM+9xn5cVf3CavDO4vq0uKZdWAx+SFG66TKRd8SsZQrCeeICNxL43AMYzAOSvHvVDd4TR57pqrZX11hWyZOkG2Thknm8ZXy9qKJ2TBL2/Fd+op5cceI8NxvFq+/wgJMwKmgGf/4GuyccxA2TGjRLbUPAYJP+pEvGbY76XmnJ6QcNxZRyzhWMLu5SS8cpkjlrCBlm0UWroaLVwLLdsotHQ1WrZRhLKNImNIV5M2xOuTMoQakm86kjSEa5EwpKspbBwJl+M+qDj+OHnxlh/Jol9fLbVndJA1g++RrTWPgsdkx6QhkPFfZd6NP3Lp3peKWVifUe/4M/vIy/djX9Mny665z8juRS9K3fKXZe+KxW76xkvzZOfzT8v2WdNl3cgRsvjee2TO974js77+VZl/+62yrrJcXp//vNQtWyg7Z1TL9vHFsm1sEY4bxzzyMVk94A8y76arpOaMTlJ6xOFSjOP6R0h4CL4Py4BHndFR5t78Y9lQ9Zi88dwY2Tp+IOT7CKJg/KGpfkRWPPJrKWvfJicrOpZwLGFNLOFYwrGEM4Z0NWlDvD4pQ6gh+aYjSUO4FglDuprCxhWz2Ad0VduT5bX+v5M1g+6RKRf2lbVF9zkJbxs/QHZDJhTxmiH3ytRLz5Pyo48K1g1lG4UWL2kVZDtXI7J99uorZfPk8bLn5QWy79Xlsv+1lWBF7nR1MN27cqnsWbxQXn/xeYj3OQh7vpvHZftWLZads2pkW+0Q2VrdHwxwbBndXzaWPyKrHv6dzPzaZVLZto0Mx3kqxrG8HxIeChENg3zLTz1FZnzzS7LqsTtly9iBsvuFsfL6s6Px/vF6Ca8tfUBmfONzUoT0WsCxhGMJaz5QEl4BAZNYwgZatlFo6Wq0cC20bKPQ0tVo2UbhC9ciY0hXkzbE65MyhBqSbzqSNIRrkTCkqyn0JAzY9ndsr+4Q7/2yuephRI93uWkg4YFS9+IEqZs3VrZNGOyWPXnZJTLqlBMje9ZyHXrgerpyWkhvdNu2UtW6taO6fTuZfOEF8sqQgbJr3rOy75VlgWSbwwm5CV6FpBkNz6wJImEnYIh4dDDdMupxWV/ysCzv96BMOP88KcV9NKxVEBVrATcrYaxXlEpKybFHy6hO7WXm974qKx/5rawf+ZDsmF4ie+ZPkD0vTpSt+ONC+W6ufVQ2jn5Ylv75dilv19qMgmMJxxLWxBKOJRxLOGNIV5M2xOuTMoQakm86kjSEa5EwpKspbCxhzqs6tbUsf+A2yPcRlwUdZEWHEp4o+xZNhYjHybaJg2X98AdkyV03yKRzekvlScdL+SeOQnT8CanAfUnhjuvTW56//hpZP2aUbJs5XbbNmiFbpk+SLdMmy7Y5M132ct2yl504969eJfvXvCr7174CMF3zSjDPioj1NBT0Gm4DrIaIV7wkb8ydLtsnliAqHlwfETvGFcvr856STRPHydM/+bFUd+4sI0/Enwnce8NxLYfh/BVDLEUUrpJwEeYX4zoMP+oIKcN3HndeH5n/86vk1UF3O/nyvLwxd4zULZwke1/GuVowUbZNHipbJwyS7VOK5bWh98n4S84NhjI0BBxLOJawJpZwLOFYwhlDupq0IV6flCHUkHzTkaQhXIuEIV1NoZJwIYclPBwR6tmyZsh9sn1ykZPv1trHZDuiub0Qyr6Xp9WLeAeWU9aMnFf88ecy99ofyws33SAr+v1VNk2olR1Pz5Y3Fs5zWcV1yxbJnsULpG75IkS92SxnSPbA2tfkwLrVcnDLRnnr9V3y9p498nYd2P26vLltkxxY/5pLEwg5G+36kTGke2Ddq0iHbWxaL29t3yIHN29w8/a/tlzqlr4ou56GCCc8IVtZTjx+GKLUStm7/CXZt2qpK0feMn2KvFZSLPN+cZs8+a1vyqRPXyo1PXtIZbt2MrL1KVJ+yskOSndUh1Nl4sXnyrNXfUuW/el2WYPvvqn6Udn55AjZ/UItpDtB9i6a4gTseGkKouEJ8sazo2Vd2YPy1BXflOHHHSODCnKHMIwlHEtYC/iDJ+EVyxyxhA20bKPQ0tVo4Vpo2UahpavRso3CF65FxpCuJm2I1ydlCDUk33QkaQjXImFIV1OYK2HOH/nJY+X5q78jGyv+Kq8/VSm7ZpY56VK+TsKhiOePl53Tn3AR87axg+X1uXOcdOuWvgzBLQuyhlcscWW2m8aNhphrIOHFgXwh3je3bpJ39u+X9956U957+y1575135L133w3g+7ffdsve2b8PaTe6dQ6so7RDVjvhcnn9NrgOpu++edCJ/MCG1S4y3vfKUrDEsf/VZRD7K4G8GXGznHnFYtn90nxEyM/JrrlPy45nZss2/P43T50kG/GHYsPYKlk97EFZU/xHWTvsD7K+7E+yefQjLmueZb6MeCncvTgvjcA8lgtvqOonz9/0QxlxygkyuDAYTUnLN5ZwLGEt4FjCsYRjCZOMIV1N2hCvT8oQaki+6UjSEK5FwpCuptCQcGFQU7r6tLby8h3XyZaax2X38zVOJvUCzkp478JJsvu5atk+cYjsmlMj+1ZCsK8FESujXVa02jxpnKyvKpMNNZVOxoxq39qxVd49eMAJUyBcee+9pqGUKdh60Xq883aQxn9lPwciz65n8O7Bgy7qfhPR84GNa5zYXXa2y+oO2Pvqcvdd+KeiDtHz7kXPytaJxbIZ0e/m6n6yeQz+gEwa4sp+66NfnB8KuO6lybJ77ljZWPWoPH/jDyDgE10/0m4YQ0O+sYRjCWsBxxKOJRxLmGQM6WrShnh9UoZQQ/JNR5KGcC0ShnQ1hbkCDnGVtLp3lhV//rlsGzdI6hDN1UfC2Sh415MjZPv4QZBwkdQteRERJitGrXTR7q4XnpENYypkTdlwWT+m0tVmZtRaL18t2n8RLup2EfdbTspv7doeyDgr4X31rAx4ZZnsXvCUq/m8ufoR1wHHzidLEQlPyka/U9z7PTg/rz89StaXPyRzEQGXtT6pYTzhLFq+sYRjCWsBfwAlvNQRS9hAyzYKLV2NFq6Flm0UWroaLdsofOFaZAzpatKGeH1ShlBD8k1HkoZwLRKGdDWFufJtJOLDMzLp3D7y6qN3yLYJg1zNaBcBIypmGacrLx77uOyaNRqRIrN5V7hy381Txsu6UaWuo4yNtaOclN/e84YTXWTk60WwzU7/lpfehjl9z0XP7+zbKwc2rHFlzk7Abrqyfsq2yFsnDJEttY/JzplBWTDLfQmznndAylvHDXC9Yj1z1beCLGiIyo0h3CqWsCaWcCxh94olbIg3lvAHWsKEFbUmnXcmRPxbRMQDZQ+Esw8SZiRMCbNMtG7x8659L7Obme28rqJENlSPlO1Pz5S9iIzfPbA/kO9/ygvH+s7euiAiVk2k9q5aKttmTZU1w/4oq4feKxtGPog/Iv2ddAkj401VD8sq/HGZ8vkLpeSTxzYIOJawSSzhWMLuRQkvh4BJLGEDLdsotHQ1WrgWWrZRaOlqtGyj8IVrkTGkq0kb4vVJGUINyTcdSRrCJc2lS/wNEsbDNRTxhLN6ycq//EK21j4uu5+tztaOHirbJxW7msZsarR5Uq2sh3y3Tp8odSuWyJs7trkKUpHRrw9f+U4P5aXXzXPKqP3g5nVB9BtGwCuXyPqa0VLTq6eUnfhJqWh/ijx71Tdk9ZB7XSWtzdUPy9on/iCLfne9jOnTTYpx3gZDmPUCjiVsEks4lrB7OQkvX+rIlXAxJNwPEr4rlnBzaOlqtHAttGyj0NLVaNlG4QvXImNIV5M2xOuTMoQakm86kgykWoK0ZbguJTi+Eux/BL4vB2Bg15Mjcc0dWF6Oa8JlbphCrMO0pfzO3E6hIV6fgmzf0HjP9cd2P12W3nsThNNPds0okV2zy2XXrCpXIYvZtsx2drWfX1vlsnTrK01F4WpCv+PS1Ve0eiuiAlYj3nbZxthIIM5/wIvbf3P7Ztm3ZpWL8nctmCury0ululs311Z4CNsOt2oppccdLdMvu0heHXiXvNL/Tpn9/cukvM1JMjSZgICDfqT/XgkPwP4G4toNwjXgdCDugwEQzeO4LlrAsYRjCWv5/uslfBkk/FdIeAAkPCqWcCRauhot2yi0dDVauBZatlFo6Wq0bKMIZRtFxpCuJm2I1ydlCDUk33RZKNFyXPtpl18uVR06yKhTT5VRbdrIaNyb43v2kklnnyNTzj1XJp99tkzo3VtqOnVyy6vatZPRSF/To4eMwHnmoA1uSMJCQ8CkICvhLKVIX9OpnSz6zTWyoewvLnt656xR2VrRYRveVfKm32woCkTI7+zf65oRsbb0m1s2yMFN6+TgxrWuza9rgsROO1YHEmSFKFdLGfs4uGEN1tkSRNlWdKxlf6jgzwGz0Hkce1ctk83TJ8sz112DyLedEzA776CEHS0p4mPkya99Rmr79pDhRx/l+o/2R1M6JAlj3UE4z4NwXZx8uS3cg2WdO0s5/gCUn3GGlOA6D8FvbQDS9C9sEDHfD8A99DgkFEs4V76xhP8DJLx06WJHLGEDLdsotHQ1WrgWWrZRaOlqtGyjCGUbRcaQriZtiNcnlSvTQ5YwllOeFG/FKadI9emnS3XHjjLl/PNl2kUXy/SLL5EZl1wqMz79aXnS8Rl58tJPywzMn87lF13k5Mx1KrE+e7YaifvMRcncfkJlURc0ljDhEIej257i2hGzf+ltE4ZJ3dKFgSDZ81WjTjiagZ1whL1juZrHS+sHbGCnHnuWLJCdz82WLVPHuxGRNk0YI9tnT3PlsmxKRGm7mtbv48tVzNq7x4me8t/y5FQZe87Z7n4bCkmGPWiFEua8YYfj+n/iSCnCQ5vZz3pM4WYljPM6COeewxqSkrZt5YnWrWUg5g3AOk7GmD8oHUTBA7GfAYVZ+WJ9B7eBe7kEf7gG4R5xImYapOVUyzeWcC5awLGE/8kSvv76n0pp6ROO23/+s1jCGi3bKLR0NVq4Flq2UWjparRso/CFa5ExpKtJG+L1SRlSDckzHSNgRr2VjGrbt5fJEOq0Cy6AgC+SqZ/6FCLfc2TSWWeBs90yzpt2wYVOwJSzE/Kll7rPXFYDiVdhWxUnnui6bRyB79ooMi7IlbATMR5yIxH9TTq3r6x49EHZOG6MbJ4yQbbNmu46udjxzBzHrrnPyp6XFzbIWUFxszMPSpeVunY+M1M2T6yBcMcE0h032tWuZlMnVvTidOu0iW4drs/etN57+03t0dzINk+YLf72GzvdHwQe2+6XF8hL990tpcce09B9ZQiFjHNRjGvGKfuR9ocyzFfCTr7YxnD8lkfgmg7G+WcUzHmUMyXc3yKUr0d9JIwpo18KeCieIwNw3zyO++fRwlwZ5wiYFOQKOJZwLOG/hUOS8E9+8kP56U+vctx6202NJPwEJPx4/35y732xhJtFS1ejhWuhZRuFlq5GyzaKULZRZAzpatKGeH1SuVI9FAmzLLcc15IRbDUiYUa/U8+HSLuc4eZxLOAROCccCWnEEUcGU5yDcpxzira2cxcZ37OnTD7nXJl+4UVBZHwhI+Pz3PaYXT0KERgHXHBRcWG0hB2FQTlx1altZVzvXjK2Rw/QPTsFvXrK9C99QZY88Hs3LGG9fNmL1solrhvL1+c9I1umTQikGwqXsrWAgDdPHuuaQIX9RUdGwpRqvtMQ1ojeV+fEzu4sd81/Tt5YMFcW3HWHlOAc+gJmlvRwnNsiPOyZ9WyNJ9yshLEeo95i/rZOOkmG4Nq7SBjbHMp7Dr//IZi6ilmGgCncKFxZcZb+2CYFPATPCifigljCWr6xhHN5vyXc79G/yuAhA2R0dWMJ3+1L+Lvf+YZ063aG42e33BBLWKNlG4WWrkYL10LLNgotXY2WbRR86DVFxpCuJm2I1yeVK9ZDkXApvk91ly4uK5nR7oRevWQkrn8pjs9JM6lqQBdmo1m853IKswzbqMB9NQrSHt2unUzs0ycQ8oUXyqQzz5TRiMQqGRXjnmH6ZkVMCoOOPSohkkpsuwLrhnA/0z7zGdk+a0YQ9XIIwiULZduMSU68G8dWNUS5TREKGNHy/uxQhwc3rJV39+/Lr+Z1Hrja0BvXOsHvWfKSbKgdLTuemy0bJtRKBf6cuAEcsgM5FONcD8X3DqPfQ5Iwzhmj3aG81jhnoXjZk1bR4RwK8VSpOuMMGYpr5SJhDdKygtZg3P9D8Hti2fAQ/D59BhPMH4zlA3B/OCFjn3yvo+EcAZOCXAHHEo4l/LdwSBK+4oofyV133em47fabYwlrtGyj0NLVaOFaaNlGoaWr0bKN4nBDvD4ZQ7qatCFen1SuWPOWMOaX4dy6ylcQJeXLSDdHvD6FRkWrwqBLSkqZETLFOQZSn/apC1w29VRE19UUMeZXAMo1LxGDETgHlSef5MqZnYQxrel8uix78M+u+0oKePvs6a5cd2NNZa5oI2DaLU7ALwZjDbMsGLJkxS95L6LtMcWqp83AimIuGxpR8I5nZ8ma8hJZN3qkKxOe8vnPyjCcMydgnNuiQlvAzUmY7YWHYDslJ58sQ3AdmBU9CNsainM3AvNq+5wp1d27SxHubZYHE1bKGopr3wj8HofiNzsU57kI51kzNAtF7MqGcawsFx6Ia/4YPscSttECjiX8T5bw1Vf9RFauXO7QFbNiCccSbpa0IV6flCHXkGbSleAYWbO5Ag9q17yI8xOGeH0KcwXcCKShkMtwHjnW75RzzpUZl1wCIQdlxa7iFkXM78b0BbnirQcPeW5rVOvWLtIOo+CZX/+qG0mJZcLMgnZZz9ls5yZFjMiXaVguvO3JyVKHyNSVAa9bHfQ7nW/b43wJs6LXvip7l78sG8ZVy+qSIlk9YphsxJ+G5fjtj8BvrRjnoRzfi5Gwlm+TEqawsU4Rrl0xzjdFTCEzGi7F+Rrbt6+MPfscqeraVYrxGxmCe7cIvyVmVRfjt1mM86nR4tUSZjTsKmVRwATXezDmP4Z5sYRttIBjCf+TJfztb3/9V1++7IuTv/bVy6fecutN78YSjiX87yThURxWj1LE+xKmSzYRBZNCQ7waPDw5pUDLcd7HdevmomJW5hp7RlcnUoq1lMfBtFHgIc80VW3bOgmzfLoGQuF4vWxaFJQHQ8TLF8vul1+UXXOfglynYDkrYbHWswc+M/JlrWjWuqa89yNCfXPbZnn3wIG/vX0wZRsxZVtl9hnNsYxZVr22skxeKxkKimTtqBGycfwYGdWhg4uGKzEtTuUvYZYZD+U1ZLlvIsh2poSH47dQ06u3TMCfnvHnnScjsV3+5ineolC+WYos8LsOI2F/ygiZETDLgl3zpFDCuMZFuJ6PpRqXC+cImBTkCjiWcCzhv4VDkrD/uu32m/fHEo4l/G8jYRwDBcxmSaPaBrWjWQmrSRkXGtLVFHgixWeXpYz7bso558jU88537YtZRsyyZNaIzpFvlhKs68qbcT+G2dG1kPDG2urseMJLgra+iIjDNr97Vy0JmiMp9q54GekXu+ZKrvJVNuvZHC3pfXpx2xyLmPvbvWQhJDzCCZgwGl5dPlzm/PhH9feci4Sby47G8qFINwzpGQVTvpxXjM/VODcTcH4nXXyJE3A5/mDx9z4Mv0PiCzhKwi47WjEYv5362tGhfP1IGGniSDhXvrGEc4klHEs4P7R0NVq2UYSyjSJjSFeTNsTrk8qV66FImAImla3bSE237lLbvbtrruRkzHSJv1PCWVzzI1zHMYjMJvbuLZUnnxzUvOZ5MNZxWdo4h+ydixW6XHpMGRGP79Nb5t5wnayrKJPNk8fL1hlTZPvsGbLj6Vmy41k2ZZotO5+dI28seCEo73W1nrPDCK5ZKW9u2diQ9exs+TdI2Ih89ZS9cLFjDh7DzrlPy5qRJfWRMKf8vAZirup8uouGy/Ad2TTJEnEo4CKkK0U6ipjlwUN47o45Vsb1PUsmX3SxTL74YhmHPztlbdu65kmhgE0J49zWlwfjNzQEv5FBuB79ca3qKczWjMY1iZIwa0jHEs6VbyzhXGIJxxLODy1djZZtFBRMU2QM6WrShnh9UrlyPWQJ46FOWD48tldvGde7j5MxxVffFWXi75NwKGI2VXIVtHAfsiIY2xIzUq5frzCoFR12jxlWxmIWtl85azT+KNR26eIiYzK2ezccczfXnInT8X36yPPXXyuvz3+uQcKISA9sWA0BH/jbxHsoL2yfomfTpL2I0Lc//SQi3yfqI+EgGi6WNRWlsuB3d8gInI9h+N6l+G5DcZ4aiZjvcV6KsLwY54rLKWWKeGSbNjL+nHNl8iWXysQLLpQx+IMzonVrJ+DhOFchw7I4AVO++M0MxrV1HXcUNNSSdn1Ht1JthbkM98sQrFtfIcuT8CBsL66YlSvfWMK5xBKOJZwfWroaLdsoKNqmyBjS1aQN8fqkcuWar4Q5nxEve7dipxoU8pgzusq4PmfKuDP7OiGP6XKGq0HtsqgTf5+EwwiX/U7XZzFjv6ys5XrXwvY5dZWwQuGSE4LmT8zCDiXsRM73uMdMsIwi3jS+xtVMDqLgVfLWzm2N+54+lFe4Th6wnfGb27e4fbIZ1c4Xwki4QcKEEt44oTaoKZ1OuRrSjIbZVjiUMZstFeN+8butHJpISgX+NDH7eTKzn889Tyo6dHRlxE64xzVEwC4Kxjkvonhxfgdie2ym5NoFt8xtK6wlTAEPw/lnr1muTNiXMLd1dFw7OpZwLGESS7g5tGyj0NLVaNlGEco2iowhXU3aEK9PypBrSB7pXGcdlF42Gh7Vpq3U9ugh4/v2BWfJeMi4tnsPqWRFKn6nRB4iLsiVb46Ijw2ymcMs5rDilYt+lYQpX1bkCrvEbBQZh9L14DYo6elf/ILsfG5O0AZ4dYSEtYwPVcwRL/Zjzag7HKpwz9KXXNMkLWFGw+trq2R9TZWM6dE9aCdMyWJagu/H7OcwGh7cooWDMi7DOZkA8U668CIZd9ZZUorvq6NfFwFnBcw2xK59MKWK7eXbYxYFXHzSyVLerbuMOOOMxhIuCHrP0lnRsYRjCWv5xhLWaOFaaOFaaOFaaOlqtGyj0NLVaOFaaNlGoaWr0bKNIpRtFBlDupq0IV6fVK5YD0XChB12jGrf3kXCrKhV6UTc00XDIYyKqzt2cr1lNSviglzxargdJ+CsVF3WdBZmg7tI1/tMCdeL94RsZNxENFzTpbOsHVma7YoyWx4MXJeUEGSOhBm9vvOOvPvWW9EiNtYxcQM17Av6sKaEXwvGC97+1JNOxKyUVS/i0qCm9K4Xn8eySqk8vZPrutKJuCDba1ZWvg585v0+nh2rsFeyrl1djehh+C0Nx/cmfvQ7BPfZIFwTN4pSVr55SbggyIIuPhn3RLceUoHrX4JIu3+yoXkSs6at8uBYwrGEtXxjCWu0cC20cC20cC20dDVatlFo6Wq0cC20bKPQ0tVo2UYRyjaKjCFdTdoQr08qV6qHKmEuZ7Z0o/JhSJniddFwFmZTj+ncBQI9qmkRF+RKtxF4gDPruVG2tE828h3FY6FweTzs/jLbXphSrgqXR0i4FlHbhprRwaAMqxsqZh1Y94obDlG3B6aA39q1Sw5u3dbQZWUo4ygpR73eC8uDs5Fw2JQKx8KmVJsm1crailIIuNhJmNEwmytRxAvuu1tK8LuoH00pSyhhZlXX9uwl4/r2deXHRbhHhuH+1xGwH/0OhFxJ3hLGOqwNPQznmAKu7H2mm3IAB795EiUc9x0dSziWcAOxhJtDyzYKLV2Nlm0UvnAtMoZ0NWlDvD4pQ6oh+abLwoi4vnwYghvdsWNQUevMhojYifj0zq4f6UgRFxji9cEDnFNXAYvS1BKmeLPSpWjDdsVhubD/uZGE8b7qFAoa6yBKnvrpSyG3Gtk195mgaVK2ghabJ7178EAjEbN7yf3r1ss+8O6Bg7kC1tFuM1Dk7ADkwDoOmxhUCgujcQ4swT6k11VXuGZKYTT8xqL5smXWNKk952wpShQ2GtbQZUPzzwt+M6NO6yDDcH+FHXO4KFgLGNfTjaSUFXDeEi4Ixhge3ratjOxOAfeRClCKa16fFY00fD8Q94suC44lnIsWcCzhWMK5wrXQwrXQwrXQ0tVo2UahpavRwrXQso1CS1ejZRuFL1yLjCFdTdoQr08qV6Z/k4TxYHAixnGX47q5bGmIjsMajsVDmE1gGH25rOnevWV0+9OCylqFf6OEw2gY90CkhEMR+4QC9iRciXVGt20tNZ1Ok9mXXyKzv3wpRBwIe2y3bjLjsi/Kpgm1svP5OVK39CUnxTe3bpT33mzIlmY29L6162Tv6jVyYOvWoPMOLWL9MuTbSMTYphs9acMalw2+fw2HV1zlhLz31eWu7fCWJyfL2qoyWV023EXDu3F868dWSzm+e1g7uhj3AWtH13fSkX3v2gfj3nfZ0BQwpvzMPqO1gPOSMNZh/9El7drLyJ49pbJPHwfHG2ZbYUbIFPAApCnC/dEf11/LN5ZwLlrAsYT/hRK+9bab34olHEv431bCJBWI2EXDjUQcRMSsqMVoeGz3HlLG854wouECQ7w+WQnzvRkNU8LYL7OgQ3JknI2S2QnI2K6dZO5PviYLbvieLLr1/2T+td+VMR3a1UfJo/Bdas/oIpPOO1dW9HvItSmmAFl7OSwfDiPhva+tdtHwOweyzZh8Ef8NUObcNrOn3979uuuhi6M0uaxqRMl7X1kur780T9bXjHLlxbsXL5AdiNwnff5zUoxrwfLh4bgnh+P+dbWj/fJhfC7G/GH4fRB2X8nOO7R885JwVsAjOnSUip69XARcietcARkPP/XUoCwY+6N43TCGSBuPJxxL+N9Wwnf/9lcfsl5xJGygZRuFlq5GC9dCyzYKLV2Nlm0UvnAtMoZ0NWlDvD4pQ6gh+aYjyayESSrbm1Y2W9qJuNPprv0wJezIZkvX9wHtU2CI1yeUMKNhpM8pG8Y9yprQvoQtKOHa0zvIC1d+Q17+xZXy8q+uksVgIUT85OcvkCoO/EDB4z4jlbhnqzucJhMQ0S/87a9l2+zpsn/9GidIyvLNXbtk35q1TsQHNm3CfGNM4UN9eRJ/7913XTa1A/Ln9t9CpMxuLfcsXihbZ0yWbXNmSN3yxbJ+fK2UnXKyk7C7d3GOiinZlkHWNHGDN2A5ZUzcUIaGfJuVMLeB612Ga1zZq7eTrxMw3pd27CgDcY1dOTGmQ3AO+2cCAVPKWr6xhHPRAo4l/H5K+KGshCvzi4QbS3heVsKPxBLOBy1djRauhZZtFFq6Gi3bKCjapsgY0tWkDfH6pAyhhuSbjiQ9CWepF7EXEfsiZjTMIQ//HgnXZ0vjGvpNllzlK0O89fB42rWVZ777JVl0+xVOvot/GUiYQn7hqm9I9altGkm4Hsq43alBZPz4I7Lrxbmusta7Bw+6KJgSZrb0we075F1rXOH38cVetRgduyzqFYtdJMzoeNvTs6SiQwdXQ9rd//gerAXtR8ODfFo2jKqk5duUhNlBBzvtKDu9sxPwqN5ZAfekgDvJQFzfsKJWMc47hy0MBRxLOJbwv4eE+8cSbhItXY2WbRRauhotXAst2yi0dDVatlFQUE2RMaSrSRvi9UkZQg3JNx1J5kqYULKUcNC1ZWsZ07lzvYjH9uzloticLOkCQ7w+SsI5Ij4+6IyDZcI58g2jYEq4/aky/7rv1kfA4ZQynn/Nt52EXbtjwC4zidtH9j0jYw65OP0Ln5Mt0yfLW6/vQgS82QnYZUuvXYfo+HV59y22K9b6/Dtf2Qg5iMC3y/41rzgRu36wX1spO559SmrO6uvaCbv7H99hOGCnHWE07AvYRcKHImGc84G4vuyysrzLGTLKCbiPjIKAR+K6sjlSvYCRzg3ekGmIgGMJ56LlG0s4l1jCsYTzQ0tXo2UbxeGGeH0yhnQ1aUO8PilDqCH5piPJXAHXixjfhQL2+5hmdnRklnSBIV4fQ8K+iJklbUmYFbG0hF+84ftOui//8kp5+edXyEu3/VhehJhnfuFCqTolyI4eiW2W47qW4ZyPwLnglKM7UcQum/qE411UvB4/5H2rX4WEVwfR8GuBiA9u2+6yjt979/02cRAJH9i4NmjGFDZnwnT707OluldP1yTJ3f/Z35MrG24VdNwRSnhwqwIZdvQxwVjClKsh4EYS5vq4ZiWnnioju3YP5Nurj5uyKRJrRtdnQWObg3H+6kdPUmj5xhLORQs4lnAs4VzhWmjhWmjhWmjparRso9DS1WjhWmjZRqGlq9GyjYKibYqMIV1N2hCvT8oQaki+6UgyV771pLIdekB8ruMMSHBsj55BNIxpTgWtAkO8PoaA60WM/bker9gUyZCw3zypul0bef4nX3MinofI97kffkVmfuliGdejs2umxGxnirYU2yzh9iGgJyAtTvm5DOfXifiYICqedM7ZsrayXPasWF4v4TBrev+GDfJ23d6gM4/3a8xhjjd8YL/sX/uq1LkRoYIouG7lUlk9coSUtz5FhvE+4f2f/b24LGklYYqX4wmX4rwMxXeyakY7CWP+IFynoUceJeWnd5aKHr2kEvIN6O0i4qLjPgnxppyAOYADBcxOO8Ka0Rot31jCuWgBxxKOJZwrXAstXAstXAstXY2WbRRauhotXAst2yi0dDVatlHwAdoUGUO6mrQhXp+UIdSQfNORpCFfn1RQa9plTTNK5WAPPXu5mtI1Z5zhOvuoF3GBIV4fQ771YLnLAsc9mFNDmk2STgh6y3J/CE7gQA5tZMxp7aSaIDJmUyXOdxEw7i/iBoigfA87rBElEBOjYkbKoYgnn3+ebJ46SepeWdVYxK8FUfH+jZvknX37gw49KNK/9fVetn/pHVtl76plsnXOdKlbsUTq8H79uDFS3aO76z+akW+J93uyImHC9sKVXbrIyE6dZCiuEzvqGIRzSSFzys9D8F1Lcd0qunaTUT17B9EvBQwZl3fuIoNxbw/A9WNbYY6cxHJg1op2IygV5Ao4lnAs4VjCjYkl3BxatlFo6Wq0bKM43BCvT8aQriZtiNcnZQg1JN90JGmI18AJ8sRg0IVwsAdmS9fg/QgKg+kKDPH6aPEq3LCHuL/Cpkhh9nN9t5XHB11ZujbCuJ/HQDy13TiKUnfXU1aV6sSDWc8UrpawEzH2V45rSgmTKvzBmPOdb8vr85+HeF8FrzWI+NXXHJTxgS1b5N2DdveX+cIs7v3rV8vuJS/JlumTZM/SRbJhwlip7tlDhhYWBJWycG+zgw7+Vobj+MwyYTAE0WslrkFVL0S3XbtBxqe7riuH4n4efvwJQeSL+RRuvXwh4nKs80TrNq55khvQAcJiFjSjX0bCoYBjCccS1vL9V0v48i9fJo/0e0gGDT4ECTduJzxPhj9RLI89/ojcc28s4WbR0tVo4Vpo2UahpavRso2Com2KjCFdTdoQr0/KEGpIvulIMle4JngQhZW1KiFHDu7gRl2iiLt2dT1uhSMi5cg3xBCvHwlT5JRofXvgbFkw3zsJU7BZAXNIQ9bSHgf5hHBoQ6YPRcxIN0rCjJBLcaxhNMwy4vG9esrOZ2a50Y/2LF8mda9Sxo2j4qBTD6+Ly6iXIV/y3rvvyNt1b2BbK1yf0pumjJNtT82UiZ/9tBTh+7OTjrBSlouEcVzDPtG4rXAjCeM7lJ3aTqp69pSq3r0DGffoIZUcH7o75rHiFcTLKankgAwdO7qa0S76xbnndBA/Y78cO9gXcCzhWMJavv9WEh6tJBzVTjiWsIGWbRRauhotXAst2yi0dDVatlGEso0iY0hXkzbE65MyhBqSbzqSNIRrgQcRpxQtazG7UZc8EbNf4zHMFsUyypqdceQI2ROuAw9Jthd2QxkivWs3fELQYUc4UIPLfsZ714TJkzAjX1/AvojDvqUp2FJsP0fAYTQM4bHiVhgNj+16hmyfNd31rrV1xmR546WFUvfKK/WRsB8Rv703tx/qfGCFrINbNkrdisWycWKtbJxQI1tmTJGR7dsFgzfg/NRnReOYhuG+0511+BJmuTDLg0eefroTcCDi3tlpIN9KXBtGw4yKi44+RgbiuofydU2VsA9GwZaAYwnHEtby/XeW8D333PHLD1kvnR0dSziWcLOkDfH6pAyhhuSbjiQN4VrgQRTCYRAZ+bqmS5DhWERh7OLSgQc+5UwhU6j1Qsa+KFtGuxR5Gc43peuGNsT9Ut97VijhbK9YYaUsN8xhKGH2hNWtGyLh7hBnNwi5q8O9R6RX2+WMYAxibJtZzpHRMBiB4wqj4dounV0XknuWvCSbJ9aCsbLrxXlSt3IV5Mts6Qb2b9jo2hcfqojZWQc76WAf0hvGjpYNE8bIZki4vE1r1180s6IpYVbEcpFxq4ahDOtpFXTO4STMKUWM81zesRNk21UqcG4cOB8VLC5o116G4L4chO1RuqGAh+L8UMhhebCWbyzhWML/aRKOzI6OJWygZRuFlq5GC9dCyzYKLV2Nlm0UFG1TZAzpatKGeH1ShlBD8k1HkoZwLRINEtYiJqM7dJAals9Swln4mTKu7tQJYm1TL9v6zjkoXQ3FSwGHIylls6b9IQ6ZFT0GkR/nsYIVa0GzCZKr1HVKa6np3MWlCaPhSAl//OOubHgk7hFKuBrR6JIH7pM38BvdNnOKbKwdJZsQqe6Y+5zsWbGicUTMbOnNW4LetQzZRvEuJLz3lWWyafJYN5BDvYTbBn1Gs39oijgc1tASsOumEtfACbgg22MWZY3zwAEcGpFMuZrRbjxhpCUD8ZlthQdg6ipjYVks4VjCWr6xhPMnlnBzaNlGoaWr0bKNIpRtFBlDupq0IV6flCHUkHzTkaQhXItEYwmHZcSj2ratrzldcVJWnpQoo9dQplyGyDQcO9gJmJFqKF4Fo1gXyfK9lyUdLq/CPms6d5Zq/HYoXzY9YmQ985vfdPMp8TEdOroBHpyEmQWuBRxKGGILJTwKv5EnL/+SG31pz5IFsmlctWwYUyEbIcodzz8jdStWNlTU4pS9a+3YEQz60EQ5sM87Bw/IblbEGl+dK+EWwchJOUMZspwY39NFxRRzKF1Ipgj3ZVgj2oF5jd4DN6whGIzrxXbC9TWhKd+Qglz5xhKOJRxLOD9iCTeHlm0UWroaLdsoKNqmyBjS1aQN8fqkDKGG5JuOJA3hWiRyJcz5FLGTK8THyJjRq/uspm6oRNw7zH5mNnQVI9XsvMiomPNPaCgjDudRvi/ccotrr1yKSI8SLi1MBKMqtW8flAuzHBn7ak7CrKDFaLri6CBLekLvXrLz2TmuK8nNk2qdhNePGelEvGv+C1L3il9z+jXZv35D/l1cQsJv1+12FbHW11TKujGBhFkmXC9hBSVMAY/p29dV0KrPig6BaCjjIUhThOXDcH44pZyL8f2L8ZlZ0QORJiwDbiTfWMImsYRjCR8KsYSbQ8s2Ci1djZZtFBRtU2QM6WrShnh9UoZQQ/JNR5KGcC0ShoSzsB1xFe7jULROuiH4zCESXfkvKE0FZcOugheXZec7OVOaFG9WwmE07MYWztaQDsuOp33hC1J96mlSljlCRqTSiGaPgUiPg6A7yIqBA13FLVcmTAnjoW61F3YSxpS1pF1PWkjLUZe2TJ0oe1cukZ3PPyUbx1Y5EW+AiDdNGutqTfvNl9w4xHlKmAM5HNy+RTZNHgcBj3QSptydhLNlwhpKmBWzXA1pSIWfXXeVoYSzUXF95IvvEkbA7j1wAkaakBwBxxLOIZZwLOFDIZZwc2jZRqGlq9GyjcIXrkXGkK4mbYjXJ2UINSTfdCRpCNcikStfPyJmGTErX7ESFqPjMpz3ETgXrkKWv42ChtrSrva0B9NxHSde9oyF38Yojoh0QjCwA6NgCpudcFCao07AsmM+KZXHQNjHImI+4WSZ9rnPy9rRo2Xieee5TjhcJMz9aQGHEvbKhZm26pST5bmfXilvLEDUu2yRbIIkGQm7aHh8tby+6CWp87KjWS5cnx3dzIvlx2wbvGEcs6KzEp5YI5unTZLy1oaEmTUNkThaZbOi/SjYlzBwPWYZ+AKOJRxLOJZwLOFYwhlDupq0IV6flCHUkHzTkaQhXIuEIV9NYbb7SmseKTDaDmsKgyZLFHL5kUfIuM6nOTHWZ08fF3TCwbJgVyEL56ri2OOdjMd07CTLH39cnr/hBqlu3775tsKhhFs0lAszep5wZh/Z8cwsFw1vnT5JNtRUukh4w7jRQW1pNlt6jT1prZW36+pchKvLfnNAmrf37JbN2N66McyKbpDwxknjpKz1KTkSZgWtEvxuh+HedMMWxhKOJUzSsYRjCWvhWmjparRso9DS1WjhWmjZRqGlq9GyjcIXrkXGkK4mbYjXJ2UINSTfdCRpCNciYUhXU+gJ16LAkK5Fq6A98Yh0Sib17CITe7E3LNaODpoouYEZALO22Qc0o2aWBY9u1y7oOYuVxZgOy5psouRJ2O89q/b002VtxQjZu2KJ7Fmy0DVbWl9dIRtqR8uO55+VulVZCa9bF/QpnceLtaLrXl2ZrZA1sh6KfXV5iYw46aQcCYe1pYtwP7jxg2MJxxIm6VjCsYS1cC20dDVatlFo6Wq0cC20bKPQ0tVo2UbhC9ciY0hXkzbE65MyhBqSbzqSNIRrkTCkqyk0xOtTYAjXolUg4TKcyxmfuUimnddbJkLGTsSfzPaGdWzQP7TrohLzWCnLRcv8nF3OjjgiK2V5Eub7Mpwrvy/pKRdd6MqEGQ1vmTJe1rNcuGaUbJvzpNStDGpJc3AHJ2Ed9SrcsIU7t7t112MbjIBZM5rTNZUj5NkbrpXhONYcCTMaxnkrPflkN40lHEs4lnAs4VjC+eAL1yJjSFeTNsTrkzKEGpJvOpI0hGuRMKSrKTTE61NgCNeiVVbCuCazv/IlmfapvjLlrB4yrktHqTzxhHrRuvGCfY7Jjh38iSC7ukkBKwmzZ636LixBDTvuGFvtJPz6/OfwfjREXCmbp00M2gyzPHjL1ubLgyHhdw8ekL2vLne9Y9ULOFsm/GpJkVR37+aynrWAnYRxXke0aeOmsYRjCccSjiUcSzgffOFaZAzpatKGeH1ShlBD8k1HkoZwLRKGdDWFhnh9CgzhWrTKShjnfOaXPifTzj9TpkLCk3p3lVEnnVgvYGYhs0zYlQ/ju7CWMyth1Q9fqKWrCSXsVc4KJczeumZc9kXZNfdpV0Fr88RaFw2zNvOeZctl75q1cnDHzkDCRvTbEAUHIybtevF5WQ+R+1Ewo+LVZcOlHJGulm89PB/4Xbqa0bGEYwmTdCzhWMJauBZauhot2yi0dDVauBZatlFo6Wq0bKPwhWuRMaSrSRvi9UkZQg3JNx1JGsK1SBjS1RQa4vUpMIRr0SrMjj5cpl10vkw7t7eT8OQ+XaWqNbOkj3MRr6tdTdn6QFz1aOlqfAm38CpnHRNE1Cxf3lBTJXXLX5Ydz8yUDWOrXPnw7mXLnITffP2N5iX89luyf91rsm3OjJys6PW1VbIW78tPzpYHt2rpakH7HXZQui4KbhWXCWu0fGMJ56IFHEu4XsJFWQn/LpZwc2jparRwLbRso9DS1WjZRuEL1yJjSFeTNsTrkzKEGpJvOpI0hGuRMKSrKTTE61NgCNeiVUPFrIk9OjsBkylndpOaju2k8vig0lV9+98otHQ1noR1px3cvouGv/RFVzZct3Sh68KSzYt2LXhR6l57TQ5sy46mZMi3XsJvvSn7Vq+EhKfnSphZ3Nhe+SknOwEPOyIjw486QorxvV23lZRwVsRx7ehctHxjCeeiBfzfI+EHYwk3i5auRss2Ci1djRauhZZtFFq6Gi3bKELZRpExpKtJG+L1SRlCDck3HUkawrVIGNLVFBri9SkwhGvRKhsJZ9KBhM/OSvis7jKhe2fXveT7LmF8LsX2wmg4LF+u7dJF1o0ql7plL8m22dNcbeats6bL7qVLXFeWb+1+o8lBHNyADWtecSJn5Jsj4bGhhFtBwLjHjj5Shn/iSClOBcMaus46sKz4yOxoSrGEYwmnYwk3SLgilnAkWroaLdsotHQ1WrgWWrZRaOlqtGyj8IVrkTGkq0kb4vVJGUINyTcdSRrCtUgY0tUUGuL1KTCEa9EqK+HDM66JkpPw2T3ddFKfbjLqxH+AhJkl3TIY2pAVtEJY83raZz/t2g2zuRI773BdWC6Y7ypp7VowLxhNKeLF7OgD616V3a6pU3V9+2BO14+tkrWjs9nRrUIJH+VgRDy0IBhBqb7HrIJYwrGEYwnHEo4l3Dy+cC0yhnQ1aUO8PilDqCH5piNJQ7gWCUO6mkJDvD4FhnAtWgVjDpcf/QmZ1KtrNju6Z7ZcuJuMbn2yq5hVyuNvqcqB/w4Jcx6jYS3iMZ06yatDB8qexQtk+5zprmx408RaFxVvnjYhiIYZ+RovJ+ENa1xf1Bw/2JfwuppKeWXYUCnDnwo/EnYS/gSzpZNOui4SxjHFEo4lHEs4lnAs4XzwhWuRMaSrSRvi9UkZQg3JNx1JGsK1SBjS1RQa4vUpMIRrASmw0hV7ypp8ZvdGkTBFPKHb6TLqhOwISdxulIi1dDVawtmy4RFJ9tZ1pBcNHyeTzj1Hts6YHETDk2plfU0wsMOGcVXy+ksvBkMaGi/Wjj64dZPse3W5bH/6SVlfG5YLB511LHnozzICv6lAwkc4AfvRcNhdZVw7Ohct31jCuWgB/1dI+PLL5OFHIOFBzUj4yit//PX/+9H3373uuqvl1ttucglCCQ8bXiSPPvaI3H1PLOFm0dLVaOFaaNlGoaWr0bKNwheuRcaQriZtiNcnZQg1JN90JGkI1yJhSFdTaIjXp8AQrgWkwC4pazq0lylnBuINI2FOJ/fuGkTDxwXdUrJpkiliLV2NFrAXEYedhbiBHXAfVrVtI/N/fqtrM7xr3jOycRzbDVPEFa4rynf27VX2DSJjdmnJkZP2r31F9ix9yWVlB5FwUDa88O47pfTYY1z577DDcd2zkbArGz4qKAd2HXW0imtHa7R8YwnnogX83yThgZBwVVMSPuvMnnc8++xTsmfPG/LLX90WS1ijZRuFlq5GC9dCyzYKLV2Nlm0UvnAtMoZ0NWlDvD4pQ6gh+aYjSUO4FglDuppCQ7w+BYZwLSCFEZm0TOjTC9EvYRTs0bd7EA3/f/bOOzyKsu3b/37v+5oGdnrvvShiBRSwoYhixYoFRFBpVpr0XkMo6b0nEHrvvYQESAIsEAgthIQu6vP7ruuenc3k2ntgUR/rznGcx6RMks3u7Jzzu8t1Owt3sCR5ZLPqI7bK2Cpc+pz7fBX0+9XePE5KmAh3pmJO2qp5ms7ZBa1b4WhcFEqyduHMysWqpjRLmFdXun7urFFDWrNxycprJxxGLeo1yykNG8sY8kCt3XTxiKTHrwpz0OM30rAhYh6gFRzgj3A6z82maK+EvRKWAvZK2EbCD5GEw8NDkZaWgkGD+3slLJGytUNKVyKFq0PK1g4pXYmUrR2mbO0or5GupJxGvFYCNEI18fQ4xl8jXB1+GulKfDXiteKjEa4OkkI0PU8rOjyG5TxH2NkM7dpz3zCl4dR6tZFQxShVaa4dzOnVLNhhlS4na2sTs4LODSVvPtaUtkXCCjMV88/S31nc7gm11GFJ5g7XCksn0hNRuHUjfr521W10tBoh/fNPuHH+LK468nAxa4+qnMUCPr1qKbImj0cU/V5jnvAdCLvrTqeEeZT0XQi9s5x6z3mbo92R8vVK2B0p4H+dhHv2fB+dO3dE/wH9vBKWSNnaIaUrkcLVIWVrh5SuRMrWDhbtzSivka6knEa8VgI0QjXx9DjGXyNcHX4a6Up8NeK14qMRro47jCTMFbLcUjDjFDF/n0VsJmJXzWgW7P1G+UpTtvy59Rge2KUKczi/z2mXS1eaydglYTMV32GU0UyoWQObPvoA57esx7l1K5WAOQ2fXrEYP1+5IkOwsZGIf/nxujFAK28/ztLPqRHWu7bgSFSYMTCLJUxS5alJLF8lYSL07jsRdm/poCyvhL0SlgL2SvimEn4PnTo9hS/7eyXshpStHVK6EilcHVK2dkjpSqRs7bAKV0d5jXQl5TTitRKgEaqJp8cx/hrh6vDTSFfiqxGvFR+NcG3galnG9CR7CZuJeEHj+kiqVlUNoHLVlWZM2dLHiVWrIrF6dUVCVWfpS5awhTg6B3hQFidiKWFOxGp5RTouvUVzOEiexbu3kUxTVBouWLoQNy6WcCewWxI20vDP+KnkAq4cO6z6hk+vXKz2JxallylbydOSzKlK4UToXeXLCNgrYa+EpYC9EraRMPcJDxjwBT744D3vwCwdUrZ2SOlKpHB1SNnaIaUrkbK1wypcHeU10pWU04jXSoBGqCaeHsf4a4Srw08jXYmvRrxWfNxla0csiUglYdUM7RSvVcBtW7r2XElrUfPGJNiqqslYLujAX2P5JtWo4ULJuJJRecvaRG0ufegmYYa+Hk3fj6f30soXX0Dh5nU4s8pYb5iT7eVjR9SUJDP9yj2vuHT9bAEuH8lB8d7tuHzoAE6vWY5Y61rCd5QdJR1GSVgNymK8EvZKmCnnlbBnEn74wSHjx4/B2LGjMHDQF14JS6Rs7ZDSlUjh6pCytUNKVyJla4dVuDrKa6QrKacRr5UAjVBNPD2O8dcIV4efRroSX414rfi4y9YObh6+VXO0lWUkY3O5Q5auOWCLkzAvc2gVsItq1VwiVknYKeIYev45+UoJh3H/sL8zDbdsgdMrlhgrLC1MVs3SZzeuNfqF7TazWfrkMVwhEV915OLcxjVIaFC/tF70HWWLdoTdfZfqDw6l88o7T9grYa+Eb0PCjz760JCw8GAkpyRg0OAvvRKWSNnaIaUrkcLVIWVrh5SuRMrWDqtwdZTXSFdSTiNeKwEaoZp4ehzjrxGuDj+NdCW+GvFa8XGXrR2x9zol7EEStu65zGVSdUPEKuWyhEm2bgJmOB1bROySML+GJEQ3CfOehBVD51RS7drY/e1XapUlroSlpiqtWIyfzKlK1iQs+PnaFUPEJOELu7ZiTY831PQk9yR8N8K4chY9/9G8prCfsZyhV8JeCUukfE2kgP9VEn6cJJyenoJt2zfjq68GeCUskbK1Q0pXIoWrQ8rWDildiZStHVbh6iivka6knEa8VgI0QjXx9DjGXyNcHX4a6Up8NeK14uMuWzsMCTeDUajDiVXAN2FxyyZGH3FFoz/YlLDZJF1mz/3E9H3XQC2Cm6TtJBxG4oui1ziO3gfLOnfCuQ2rXRIuWJaBny5fcpOuG7/8gp+vkohPHMPlQweRvzC1tElaLeRwp1PC95RKmB6vV8JeCXslfDsSfvzhIctXLEEevcm++torYTekbO2Q0pVI4eqQsrVDSlciZWuHVbg6ymukKymnEa+VAI1QTTw9jvHXCFeHn0a6El+NeK34uMvWjpi77zIkrBKwU74uETuFa7PnPuKFjRuo1ZZMCZuDskxcSdgcrEXnvinim0qYvh5Jz5tqkm7VEmfXLHdOVTLmC/9kDs6SaVimYouIeXrToqc6IMTfzxicRc+VWcKSJczN0WH3eMtWSqR8vRJ2RwrYK2GvhL0SZsprpCsppxGvlQCNUE08PY7x1whXh59GuhJfjXit+LjLVssdzsUbHmhamn6taNKvZEnrZpRwjalLnHSlhBWckJ17Hj3tkjCfC3YS5r5ieowxdO6lNW+Gk4vScWb1MtUnzDK+euLoLZc3lCK+euwwTmSkI7llc1WwozQN3230CdPXQum84UTMA7S8EvZKWCLlayIF/K+T8AqvhO2RsrVDSlcihatDytYOKV2JlK0dpmztKK+RrqScRrxWAjRCNfH0OMZfI1wdfhrpSnw14rXioxGujjss84R/RRLmPadhnrrENabd5CskLJukbylhenws4WR672ZPHIfzWzbg5MIU1Sx95XCOWr7QLfnawSK+fBGXDx9EXshcxHCzNMk1hJ5Pni9sSjiczuOo6tWUiL0S9kpYIuVrIgX8r5Jwu3aPeiV8M6Rs7ZDSlUjh6pCytUNKVyJla4dVuDrKa6QrKacRr5UAjVBNPD2O8dcIV4efRroSX414rfhohKvjDqeEHzJHRN++hJnFrXnt4cqqqdlNwDIJs4QrGnOHbylhkh9LOKFGDWzs+b6S8KmlCykJp6k+3v+YizlI4drAyZkrap3fsRkru7+MUHr9g+8wBmipUdG+PmrOcGTliqpZeh49R14Ju8vXK2F3pIC9EvZK2CthprxGupJyGvFaCdAI1cTT4xh/jXB1+GmkK/HViNeKj0a4Ou4wVlFKqV1TLV34qyRM+6UPNFUStm2Stibh6sa8YU7Dnkg4mo4x5wuf37oRxXt34MyaZSoJq/WFNbK9GWrqUr5DDe5KffABlYRD6UYklEdNWyQcVa0qgun8UOL1SliLV8JeCautQweW8NKbSHgaSXioV8K3QkpXIoWrQ8rWDildiZStHVbh6iivka6knEa8VgI0QjXx9DjGXyNcHX4a6Up8NeK14qMRrg6SAi+cwBWwuCKWVcJL2zQnmmmlayZgk6UPNkNyDSPhyjRsHZglJcxlLG8mYR4hzUU7eIT0kg7tKQlvVPLlBRquHTtMEr5myFVuGvm6+OUX+rmruHL0EBzx0YirUwfBfr4IKeevRkXH1KqB6BpVEVWlEiKJYHrtrAL2StgrYR1SwP8MCb9AEp5EEg78LRIO9kpYytYOKV2JFK4OKVs7pHQlUrZ2WIWro7xGupJyGvFaCdAI1cTT4xh/jXB1+GmkK/HViNeKj0a4OkgKvHdVzXLOD2YB8xKGPA+Y5wNrJWzZL6PjFzSsa8i1opGG3eYJayR8qySsJEyvcyz9zoy2D6k60lx4g7l2/MivSsLMf375WS17WETXiLXvvYPwu3l6kh+l4Hux7qP3sfjZzohvVB+RVel9SglfiZieJ6+EvRKW8jWRAv53SjjPK2EtUrZ2SOlKpHB1SNnaIaUrkbK1wypcHeU10pWU04jXSoBGqCaeHsf4a4Srw08jXYmvRrxWfDTC1XGHU8I8V5hHSJOEuSJWRrOGatUkLsTBlbFUbWklXeeI6TL7Vs5ylo2MYhwVNEU7rBKuVlq0wxMJR9HrGEPHLmjdWpWvdEk4/wj+c8MpYTP96lKw/J5z/8tPN3Ct4DgKli1CYtMmKg2H0/Ow8dOPkTV1PLYO+BxJrVsYIq5cSTVNz6PXh2Us5euVsFfCUsBeCXsl7JUwU14jXUk5jXitBGiEauLpcYy/Rrg6/DTSlfhqxGvFRyNcG6LpOUipVw8ZLRpjGadgEir3EcdXNvp44+k8TK1TS6VjtylMTlQpy5ZNyswXvpmEPR0dbZUwzxUu3CQl7ByY9Ws2FvGP11FyYB+2fz1YpeDQu+7Eqh6vI2feLOSGBGHPqGFIfrAVibgKwrmfuEZ1BNN5N8dHL2KvhN3l65Xwv0jCuV4J65GytUNKVyKFq0PK1g4pXYmUrR0s2ptRXiNdSTmNeK0EaIRq4ulxjL9GuDr8NNKV+GrEa8XHXbY6ouhxJaqKVlWRUqemEjD3DSea5SgZOoc4FWdQ0mXZWhOwKwkrCTdWEvYkCZulKz2VMBfsWPDgA5SELc3R+Q5jEYfbTMDWPa8//GPhGZxatQyxtWur0dJLuzyHg3Nm4HBUMA6Fz8OesT8g9dG2JOBqivimTRFCj3suPc9eCXslbCIF/E+Q8ItdX8DUab9Bwrt270BoWDBmzJyG4SO8Er4lUroSKVwdUrZ2SOlKpGztMGVrR3mNdCXlNOK1EqARqomnxzH+GuHq8NNIV+KrEa8VH3fhSnhUNMstnhJeQtXKSG1Un2TK/cEt6PMqKgFblyvk/mEegCVTsErCJO+MZo2MalgVb5GEb6NYh7VPeNFjj+I8S9i5IMP1gvxSCf8GOA0X0bUi46knEUbnXkaHdjg4eyoOR5KEScR5JOLMCaOR0bEDomvXRFTN6oiuU5tEfLebiL0SdpevV8J/fwkHzQlEYpJXwvZI6UqkbO2Q0pVI4eqQsrVDSlciZWuHVbg6ymukKymnEa+VAI1QTTw9jvHXCFeHn0a6El+NeK34uEu3DHQMyy2xZg0l3AWtmmNb315Y+3xHSsMtjQpYQsKchhc2aaCEqx2Y1aiea2CWWb7STcLO/mBX7WhPJEznQxy9X5Y93QlFWzcaKfjYIfx8+ZIa6axLuFK0N4PXH752ugAHAmeoxRvS2rbBgVlTKAmH4JAScYgS8b7JY7H4uacRU6cWIqpVRniVSgihxzaXXg+vhL0SlgL2StgrYa+EmfIa6UrKacRrJUAjVBNPj2P8NcLV4aeRrsRXI14rPhrxmtD3WWzJ9eupZuj0Fs2w+7vByAuajszvB2NF+0eQ0qA+Cbq0X5ibmI1Rz1WNAVxms7QTTsipdWuRYJ3ClnOFnfOErSnYEwm75glTCl/35uu4sGOLSsI8MloV6tBI9dfAU53Obd6AtIfbIrl1K+yfMdlIwk7ywuYha9oEbP/+KyzkRFynJkm4IsIr3o9QOu95wJZXwl4JS/6FEj7glbAOKVs7pHQlUrg6pGztkNKVSNnaYRWujvIa6UrKacRrJUAjVBNPj2P8NcLV4aeRrsRXI14rPhr5Oomi/zmlYUMk1qqBtGaNsf2LPjg0LxBHIuYjZ/pErOv6LLb1H4C1b/XAkvYdsKBlK6Q2amSMaqY0zCUqVRq2JOGbzRO2SjjBKuH7br6UobViVlLduthL7+GSfbuMJHzyOH658aOqgMVN0jxAywU3UXNC1sjWDpWGzxSQbIOxsEM7Q8KWJJw9fRLimzRGdO1aWPz8M0h5tC0iqvNgrQoIq8RUwjx6jYPo+fVKWI+Ur1fC7kj5eiXsjlfCt0LK1g4pXYmUrR1W4eoor5GupJxGvFYCNEI18fQ4xl8jXB1+GulKfDXiteLjLl9G9QPTOZFYszpSmzTE5k96Im/ODDhINg5udqU0vPWDHjixbCXObNmBU+s3I58+PjArCCue74L05i2QXKeWseqSVcJcMYubsFmwdN66Vc0yJVy5dAUlLtQRSY9JCriMhO8wakenNWuKgkXpuJK3H1ePHsKN4iLiAq6TOHmA1tWjeSTnPLVAw/XTJ/Dz1cvO/uJby5jnDPOxP1+5hKJd27B14JfIDZ5tSNhJNkk5vmljSrx+CKHzLpjOLe4TDqUkzKOmFVWrYG5AWRG7CdgrYTe8EvZK+HbwSvhWSNnaIaUrkbK1w5StHeU10pWU04jXSoBGqCaeHsf4a4Srw08jXYmvRrxWfNwFzF+PodeIm6GTG9TDuje6I2fWVJeAmSPh85AbOA2FuzJxvagYPxZfREmegz7fh1NrNuBwTAJWde2K5e0eIwFzYY9SCat1hVmwFXmgV1U3CVuLdJjLGEZqUrBLwvQ99Zjp2AUPtEbhprW4eiQXV47k4DK91y/lZuPSwX0oydyJwi3r1fcv7NyCSwcycfnQAVwrOIZfrl0tm5IFPCjrp4vFStxXjx+h37kfhVs3oGD5IhxNiDYkzM3R9LzsHjkMsQ3qY56vD+ZQQp/jcwfmkpRD778X4ZSGuY84jEQ8h14fr4TdkfL1StgdKV+vhN3xSvhWSNnaIaUrkbK1wypcHeU10pWU04jXSoBGqCaeHsf4a4Srw08jXYmvRrxWfNwFzP3APNc2uV5dLO/0JA5OnYAjFgGbHI2LROGefbhScAY/XyNJXbqC4kNHcT4rh76ejQKS8aHwSKx57ilnmUtnn3Dtmkig89EUsTUNmwOzzCTM05Oi+P/gtGsnYef0pPhqVbGux5sk2K24ejhHSffEgmQcT4zGcRLlsfgo9ZiPxkbgaHwkjiVE4VhiDAoWp6Eke68SNq+cdIWTMqVo5gol5yskdF4EgktgKpln71ECPr16KYr3bEfRjs04lhKPQ9GhrsFZu0cORQw9f6pgB4uYa0r7+SL0PkPEocR8esxz6Pn2Stgr4X+yhAcO/PJar096XnjvvR7RXglL6UqkbO2Q0pVI4eqQsrVDSlciZWvHnRrxWimvka6knEa8VgI0QjXx9DjGXyNcHX4a6Up8NeK14iOaoen3xnOTMIly0SNtsX/CGDgignGUpevElPAxElvhzj0ozj2iJMz9rj9duowSEnERibho30GcXr8ZWz/piRVPtDFGR3PFrGaNkOiUrFXE1tHRiVWMJmvVFE0Ci9AIWEmYUzD9n6opumlTEm20kuXlvP04u34l8pPjDPnGhNNjDqWbiRA3HCRPPuYYyfpERgrOrF2Bws1rKTWvw9kNq3FqxSLkpyXiKH2fj+G9gyTuiIvAiYUpKN67Exd2bzdE7EzEuaFzsO3bwWqKkpuIKRGH8epLlIjn332XErGbgL0SdsMr4b+nhNeuXYVr166gd++P4ZWwlK5EytYOKV2JFK4OKVs7pHQlUrZ2mLK1o7xGupJyGvFaCdAI1cTT4xh/jXB1+GmkK/HViNeKj0jB9FwlVK+GhQ+2wr5Rw+AIn0/iDS0jYZNjlCpPr9+AogN5uHHlqhq0pJYAvGiI+HzWQUrEWTgSE4c1zzxpFO3gJunWzVSTNI+kVsU4CJeITQlXMwp18KhoborWSTiCEzA9n9x0zqsnrXrpRbV6kkqxjlwjuR7IRPHubTizZjlOpCeqGwclXN4TR+ljR3SYIWT6n46QkB2x4ZSYIxQsWgcJnL+uvk9wH7DJkZgw5C9IQjGl7gt7nCKONr6XGzIbW78aUFbEd/yf6i8OrXCfEnFopYqYf9edCPLViNjHXb5eCXsl/HeTcEZGOo4dc6B3r4+8EnaTrkTK1g4pXYkUrg4pWzukdCVStnZYhaujvEa6knIa8VoJ0AjVxNPjGH+NcHX4aaQr8dWI14pP2WbolEYN1VSkXfT+OBI61ylgvYT568dTEnA+MxvXCovwy40bFhFfQnGeQyVi7iPe8OpLWP7oA8YgrYeMqlmmiFXiFSK2SphHRZeR8P/8j6plzSOmWcBcrWvRo4/g5MI0NfDqp5ILuHbiqKti1pXDB1Uy5qZklrLJxf17cWHXNpxclKaapVnKDpKqKVs7rBJWkKCPk+ANEe/AsdR49TWupJUbMgfbh3yN6Hp1LCK+A/PuLK+apE0Rz6XzgqXrlbC7fL0SdkfK968s4QEDv0CvXh/jnXfetEg41ythLVK2dkjpSqRwdUjZ2iGlK5GytcMqXB3lNdKVlNOI10qARqgmnh7H+GuEq8NPI12Jr0a8VnwMCUfR302qWwcpPBDr9e7IC5qBo5GGaO0lbDRJn9u5VwlXNUmzhIlfWMQlxmCtc7v2IjdoDlZ3au+SsBJxKxJx9arG/OL7jUSsSlnS+czzhHUS5o/VyG167bm/mAWc8XBb5M0LIslm4cfC02og1U+XitUShqaI7VDLHeZk4SIJunjfLpxavohuLOKMZucESsmxnITDDDgd09e4OdrA+nEMTixKVf3FxZkkYvodrkQcNgc7h32LmPr1jMpZ3CxNr19U3doIr1IZYSThEPq/55YXIvZxl69Xwl4J/90k/OFHH6BLl+fQ463XvRJ2k65EytYOKV2JFK4OKVs7pHQlUrZ2WIWro7xGupJyGvFaCdAI1cTT4xh/jXB1+GmkK/HViNeKj3M09D13I4GEyP3AByaPg6OMgG8i4bhInNmwCRe4SfryFUrBhoSViCkZ/3ihRPUZF6xcg/UvPe+sIV1avINXXUqvXweJJCMu4BF3/33GtKT7S4t0mM3RLOBoev5i6fxhWXPd6iXt2+FoXJRKtdcLjqtRzPjPf9TcYF64QUr36pGDuJKTicvZO3F53/ayZG7DxV2bULJjA4q3r8f5DStwekkaCtLjKWUn4vSqxappm//WRTNNO/c8L1mNvN6yDpdI6jxwy0HCNtNyXthc7KSLUmyjhmqecGjFCtjYrw8SWrdAeFUSMRFJN0Fz6Vx0idjHXb5eCXsl/F+Q8H/YWRqPecStJPz11wPxxRd98d67b3kl7CZdiZStHVK6EilcHVK2dkjpSqRs7bAKV0d5jXQl5TTitRKgEaqJp8cx/hrh6vDTSFfiqxGvgJuheWpPRtsHkTVmBI44+4F5IFPp3jkimvc8UpoHNKkR06HIT47H+b1ZuHr2PEnQWRjD2Sz9y483cL3ogprKtHfId1jV/mFKwVzAo4Vrv+zB5ljSqgnSG9R1ydislMUDs6JISDw6Oor+ZxYwJ+fUhg2x4Z0eOL18ser75eZnnmZklqfkNHzthMNZP5rIy8aV/btweddGlCwIw7nAoTgzaQBOj/8Cpyd8TnsLE77E6UkDcXra1zg9cwhOzxmJMxFTUJgaiuI1C0nUG5W0LzGZpsDp473bcClrF64cMpq+efrSYUrQ5hzivPC5apGHtHaPIb55M2ROGott3w5CfIumSsLhdBMUxWn5TqeIfdzl65WwV8K/l4S/o+viMHLHyBo1rrKzNB7ziFtJePyEMZg+Yyp69nzXK2E36UqkbO2Q0pVI4eqQsrVDSlciZWuHlK6kvEa6knIa8VoJ0AjVxNPjGH+NcHX4aaQr8XWXrhUeDc1Tg9KaNcGur7gfeE6pbC17Q7x6OA2f3bIdxTmH8fPVa87qVKWwmK+dK8Sp1Wux8fWXsYLnDbOABaaMFzaqp2RsTlGKpscYSSLmVMwCXtCiBTJHDlPzfa/wPN+TR/HztStlql9xqUouWXn18AFcydqByxuXoDhiAi7MHY5z07/G2Un9cW4iCfeHj3Bq+Ic4NewDFAx932CIsT859AOcHNYTJ+n7BT98jIKRvVEwpg9OjeuHUyRrxQSSOMt86lc4Q2I/nzQXl7avoaS9CyV7tqm+YnPEtJpHHDEf+wOnInvmZJWOD84PxIa+vRFdvy5CecR0tSoIr1XT1Ucs5euVsFfCv0nCdC0cQtffEVWrYnyTJoj78EOsnzr1BDtL4zGPuJWEwyNCsXrNSvT6pKdXwm7SlUjZ2iGlK5HC1SFla4eUrkTK1g4pXUl5jXQl5TTitRKgEaqJp8cx/hrh6vDTSFfi6y5eF/T96HvuRmINbtZ9DDkzJqt+4LIJmPdWEWv2dEx+egqK9u0nCV8tK2FnIv75+nVcPn4Sx1PTsb5bF2PesEjELhm3aaEGbqXUqq5EzP2/MfQacRN1WpPGlNZH4sLOzWrAlRLw1ctlF2ggfr5yGdeO5eHKbkq+UZNRPHcYLsz4CifH9MOez3pgT58eODGyL86RjIumDkThpC9xalRvnBjaE/lDDAEXsHyHsYgJljKLmhnek/Y91fdPDieJj+6DMxO/VMn63MxvURI3AyWJgbi4KoUe5yY4EmNcEnYJ2SJmrrK18OmnVBJWIq5aGaFczIPOBSlfr4S9Ev41Ev6eroFD6b00qnZtzGrXDgsHD0ZmcjKKT5zA9YsXHewsjcc84lYSTktPRt6hg/j0U+sUJTcJbycJzycJTyUJD/FK+FZI6UqkcHVI2dohpSuRsrVDSldSXiNdSTmNeK0EaIRq4ulxjL9GuDr8NNKV+Grk64QLXKQ0aoSMhx5E9rhRzmbosgnYlYSjuOlZUCYNR6Fwxy78pPqFyyZhMw1fP1+Ewt2ZyJk1C2ue7uCsouUUsIklGS9p2QTJJCY1AIvgecSbP+qplilUAs53KNlKAXO/8PUTR3ElcysJeCIuzPyaBDwYZyf2x/b3X8XSzh2xtNNT2PD6i8gZRDIlMReM/RxHhvZCVv/3kNnvHRwd1ls1VZ+h1Ht6dG+coiTM+3Pj+6Jwcn+VpLnp+sjQ3sj84j3s7vcu9nz+LvZ/8wmKwiegJGGWweYVOLk4HYdjQp3yNWVcKmUu7rFnwmgkPfKQIeDKFRDCU5fuvQez6TWUAvZK2CthKV87CQ+ha+Rwcsi4hg0R1r07Vk+YgMNr1+LSmTO4wTfM/J4BHOwsjcc8olTCE0nCs0jCcVoJ9/n0E6+E3aQrkbK1Q0pXIoWrQ8rWDildiZStHVK6kvIa6UrKacRrJUAjVBNPj2P8NcLV4aeRrsTXXb4MN0PH0XmT2rgBdvTvh8Mh3AxtHYhVtk/YTMKHQ4JIolOQGzRDLeTgSsnRoTiZkY6rp8+ofmAzASsB8wCtkosozjuC81kHcGrdBuzo1wcrn3hIm4SN0dNGIs5o2kD1EfOI6aXtnsDpFUsMAR8/gp8vlQD0d0z5qmbon27gxvmzuJq7DxcXhuNC4Hc4N+5znBrZBydG9Mbmt15SAl7coT2WdHoSy5/phNVdn8OW917B9o/fwI5ebyp2UVLe3fcdHPz6Q0rLA1A0bZCL0xP6I+frj+n772JXv/ew6/P3sa3XW9j2yVvYQ0Lm5u7isLGUhmejOGUeiratU8U9XAlYAzdT7x47EgltWiOsComYS1tWq4o5dG4G0uvllbBXwh5LmM6ZYXSdHkU3rVMfeADJn36K7WFhOL1/P65euICfeNyGIV9zc7CzNB7zCI8l3Mci4RyvhPVI2dohpSuRwtUhZWuHlK5EytYOKV1JeY10JeU04rUSoBGqiafHMf4a4erw00hX4usuYP46F+VIbdwIy55sj4MzJoOrYrmPiC4r4UPBs0nYfdUArlUvPIcDU8eXETEXvijcsRM/FpeUGaDF05X4a0UH84wCHpnZOLF0OTb1eA0r1NxhmYRLpzFxGk6sXAlp9FiPxkSoQVhqYQYS7X9+/sl6IcF/KBH/dLEE1+j7l7etQUnIKEquX2Bn58ewuH4NrG3XGgc+74Fdvd7A5h7dsPX97lj/6gtY8dzTWNnlaaylj3d8Ykh4O+23ESxiHqhVNP0rRcG4L7GXRLujz9vY0/9D5I35CvmBo7GTZLz90x7Yz8l6dF8Uzf5eJeEL4eNRvJ1HShv1pXnusLHggynk0n0uJeIdw79DTNNGLgmH16mFOXTuSRFLAXsl7JXwUHpPj6Dr/Lh69RDcpQuWjxiBg4sXo6SgAD9evoxf+IZVvznYWRqPeYSnEv7MlPByr4TtkbK1Q0pXIoWrQ8rWDildiZStHVK6kvIa6UrKacRrJUAjVBNPj2P8NcLV4aeRrsTXXcKR9BgSa9XCggdaIXv8KBIpNy+XJl8dDl6sftQwLGjVAgkkCF4hac3LL1Iinl6ahum4486R0tfOnXeVsmS4mfpCziElYU7DLOL8jMXY+PorWPFI69JpSxYBM6q6VtUqWNiqJc5tXKOmGV0/edQ1FckFCZj7hnmUNI+CLomchOJZ3+Dc2H7Y0b4t1jRtiLTqFbHztU5wfPMB8of1wokfPsWx4Z+qpmfH0N6qafnQ95+o5mUW8bZP3sD23m9i/+CeOD3+S5wa94USMMt239ef4mz4ZJwNm4ycHwaoRJw14H3kDXgX27t0wJkJA1ASPwMXOBHv3KTmElsLfMgkbLKfns/FXbsgolZ1JeJQ7ieuVhWzA/y9Epb4u8v3XydhunYNp2vu6GrVMKVFCyR+9BG2zJuHk7t348r58/jp2jWZenWbg52l8ZhHKAm/+AKmTL2FhD+7lYRD56th1MOH/z4SjqQnxU24OqRwdUjh6pDC1SGlK5GytUNKVyKFq0PK1g4pXYmUrR1SuhIpXB3lNOK1EqARqomnxzH+GuHq8NNIV+KrScH0vCY3qI91b72GvLmznIOsDKR8TXjFpGWdOiCR+2gr3o+4ShWQRoktk5Ibr6jkSsMxYTixaKES8aVj+fiJy1nywCwS8kXHcZzPzlESNkpa7sOx5FRseJkHajlFLCTMTdILmzTA0icew/ktG3Dt+GH8fPliaT8wb2Y/MMn5KlfH2r4axfNGKAkXTvgCWd2exq6nO2J5w3pIqVoBqTUqYeVDTbCta3sc+vxNnBnTD+enDcL56YPVvoBku/uzt1USZrb3fgu7PuuhYAFnf/8ZzkVOQ2HMDBwcQcn4yw9woP+72N/nNSxr3QSb27XF2Ykk4bjpKA4fh5Jdm5WEjSRsJ2Fn/3DEfGROGoPkh9uokdIhVSsjhPZz6Vyf7VuahqWAvRL+d0l4KJ0PP9B1fzyl3hBOvcOH40BGBkpOnsT1S5dU65O6OfVsc7CzNB7zCKuEZwfNQkKinYR7/bESTn38ccQ1bYro2rURUbWqu3y9EvYMKV2JlK0dUroSKVwd5TTitRKgEaqJp8cx/hrh6vDTSFfiW1bCUfR/JNP5ndG2jU1RDne4qZrnD6c1boi4Cvep/mSjT7kCMh56AAenT8TRyNJFHnjKUsHyZSjcvRclhxxqUQe+KPx0+bLqFy4iAZuc27GH0nQQ1j7b0SjkISRsiLglVnd5DkXbN6nBWDwH2HWB4X7gn3/Cj2cLVMlKLsRxMT0UxXOGoiRkNC7M+BoFQ3ohq3tX7H72WWx4qA0WkNSSK9yLJfVqYsujDyL79edwbuKXuDDzK8XZyQNVMzQnYUPEzj2l4z1f9sTZiCkoTpoDx5Qh2DfgQ9XEvbBpXaTXr4kNj7bF7heewrnJgwwJR01SEnZ4mISZ3LC52D70G0TT8x1CaZglHF6ndpn+YSlgr4T/BRKm138EXX/H1KyJGQ89hBTu6w0JQcHevbeTenWbg52l8ZhHeCrhvp/1/mMlfGLlSmROn47VH3yApAcfRGyDBoiiJ89NyFK4OqRwdUjh6pDSlUjZ2iGlK5HC1SFla4eUrkTK1g4pXYkUro5yGvFaCdAI1cTT4xh/jXB1+GmkK/G1NEPTz8TS65PSqAG2f9lXDbLiKUmH5s+mpDvdVaRDcojS8tru3VQK5oIZEXf8n4J/X3Ld2tgxoJ+aX1ymklZsBPLTknFy5RpVW5prSfMArZ/oLr2YxHzBmYiL9h3A6fWbsHvQAKxq/6ibgBVtW2PdKy+pJQp/LOS+YOdgLN64GfraVWNOMJeh5Kbo8LEoDvoeF6Mno3j2dzg39nNkPv8UMl/ogr10sdjRqSM2PtgSG1s1xaYHmmPnk4/g7Lh+TgkPxtlJA0jCnIRZvqXsoBScO3IgihODUBQXiKyve+Hwtx9h6UNNkVD5fqxt0xo7n3kKBcM/xQW+CUgMRHH8DJTs3ICjybG3SMJlyZ41BantH1fN0Sxi3ofR9SMowJi2JAXslfA/VMJ0bRpO18tR5IqJDRsi6tVXsWbcOOSuWIGLZl/v7aVe3eZgZ2k85hEeS7jvHyxhnhf5Y0kJLh49CkdaGnYMH44l3bohoWVLxNSrh8jq1b0S9gQpXYmUrR1SuhIpXB3lNOK1EqARqomnxzH+GuHq8NNIV+Jb2gwdRc9DcsMGWEIXd54TrAZbkWC3ftYLS59qj5yZU9wEzJI+SG+u9OZNSeD3IJIuxrx6EcMfczJe+EBL5Ig0zHAT9ornn0X25Mk4v2eva8AW9w9fyj+J4pxDKMo+SJLej5PLV2Jrz/ew4tE27hJ+uDU2dn8RxfQ+/fn6tdJ+YNpUCj5/xrVy0pUDe1ASM5Xk+z1KwsahZO4wFE0bDEffHtj7XGdkdu2KfS+9hD3PPYutD7fBZnrsO9o9jDOjPlPziAunDUL+qH7Y1ceUcGkS5qboA0O/wIX42SiKnYV9gz7G0e8/RnLNylhKNzY7n3sGu7t0IokPVClYSZiS8MU9W5Gfkepc1MEzCXMRj1Xvv42IurWMNMwirlIZc+g15DQsBeyV8D9LwsPp2jaKruvj69bFvI4dseirr5AZH4/CQ4eMEc7kl1+ZenWbg52l8ZhH/GUlbP53PGKTCxhcKyxE4d69yImIwKb+/bGAnth4a3O1FK9Xwl4J3wo/jXQlvs4UTL83nm78Ups1wZ4hX+Nw2FwcoSS8c9AXSG/RFGlNGqpBWmqUdJSzGZrglZR2DvxCJV6Vgp0CdonYn9NwLewa/KVK1tYiHjkzJmEhJc7tvd/FqbRIXNiXqSpncVUt7iPmaUslhx0oOpCrRJy/aAk2vmatqMUS5lHTrbDhpWdRvGub0RRt2XhK0nV6w7tqQ/NqSVuWq75Y7he+GDcDxSGjcXbCAGR3fw57X3gemd1ewj5i9zNPY2vbB7GjPUu4L4qmD8ap8V9i7+fvYfsnPOXoTWz98A1s6fk6tn5kiHj3Fz1xJoxuKmJmKAkfG/IxFjashU2PP4a9L3fFsUE9URRINwDxM1EcMR7FsdNwMXM7Tq1cgsOxZglLMTKanq882uc597kRPG94FFLaPWYk4coVXSIOqVoFs+m1lAL2SvgfIGG6xoyk6/C4mjUx86GHkNqrF7bOnYv8HTtw+exZ3LhyRfnkv7A52Fkaj3nEr5Nwzh8nYdfGg0ec/WJXz5zBqY0bkRUYiLWffILktm0R17AhomvV0qdjKVwdUrg6pHQlUrZ2SOlKpHB1SNnaIaUrkbK1Q0pXIoWro5xGvFYCNEI18fQ4xl8jXB1+GulKfJ19wXdyYY6GWNrxSeTMmqoGU/Fo54WtWyCeLvIs2a2ffWKINKq0SEfe7OlY/vRTakS0NQVb03B8xfvV+sMHSbrWAh4s4UVtWmHPgI9REDcTZxfH4MLe3bh0/KRKwzyf+OcrV+n9cE6lYh6odTQ+Eeu7PufsHy6dO7yuS2dc2LlNlaO0vqd40Bcv3GAszpBjkJuFy1tXoSR6Mi4lz8HFlHlKimfGD0T2a12w7+UXkflSVxJyF+x8qgNJ+BGcGv6pkvCZif2xm1Lw9o9ZwK9j7etdsez5p7H+rW5Kxjv7vItj04bhXNQ0JWGejrTv7RdIwF2Q9foLxoCs2KmGgMPH4tLWlbicayzocCQuwiVduTfkO18l4N3jfkDy4w8jvEY1p3wrOkVcEcGVKmLO3Xdhlq97Gpby9UrYHSngP13CLF66Ho6hIDa5cWPE9eiB9ZMm4dCqVaq5WQ2yunHjtzY332pzsLM0HvMITyXcr++nTgkv/5MkbN1YyHQxuXHxIq6cPInjy5bRne8ErHrnHSQ98EBp/7EpZClcHVK4OqR0JVK2dkjpSqRwdUjZ2iGlK5GytUNKVyKFq8OUqB0BGqGaeHoc468Rrg4/jXQlvs4UTAmK60PvHfYtjlAKPjB1AjIefkgNroqix8QrKK2mJHdozszSJMxN0VMm0M81Rszdd6o1fKWEI3zuoO/dhZT6dbFvxPf0u+e5kjAP2Frc9gHsH/ElTrEEU+aQiKNxftcO14AtVczj+o+4XlSsVmI6t3Un9k+cgNUd2zlHSxuJeF2XTriwa6tRI9pyQeL+4R/PnSYJ55WKWCXibFzeuR6X0kNwKTWYmK9EfG7SQJwa2puS8NPY1fkJ7O7cDnue74DTI/uUSvgzQ8JbSMKrXumCjKeexKJOT2F19xdUIs78qhdOB09ENu25//gc/QzPRz43gQd3fYOSqEkonv8DSjLCcfngXlyhx1Syf49aVUnK19yzgPfRa7L6w/cQ16KZGhnNJSxdErbIeD69BwPp9fdK2F2+fwsJm+Kl6/tkvtZ364aVI0Zg/4IFKM7Px7WSEl1Bjf/m5mBnaTzmER5LuN9fScLWjZ5o1X9cXIyLDgcc6enYOWoUlr/2GhJbtUIsPZYo7j++lYylcHVI6UqkbO2Q0pVI4eqQsrVDSlciZWuHlK5ECleHVaQ6AjRCNfH0OMZfI1wdfhrpSnyNEdGJtWthSfsnVLWrQ5S2Nvf+kL5WkwTtr46Jve9eLG3/OPICp7mS8OHQOdgx4HMkUUqO9PN1F7CZhunnE6pWxuquzyOP5w07k7CS8CMPInfiNzidMAtnkmeTiINwdlE0CneyiI8YIqY7fVVbOr8ARfsOomD1Wmz75COsfIz7hw0Jr3/xGVzYsRk3is7hP784iw7wRYrfP5cv4dqxQ6VJ2MmV7J1KiBeT5+JSWjAuJs1RA7a46tXZsf1wdkxfNY/47LjPVUlLFvCxHz7Dzt5vYcsHr2HD2y9jceeOWNC+HRa0a6dEzIl4x2fv4vD4b9TUJC7ewfLmspgKLpEZNEQ1Q1/J3KbWK75yJFctecgjpK3lKl1lK1nA0+hmp0M7RNJzHUqy5dKVvDcTcJk9MY/eZ4H0+nolrEfK90+XML0HR9H1bCxdxyfRNT3s+eex7NtvkZmQgMJcumksKvoto5t/6+ZgZ2k85hEeSTjvryxhy6b6j+mFuE4vSHFODg4nJWHHsGFY9vLLSGzRArH16tkLWQpXh5SuRMrWDildiRSuDilbO6R0JVK2dkjpSqRwdUjpSgI0QjXx9DjGXyNcHX4a6Qo4BcfR+ZLSsAF2fT0Qh4KDkDXuB6S3aq4SrFpPmBJuFB238IFWyJ011ZWEc2fPwPKnOyrB6pqirU3SPEArvXkTHCSZKAlHcRKeRBJug0NTh+J0olPCSsSUiJcm4PyePSg5fFTNJVZdNbS/eOQYzu/brwp5bHjlRTUoi4t5bO7RHRd2bsH1k8dUenYNzuImaXPZQtUv7EzCDkPCxaFjcDExkBIxSTg5CBd4tDSl15Oj++IMJdfCyQOVfPdx/WdKwDs/fQub3n0FS5/thIyOT5KA2ysBMwvp46XPdcYmEvSOvu9he68e2PvF+2pesUrEkwcYQp43HJc2L6c0fkAJ2CVhMwkLuAl6dc/31HrCnH5DK7GEGWc/sIb5lSogMKBs37CUr1fC7kgB/1clTNeMkU7xTqZrd2jnzlgyeDD2REfjdFYWrhQWGvWb/zv9vLezOdhZGo95xD9KwtaNm9l+4gFd58+jaP9+HKI7pu1Dh2Jpt256IUvh6pDSlUjZ2iGlK5HC1SFla4eUrkTK1g4pXYkUrg4pXUmARqgmnh7H+GuEq8PPXbqSqPLlkFSnDha24fm8k1R/MNdLjmex+vsZTcxEJB3LzdWuEdLcnDxtovpazD136ZuiXRLmZQbvQkq9Otj9zUA16EtJeIYh4bwpQ5wSDnKKmPaUTM9tWIWiLBLVSa43bZS5/OnKFVXUo3D3PhwKCcWap5/E6qceR86UcbiYvUdNReLBWGXeK1yusvi8MUL6CDdJG1zJ3oXikFEoCR+HS6nzlIQLZ3ytFmnY3ect7OnbA1lfvqeqZO0i+XKpyk3vdsdSuvFg4ZrytZLxZAfVLM1N1cbcYS7k8TZ29X0HmfR7ORlfmP8DLmduMdI4j9h2WCXsXraSlzWMb9ncqJCl5OvEJV33ZulgEvTc+8qmYSlfr4TdkQL+3SVM14nRdN0a5xRvCIl38aBB2BMZiVM8n/fcOTXA6iYlJP+MzcHO0njMIzyV8Oef9/l7Sdi6SSEfdgp52SuvILFly1Ih30rGUroSKVs7pHQlUrg6pGztkNKVSNnaIaUrkcLVIaUrCdAI1cTT4xh/jXB1+LlL1wqPXI6h1yO5fj1s69sbeXNnYhdJMqVRfdVErQZtuSTsi9TGDZEzw5Aw9+3u/nYQ/WxdSsn+N5UwE0V/jwdvLe/8FCVoo5SlIeEHkTPu69LmaBdBOLswAoXbtuJCTh5uXDKapU0Rlxw+htPrNpHoPsSGbs+jcP0q1beqFm64drXM2sHGGAuumHWsdJQ0y48lHDwSxUFDcDEpSI2ULpz+FTK/eAc7er1B0n1d7Xd++ial2jew9cPXsPLFZ5HRoT0WagRsws3Sa994CVs+pp/hAVwmn7yFvST1c0HDcTlrh3Ej4KRkf2aZ0pXWJJxFz1NMk4alCdiShIMrs3BN+ZYSTMy7/74yfcNSvl4JuyMF/LtImN7To+maNq5KFUyha3HY009jKYl3t1O8l0m8P7J4uQXnr7k52Fkaj3nEv0LC1s0U8nUS8oWDB3EkORk7f/gBK157DUnOPuToGjX0QpbSlUjZ2iGlK5HC1SFla4eUrkTK1g4pXYkUrg4pXUmARqgmnh7H+GuEq8PPXbxlUjD93ymNG2FB65ZqsQUmg5JpHF3UVQr2MZqilYTp4pjSsJ6xpnBUKPKCZmDFs52RUK3KTfuDS9Ows0m6WWOVoFWfMP0uTsJZQ/rhFAmwTBJW+zk4m8GLPmwzmqUtyyBycY8LWTk4viADO/v1Uk3RSq5H83D99EljxGiZN4ZzDeF8Z7O0mYRZwoHfGrWk6eMiSsL5o/pi3+fvukRssuWDV7GYBMsC1knYTMcLO3RQI6Z5tLRZ2nKrE07E54KGqaIh6kbAkYfLhw6iiB7/kfgojYSDnRJuVDYFm32/996jCK5UwU3CLGdr37CUr1fC7kgB/2oJ0/t4DF3HJpB4p9I1N/KFF7D8m2+wNybGaGq2ivfP6ee9nc3BztJ4zCM8kXCuu4T3/20lbN1cQi4qQsmhQzi6YAF2jxuH1e+8g+QHHkBcgwaIrlkTkTzK2ivhmyOFq0NKV2IVqcTT4xh/jXB1+LmL15WC6ffEVLgfSXXrYHW3F1VT9KaP31eDrKK5L5guhlYJ8+cp9Z0SVk3Rk4wCHZS2WNBSupJI+h2x9LryKGmeh8wjsHNmGhLe2ecdnIyZpgZluUMiXhSF89u3qoFanIjV1KWr19Ro6bPbdsEREYaL2XtdCffascP46UKRc+pG6VrC6v1QXEQidlbPOrBbTVMqDvxGiVgx8ytVH/r4yM+wqw83QZsifqNUwiTbm8IS7vJMaZO0RcK7+7GEh5OEd4NHbLOEL+VkqzWFj8SEaSW8j25aVBLWSFjVjKYbprl33VlGxErCxHzCTMNSvl4JuyMFfDsSHk3XgLF0fZtYtSqmN2yI2Fdewaphw5CVlIRzFIi4dORfsKnZk83BztJ4zCN+hYSX/GMkbN3MQV08yvryiRM4sXw5vbmnYV2vXkinu/f4xo0RU7s2om4mZClbO6R0JVK4OqRs7ZDSlUjZ2iGlK5HC1SGlK5EyteLpcYy/Rrg6/Nzl60rB9D8lN2qE1KaN1bQkLsSx4IGWlIIrqWZqJWDGImFuts6ZPtnZFD0YKQ3qIpqfGz5OI94y3PF/iKHnObFGNax9tRsOzZ2J3JlTsOjhB7HulWdxImKykYBZvG57TsQRKNy0BsXZ+3Hl1Bk6jy/iwv48nM88gPO79uIKpUlrU7OqE+04hBt0vrOM1YhpErJqzi4+byTiIwdxecc61S9cPPNrJWCuinV2Un9kD/zALQlv7fmaSrgs4gwSbWnybW9MU+posPiZTlj35kvY8hFLmJukCa6q1etNZA3+EIVhE1TlLrM5ujhzl3MBB6M/uIyEI4PV1KSYxs7maBOWcCWWMFfI8lGLN3DtaCVibqZWSZgkTMy55241b1jK1ythd6SAbypheq+OoXN6PF0vJ9eogdmtWyPp3XexnoJOTkYGLhw9qqpXqcFVfz/xWjcHO0vjMY/wSli3Oac9qXnIp07h9KZNOBgcjC0DB2LJ888jsXlzxNalCyz3I1uFLGVrh5SuRApXh5StHVK6EilbO6R0JVK4OqR0JVKmVjw9jvHXCFeHn7t8rRJOqF1TNUVnjxuJta+9rKYkxVCyVcf4uEs4pYGRhLlAx7KOHVRTtFEr+ub9wYr//V9E+fmqFZYWtGiqfo+ScNsHsazdwzgeMkGTgssm4jPpITi3PAVFu3cZtaX3kYD3HUTR3mwU7dhCIj7gkvAlHugUFY7D4SEo3LIRl48ewY9FhfiZk8i1q7hxoRBXj5GoD+7FxQWhKJ47zFicgQR8cHBP7OhNCfbj17Dto9ew9cNXScCvUhLujk3vvIz1b72EZc91IvlyE3Q7kvKT6mubKSlv/uA1bKZjWbxmCjaT8I4+PeAYOxAl6zKMx8p9wdl7kL8wuUzJSquEuUpW5pTxhoQ1SVgt2kCvUyC9BixiTsaqn9hMw1WrILRmTTVSWsrXK2F3pIDdJEzvz3F0fZpUuTKm0TUyhG7EMj77DNsCA3F07VpcPHkS1+jG70+cTvTf2BzsLI3HPOJ3lPA8kvCUf4aErRsPWqGkcOPSJVw7dw5FWVk4kpSEXSNHYlWPHq5m65hatRDJI609kbGUrkQKV4eUrR1SuhIpWzukdCVSuDqkdCVSplY8PY7x1whXh5+7fJlI+hvx1aohqV4drH39FWRRCk5v1QLxVSorObuaopkyfcL1VZ3o7PGjkUYJmgt5qP5gDyXMo6TjSPKp9HsOTB6rRJzRpjUWNG+Mo3NGl03AJjIZp3LzdCSJdQPO796LIkrCp9ZswHo6VwuWLMTlnCyjqfnwQZxbvxqrXnoBCx9ug7VvvIasCWOQn5qEc5vWoXDrRhRupv3GNShcmYFzoRNxetyXyBn0AXb1pgT8YXdsffclbHyjC9Z264w1XZ/Cmi4dsPrZdlj59ONY3vExLO/8OFY+30F9f/PbXbGtZ3eXqDe+003tN737Mja/153E/Jpa4KFg9g+4tHcrPc5slOzbjRNLFuBwjE25StorCU92SlgMzAqh5z+onLFgA0tYiZhe3/n33+tKwmqAFt34zKbzQcrXK2F3pIDH0PttLL0nJtB1bzK9Z2Y2aoS4bt2w6vvvkRkdjVN79uDymTP4ka6fP3O1tn+OeK2bg52l8ZhHlEp4Akl4Jkk41ivhm21mP/KPFy6oZuuTq1ap8pkb+/XDos6dkdi0KWLr1EE0r4dsJ2QpXYkUrg4pWzukdCVStnZI6UqkcHVI6UqkTP8sCdNj5fWCzabozJHDkNq4gSFV/jkfp4AZi4R5JPTOQV9ixTN0HtSsVtof7KmEuV/4vntVCcydA/qppRIXUhJPa1QXB0cPMqpmlRkhbQMLWaXiZBTu2I6TS5ZjQctWWPLE4ziWEI3CDWtxfvN6nFu3ErlzZmHJ9y0uFQAAgABJREFUk+2Q/kBLZDz6EBZ3eBxLO3XAEkqvSzu2x9J2j2DlU49hTafHsOmFdtjWvRP2vP8Csj7uhuxPXsbu91/CFhJxdq/ucAx8C0e/fgfHh3yE/JGfIX90Pxwf0QeHv/kAuf3fRubHr2Ddix2w8MGmSGvVGAseaY2F9PvTH2qJRR0ephueF3A0Yg7OkfhPLE43li+kBCyLc5QpV+mScAOSb4VSWMIsV3o9TQG7RBxAIq54HwnYGDk9v3IFzKH3il2TtJuAGR93Af9rJEzvsfH0fE2uVAnTa9dG8OOPY8HHH2PzlCnIW7IExceOqeIZqn/37zGw6rduDnaWxmMecdsSXkYSPvgvlnCZjZutneUzuZ41LzDB0584Ja9++22ktGmD+IYNVUpWfcmmlKV0JVK4OqRs7ZDSlUjZ2iGlK5HC1SGlK5Ey/TMkTF+PpuctoXo1pDVvqgpzrHvrNSTVqamaink+sFbClHjjKVVxk3RizeqqnnQ0l6o0j5HSlZCE+TguAMJLHq5+icQ29gfVNJ1YvQpWdn4Cx4PHl03BWkwRB6pUfGZBKI7HzMHSx9oivUlDLKLUu/jhh7C0/RNY1PYhLOnQDvtnTcWh6DBKnOE4xIOfzH3YHBwZ3hc5A96lG4uOWEw/w8cv7dhBNbfzdKpVz3bEhpefxdHBb6Ng6Ac4M/5zXAifgAvRU1EcM01RFDkZ58MnUZqegIIZw3BkaG8c/v4T5E0eTu+VIYiqVgUh5cshkqSY9mhb4/GYTc5W8d5UwpyEDfma++CKFVQTtJQwJ+M5d92p5MtJOKRaZYTVqW3bJO0mYMbHXcD/WAnT8zKergGT6Po1tXp1BDZpgoRXXsHq775DZlQUCnbuxKXTp3Gdy0X+vqsT/V02BztL4zGP+N0kHOKU8LB/k4StGzdbO+dockrmmtan1q/HgfnzsfWrr7CsWzcktWyJOHpuYmrUQCRPgbITshSuDilbO6R0JVK2dkjpSqRwdUjpSqRMrXh6HCNla4efu4R5WlJayxaq/3dh2wexb8wILH7iUcSTKGLuubtsUzRjkTBLOp5EwgI2akoH3J6EaR9Fj58XdFjQshkyRwxBGsklnn5XWqN62D+iPwpip7snXxcs4UCLiI396aRAJXBH0Ejs++4zbHzrJazp0hGrnmmPta90QW5IEE4sSUf+4lScWJqOE8sXERk4sYzISMTRuHBs+vQTrOjKizE8h6XPPotlXZ7D6le6IuuL9+AY0ktV0Do5+jMUjOmLUxO+xKmJA3B62jc4PeM7nJo8CAWTBqJg1jCcjJqF/AVxOJ4eh/2BU5D8YGsE0/M+j56nsPvvRXyj+tg3cbQqRekSr5Ku3DslTMftHTcKMfRz1iQcQgKeR6/XbN/Spugy+HEavt/ZP0xpuML9mOXv5ybgf6WE6RwcT+/pSXR9mlq1KmbRNSuKq1X164ftgYE4snIlSrhG878r7d5sc7CzNB7zCFPCk6fcjoQP7sfgrzQSnv4vlrDcVAGEH42+5MJClBw+jONLliBr+nRs6tsXi595RjVdxzkHeJWRshSuDilbO6R0JVK2dkjpSqRwdUjpSqRMrXh6HCNla4efRsJ38qjoBkhuWA8bP3wP2RPHIK1FEzU3mKtn3VTClVjClRRGf7Cf6/tu0pWwhFW/sA/iSEbc/L13+HdIJbmwlBPo72c80AwHfuiPk5QyzyRZZGtNwKaEOQmzhF1743un4qfjBCXT45RW88PG43jEZJxcEI0Ti1LgCJ+JY/EhyF+YiHz6PJ/EzCLOX7oQR1MTcDg+CgfnBiKbB5+FBMJBcj6eGocT6fHIJ6nmp8UgPzUa+SlROJ4cgfzkcPo4UsGfH0sKw/G0WBxfnIbsuTOR2rYNggP8MY+en1A6x8L5JqZxfWRNGY9DUsI2STgneDbWf/oxorhmtKVPmCU8R/QHl4HkPPfe0kFa8zk131keM33dm6TdBMz4uAv47yzh8fT+nETXnqlVqmAmXZPCnngCCz/6CJsmTkTOggUozMkx5u5evKha//6Fafdmm4OdpfGYR5SR8OyZiE/QSfiARcLLvBL+NZuaAuUccX3t7FlVuetoejoyJ03Cht69kdGxY6mUq1VDJI+6vpmQpWztkNKVSNnaIaUrkcLVIaUrkTL9MyRMouWSlKlNGyJz1DAcnDoBqc0akYQ1/cGMVcIqCTslXNEyKOu2JMyDs+5V8uWKWzxIi5MwwxW1FrZsgr2DPsaJiEkk4ptI2EzCHnAqLRgnFyfjWGI4Ds0aibzpw3Fo9lgcjQpSiTU/g4SckaxGKR9LT8SxtAQcX5CI4wuTCPo8NYbScgiOkMQPzZ2AvMBRyJ01ArkzhiF3+lC1z5s5Ann0PUdKLLICpyGxRXME0/M5j/73+SSWcB51zv8n3XxkT5tQKlo3zK8bUs6aPhGJrVsgrErZkpXB9PuC/DRN0U5m8Z7+PteQVn3D9PNz6SZ4lp97GnYTMOPjLuC/jYTp/55A78fJpnTr1EHoo49iwfvvY8Po0difmIjTmZlqQJVqYuaRzH9+fea/8uZgZ2k85hG3lnBSqYTbtfNK+PfaeICXmpdMJzn3J5/ftw+O1FRk0p0nS3lRp05IbEIJjN4gMZyUpZSlbO2Q0pVI2dohpSuRwtUhpSuRMv2jJUxfi6HnNr5qJRJvY+yfNA5Zo0cgtUlDSrYV3fuDGauELUk4lkTqGpR1OxK+g4t23IMUSnabP3ofKfVqUxKuoNIw7xNIGgvoBmHXF+8jP3yiamou2yRtSb434TQlZBepc1CwKJZEm4QjwZRyp5I4J32LvCnfI2/aUGKYi1wSdN7MH3AocIwS9aGgccijfV7gaOTN+oGEOxy504YgZ+p3Cv44jyU8ZwJy5s/Ctm+/Qlz9ekq88+j/nU//bxifh/T/RfDzpyQ80T0BO7FOUcoNnYOtX/VHdP26ZUdFc1P03Xdhto9NCjYlTK+ZIeHSqUqzAtz7hd0EzPi4C/gvK2E6ryfR+28KXT+mkXRn0TUl3JTuqFHIjo/Hqd27cfnUKVzn6UNXr/4dC2b8mZuDnaXxmEd4JfwX2Vyjrp1SLsrOVkl535Qpqvl6yXPPIalZM8TVq6f6lKO4+doTGUvpSqRs7ZDSlUjh6pDSlUiZ/sES5nrQSQ3qI6FGNaQ2b6yaojd99B6S6tZCzH33Gsf52EnYz5WEuek6+s7yZb7vJl2JU8J8LBftSKpVA6tefB5JtWu6krCC/wal8vSmDbDr8/eNIh6ciF1TlZwy1ojXjlMJs3A8fAoOhwfhcOQ8HIkIxCESba4SLwnZKeLc6Zxof8Dh0Gk4nhYHR3IM8iLmIWfuDOSGzFbp9EhCBI5Ez6FjpuNQyDTkhQUiJyQQe8YMR8oDrRFZoYISLwuY4f7giApGCo6g5y75gVbInjnFLQGb4jUlzH3Be8b+QCm4JcKrVi47P5ieozn+fpitkW8ZCZPQ5lW435WE55HEdYOz3ATM+LgL+C8jYTq3J9M5NJWS/YyqVTGba+N36IBF3Lw8bhwOJCXhDNdk5sFUJF0uluHt1/1Nm4OdpfGYR9yehB/3SviP2qxJmecnl+TlIX/ZMuwPCsLWwYOxont3pLRujXh6rmNr1UI03eHyBc5NzFK6EilbO6R0JVK4OqR0JVKmf7SE6f/gWtEJNaurJJw1ZgSWd+6opBzNz4Gv6A9mWLC050FY3A9s9gfzAKtfJeH/48FZ/mr5Q14aMbFaFSMJWyXsFPGCZo2w79vPjMFarqId7pLVQqIuiJ+Bo3NH48CoAVje4REk1qqJjEcfRubYEcidH4g8EmvuvBkK7gPOo+TJ6TMvbB5Jdy62DR6A9LZtEFOtGmJrVMeCJx7D5v79sD9wmlpekCW58o1X1QyBSBJcMD1/853ydaXge+5GJP1/LOEYutnZ0Psj5AbPLlOYQ8KJeN+U8Uht9zjCq1dFmEXARlP0vQjiKlka+VolzKUquVrWfGe/8DzaB9Hnsl/YTcCMj7uA/ywJT6L3xFR6r0+nG/NZ1atjTqNGiO/SBcs+/xzbp03DoYwMFHJZSG5e9ibd/8bmYGdpPOYRtyXhxx9/2CvhP2lz9SlfuqQWn+A5ylzJKy8qSk2JWtezJzKeespowq5b15WWI1nKUrxeCWslHMkirVpFjYRObUKCGzUMix5pq/qIo/jv+tpImC74PHJaSVI3KOt2JMxN0j68mMP9SsQ80totCTtRg7VaNUXO2MEqzXqahHlZRJbvvm/7IK1xPbVwBD/eMP779D/G0t+OpZu6OLqgJ9SpjcR6dYl6ah9fsyZi6TmK4cIl996DMDo+mBMtEcqLWtD5Fl25snFTWLEiwujcCKb/n+VroiT8f/QzfDz/7Ur3I5L74R9ug+yp3B8835l8S5ctdFXJIgHzFKblJPeo2rUQRnJnzHKVIfTY59A5wAL2RMKz6TXnQVlGHenKmMfNtf5lC3e4CZjxcRfwHyHhyfTYptL7cTrdcM/klFunDiIeeQTpPXpg3ZAhyAwNxbG1a9Xo5auFhWoglbdP97++OdhZGo95hFfCf9fNWcnLnBLFTdgX9u/H8cWLKYkEqmlRK19/HWlt2yKBkkgcpWVOLFHct2xNyFK2dkjpSqRwdUjpSqRM/2AJc3N0HPfpkoRTGjdE5sihqlKWW71oK3cYhTpYmmVHRlv6g29bwkblrDIJWCNhU8SL27TAkRnDjP5hjXStnKL0mzvxGyxs0Qhx992DcPrbYf/zP26EMixWho4xCaHPQ+h7VoJNnDI2sYpXSlil4HuNFBzJNxr0fO8ZPVyNipbJ15qAD1DKXvfRB4ht1EANxuIUbE3CakAWp2B6rLeUMH9Mr7vZL8yLOcyj11oOznITMOPjLuDfXcL0OKbSOTnjvvswk25sZtMNUHDz5kjq2hUrvvhCpdzc9HSc5UFUp07hGtdhvnz5n1yZ6q+6OdhZGo95xG1J+NFHHxqSmpqEzZs3eiX8F9xUE7YlLV8pKMC5nTvhSE7GvsmTsZneuMu7dVPN2AkNGhhiprvpKLqrjmQxS/H+myRMn0fTTUkcpaE4lnATkvAPQ5DWrHHZpQslLGE1KKuCkVp5UBanO9/fIOE7jMpZbgLWSJjhYh5ru3Y26kvbjYxODsTJmKnIHtoPKfVqgheMCP9//w9hjJ2ENUgB/1oJB/NNikrBFRBNjz+j85M4MHuaTQIOVnLmJQtXv/c24kjYSsCcglnCZgomoc8NcKZgjyXs60rCwfS664p2uAmY8XEX8G+R8FQ6/6bR+4iFO4uEG1SjBoIbN0Yiz8nu3Rtbxo3D/rg4nNy6FRdPnCiTcr1Ny3/65mBnaTzmEbct4fnz5yI2NhqDBn3plfBffTMLiDgHfPF8ZW7GPrttG44kJioxbyExr3jlFaS1aYNEFnPt2oilxBxtNmX/iyTMg69Ywtz8bEqYS1e6mpd9biJh1U9bUU1lUksdOr/3ayTMx3PlLClbA0rIFQSV7kdaw7rI+r4vTsVx/7BFxM59Qew07Pv2UyTXqqb+Bgv4T5Mw3QCE3nWnGhHNTdHxjephz5gRyAuf5zYamuGvZ04cgyUvPoeY+nUQXoXlW8GgkgEX6CiTgm9HwpWcRTuqVUZYvbr/dQlPo98/nd5TM++/H7OrVMEcuhkObdYMSc8/j+V9+hjCjYnBiU2bcJGblc+dU1OFvAOo/rKbg52l8ZhH3JaEH374wSEjRw7HkCHfYcDAL7wS/jtuQszXScxc3atw1y41Gjt75kxs//prrHn7bWS0b48kuhuPr1sXsXRnHkN36FF04YjkZux/moTp53iFpDjuh6VEpOpGj/iO9o3sR0YzSsLmyGhnpSx+DM7v/SoJ0+fR5cvR7zQEWwb+moYEEtKiB5vDEfiDs1m6tFjHqYSZqt94QYtGlNB9XAL+0yRM/18Ijx5nCdPjTmzeBNmUcmUhjryIYBycM0MJOuXhNoisWZ0EXAnhLF6VgEv3akR0gD+J1yng25Wwao6uqEZI/17N0dPp98yg837WPfcgsGJFBNHN7TyuA/Dww0h/9VWs7t8fO6ZORU5SEk5t3+5KuGrEMleiusHrPXuF+zfYHOwsjcc84jYl3HrIp59+gpdffgn9B/TzSvifsjnFzKOxuZjI9aIiXD19GsU5OTi5ciVdDCPoQjgGmz77DCu6dTNSc8OGiOfUXL26Ief77kMkJ2Yp3r+jhDkJN26AbV/0USsjqWTrqxmU5YSly8U5jHKVzvrSVgHftoSdyxpyGUeZhGUKtpBcuzq2f/wGTkZNcSVgHoR1ePpQJWiWeCyX3vS5A+EkzT9Nwrz35QId9yoJJ7VshqyppVWy8sLm4kDQdGROGI3lr72MeJJ0BKXUcDrWxEzAJm4p+HYlTK8dS3huRfeCHW4CFhKewcfT+R1Isp1doQLmVK2KeZRuwyndpjz3HJZ9/DE2jRiBfSEhcCxbhsIDB1Qf7tXz540mZW/C/btvDnaWxmMecXsSfqj1kNdf747WrVviy/59vRL+h29qRPaPP+Kny5fxI92dc3M2p+bze/cif8kS5AQHY/fIkdj06aeqrnC6s0mb5cwja1nO0Zycub+Z07KUrkTK1IqnxzFStnZICd9XmoST6tXGqq7GPF0esHUzCfPIaG6GNpOw26Cs25Xw/5ZWzjLSr5mCZRI2P3fu6W8vbNEYh2cMpTQ8S0k4P3wC1nbthESSGI+CZmJ5QBQ97vD/+fMkzGnYbJKOq18Hm+mGh6cdZU2bgJ3DvsXSl7oggeQbVcuZfpV8KxpY+oLVoCweEe0vUvDtSthMwnYS5q/RORJIN5pBdJ7MpWQ7j2QbTOd6ZPPmhmx5Hu7QodgbFITDCxbgzK5duMTplpuTzUFTvMCBd6TyP21zsLM0HvOI25LwQyThfv364M03X6ck/LlXwv/SzTUAjOVMFxeex8xyLtq3DyeXL0deeDj2jhuHLf37Y/Wbb2JRhw5I5pVX6ppTXKoiplIlRFvT863k+t+WsL9RLSuuKo+OroyEGlVVGuaP1UIMvu7yZdTIaJYgD8riJMyjfX83CbNYWcA3H5hlJal6Fax/5Vnkh4xXIj48bSgWNDXqT5sSViLmREzS+tMkzB/zjQDfENDzFsuVwfj55iUjG9ZDdM3qqniHS7wCc1Q0E3zfPQjyESn4V0nYIOjuuxFE58JcLixSpQqC6ZwNpWta3GOPYWH37ljdty+2jRqFLE62dDN6ds8eQ7ZnzyrZ8tq5asCUN93+WzYHO0vjMY+4pYTTSMK5FgknJydi48b1GPxVf6+EvVuZzZSzmZy5v5mbtS85HDi7ZQuOpqXh4Ny52P3DD6oK2KrXXsOi9u2RzKNAnYKO48IPLGhK0FF0MeS1ff8oCavR0U4JK0hotjWjTQmrkdH3G6snEW7lKn+thO8wylcacjXl69zzdCjVBK3ZUyLm9Yf3fd0bh6YOwaY3X0QS3VDw960S5pQdTUk0nP6WFPAfJWGjWZpEzH3ulYyylapyVuVSrE3QuiQcSs/HHHr93ARsI2Fe2jCIzpE5dPM3l0QbzF0pjRshpmVzxLZ5EKlPd0LGKy9jVa9e2DJsGPYGBiIvORknN25E8eHDRjOy2W9rJlvv6OR/++ZgZ2k85hG3JeHnn+/83ZygWVizZpVXwt7N883a50wpQaVnU9BHj+Lctm04npGB3NBQZI4fj22DBmHd++9jeZcuWNC2LZIaNjQkXauWauaOpQtnDKWUaLqIqiQtxSxla4dVwn7GPGGuGx1P0kqoWU1x0+lJLGF/56AsTsEkEBab+t5vlDD/DJevVL/7NpIwy5brS6fUrYm0hnUMATu/XkbCnIZ5njD9HSngP1LCSsR0I8PLGCoBKwlXdCETcJkkzH3BlKTnmCmY/hcW8lw6H+bRczf/vvsQXLEiQijNhtF5E16nDuJatULa009j2dtvY92XX2LH2LE4EBGOo0sW4/SOHSg56sAVFq2zCVmlWu6zvXHDu3KQd7PbHOwsjcc84rYkPG3aNN833uj+zdOdOgwZMODzG+4Snqx+0Cth7+bxZhG0StA8Yvv8ebXSFM9z5nKdZzZvxvGFC5EbFoZ9kyZhx7ffYiMllVWvvorFTz6JtJYtkUTnXAJdZF1p2hQ1XYhVouY+aSloIeFIungn1KiOpHr1kNK0CVKa8OpJLGF/o0/YCh9PX4+6s7w6Jp4rbdHeVVnrt0qYvhbNFbzMBKwE7JmE7XCTMKd2+htcKevPlDBXz5pPz6cScUVTwpWM5mgiomplRFaviqiaNRBdpxZi6tVFTMP6RANE1KiBCBJsBJdubdwYyY8/jkVdu2LVBx9g0+DB2DluHLLnz8eR1FQUUJotysnB5ZMnVXGba3SeWROtt/nYu/3KzcHO0njMIwwJdyEJjycJzyAJx9hL2LoNHPTFVa+Evdt/e+NBLFZJ32BJFxWpfmhO0pfz83EhOxunN2zAsQULVH909rRp2D1sGLZ+/jnWvfeeGjS2qF07pLVooWTNqTqBLtrxdPGOq1pVNX/HkrB5YFbM/fervmFO2VF336WkqqCUzLWlFfQxN13HVjLkm1CNkjPJIJ72sfxzOhFL6UpYvFboa1H0OzitymbksvDXrMjvl8LSdUG/l4m++06jatb/lhWxlO/vKmF6Pnh0NC9lGELPFa8lHMbjA3isQF1Kq40aIqF5MyS2opsrbiKm125x1xex8p13sKFvX2z9/jvsnjABWUFByI2KgoNe94L161GYlYVLdD6oJMv9szz6mOfXsmS5j5bTrHdQlHf7/TcHO0vjMY/wSti7/e03JWq6wLpEffHi/2fvPYPjONL8zft8cXdf7sPtRvw3Ynf/6yZ2x8/OSFrNSOM0GhlSZuQNZUiKokiJohe996TovfdW9N6L3luJnknvvQE98+pJsKhGMwEkmt0gGvg9EW8A6C6TVQD6qffNrCxX8qZPmow6J/pQRtYXdu60p9assUfmzbNmwgS7O8qQvvv6a7upRQu7tk4du6JKFbvknXfs/HLlcqX93/9tv/nP/7STImlPirLsiZG4ke2ESN7jI2GMZ37lKOMe+7/+132Jj/7/IrEh6kguI6PM292ulCxkXyRL+V4witnF/3Pv6//9f92L3EFh9EnHwW1NxOhIbmOi/bv4f3O/klWP5mIieo82uX5rBpvRJxvtHxHfl/H/eW+6yuSI3h8aLTs0WncYmWu0reHRNodFFyXD6RZgFDwypT8/Oicj6W+NzhPPx2Yu8zHR+RvLBdAvfmGnPvWUnfX883b+G2/YJZUq2ZW1atl19MFGv48d0e9lX/T74YElJ9eutecTs1f6Y6OLMMYc0LXBtK0SrHjEGJzl8VhQpE/CQwba7pGEmzWXhEXJ5H5Wff26vZ2Tcz+zdsKmBH4vu845dsxePXLEXt6/357butWVwxn1fWDKFLsvyrx2DRhgv+vWzW5p29ZuaNLErq1d26787DP77Ycf2sVvvWUXvPyynfvss3bW00/b6Y89Zqf+/OdO5t/86EcunNTvid3Fv/2bnRQJCslP/Jd/+SEicT0Q0QXAxEhqE+LgIQsJwXv3g58TIs+yXEzEEe3LBRcZcURtchG1j6B6wAC6Kb/+tZ3+29/aWc88Y+dGFysLkWiFCnZZdAHDtKhrGzVyt60xGxtP/No9cqTdP3myPTx3rqtWcHvbRQY4kbFG55nzzYWSkyt9sGSu9/ph4xKx5CpKOAZneTwWFEj4pUjCXb7uaPs8jIQHS8KitHH3rhv5SpZ158aN3Ew7yrxuRZJw2XaUjd2IsrJY4C7rRuJR5s0tW4gc2Vw5cMBe2rvXZeI8ZINbuc5u2mTPbNjgBqWdiiR/csUKe2LZMnt86VJ7bPFie2zhQif+I5G8jsyZY4/Mnm0Pz5plD8+caQ/PmGEPTZ9uD02blhtTp/4Q8WvR+4cJlidYl+1E22O7bP/YokX2+JIl9sS337r9c7HBlKan16+3Z6L2nY0uQM5t3+7afTFqP4Porhw65KY+dcd3T6IuQ2UgU2KWGsv0XqbqhEq2ykhi9buK0oXBWR6PBUVhEp4iCQuRBhA6EWV1LiIZOcFHmZ4LRB9HJHwnfYKsPTmQWmgkr0vc2/79iPcbt4Xs8177XFuRpsQpRH4YnOXxWFBIwkIIIUTqGJzl8VhQSMJCCCFE6hic5fFYUEjCQgghROoYnOXxWFBIwkIIIUTqGJzl8VhQhEh4lyQshBBCeDE4y+OxoJCEhRBCiNQxOMvjsaCQhIUQQojUMTjL47GgkISFEEKI1DE4y+OxoJCEhRBCiNQxOMvjsaCQhIUQQojUMTjL47GgkISFEEKI1DE4y+OxoJCEhRBCiNQxOMvjsaCQhIUQQojUMTjL47GgSKOEB0QS7hJJuLEkLIQQoqxgcJbHY0Hxg4Q7RBLuIQkLIYQQRcDgLI/HgqJIEv68auXff/xRhQvVPqtyvU6dL90CkrAQQogyjMFZHo8FRZEk/OSTjzVdt261vX37pm3QsK4kLIQQoqxjcJbHY0FRqISnRBLedU/CTzzxq6bDhw+1U6dOtvXq15KEhRBClHUMzvJ4LCiKKOFfN61evap9/fW/2dp1akjCQgghyjoGZ3k8FhRFlnCFCu/Zp576ra1V+wtJWAghRFnH4CyPx4KiSBJ+MpJwnTo1bcWKH1nfwKxu3SMJN5OEhRBClBkMzvJ4LCichF8qbzt36WB79ylMwk8+1rRd+9a2VesWtk7dmvclvGHjOjtocK6Em0rCQgghyg4GZ3k8FhQPSHh8ARL+3e+eaDpwYD87atRwW7eeJCyEEKLMY3CWx2NBUSQJPx1JeNq0yXbtulW2/ld1JGEhhBBlHYOzPB4LiqJJ+Oknm85fMMfu2bvTfiUJCyGEEAZneTwWFJKwEEIIkToGZ3k8FhRFlvACSVgIIYSIMTjL47GgKJKE//CH30nCQgghxA8YnOXxWFBIwkIIIUTqGJzl8VhQhEn4+1wJ/+lPSHiuJCyEEELkYnCWx2NBIQkLIYQQqWNwlsdjQZGahPdIwkIIIYQtGRJeG0m4fyThzpGEG0nCQgghygoGZ3k8FhS5Ei4XSbh9JOHuYRLeHUk474xZkrAQQogyicFZHo8FhSQshBBCpI7BWR6PBYUkLIQQQqSOwVkejwWFJCyEEEKkjsFZHo8FRWESnhxJeGck4RqSsBBCCPEABmd5PBYUKUp4hyQshBBClCQJd+0mCQshhChTGJzl8VhQxBLu1Lm97dW7ux2XqoQHDron4aaSsBCZ4O7du/b27dv2xo0bNicnx165csVeunTJnj9/3p49e9aeOXMmT/Aa77EMy7IO67INtiWESAsGZ3k8FhRBEt4ZSbiGJCxEsXLnzh178+ZNe/36dXv58mV76tQpu2fPHrtq1So7a9YsO27cODto0CDbqVMn27JlS9ugQQP71VdfuWjYsKF7jfcGDx5sx48fb2fPnm1Xr15t9+7d67bFNtk2+2BfQoiUMDjL47GgCJdwNUlYiExCdnrr1i177do1l70eOnTIbtmyxS5ZssSOGDHCSbV27dr2yy+/jP4ha9jPP//cVqtWzX766ae2SpUqtnLlynmC13iPZViWdViXbbRu3dqOGjXKLl261G7dutXti32yb9qgTFmIYAzO8ngsKIIl/IUkLERGIAtFfufOnbPff/+9XbhwoZ0wYYLLYuvVq2dr1qzpROoTbarBtqpXr+62Xb9+fbcv9sm+d+zY4dpCm5QhC1EoBmd5PBYUoRL+Io+Ed0vCQjwsZJuI7tixY3bx4sWubEyGWrdu3egf7gtbtWpV+8knnzwg0HQH+yBjZp/su02bNnbIkCEuAz9+/LhrozJjIfLF4CyPx4IiXMKfScJCpAMGRjFI6sSJE06+ZKG1atW6X1ouDvHmF7GQyZIpW3fu3Nm18eTJk07GtF0IkQeDszweC4pgCX8uCQvxUJBNMhjKGOPKvl27dnXyJeNNlmFJCdqGjLt3724XLVpkDxw44EZaKzMW4j4GZ3k8FhShEv5cEhYiNRAWtwaRTTJCuVu3bq7sW5Llmxhkx5999plrc48ePeycOXPcsXBMkrEQkrAQJRYGNl28eNGuX7/e9u7d24kMoT3KknOqEcuYwWJ9+vSxGzZscCOqNXhLlHEMzvJ4LCjCJVxVEhYiFDJE7sE9evSonTZtmm3WrJnr881G+SYHx8CxNG/e3E6fPt0dI8eqrFiUUQzO8ngsKIIlXF0SFiIIMkMyxHXr1tn+/fu7ft903l5UUoJj4tiYMERZsSjDGJzl8VhQhEq4evVPC5Nwv0jCnSIJN5SERZkFCZ0+fdrOnTvXTa7BKOPSkP3mFxwbE4Fwa9W8efPcdJkSsShjGJzl8VhQ/CDhdpGEu0USHl2whOdHEt4lCQvxANy+w21HY8aMcRNgcKtPsrRKa3CsHDPTYzJoS7cyiTKEwVkejwVFYRKeOGm83bp1s61WrYokLISPePTzvn373CQXTA1ZmrPf/IJjZgau4cOH2/3792v0tCgrGJzl8VhQFCZhnlA4a9aM6EK3kiQshA9kw3STjBguqwKOIxYxfeE7d+5050aIUo7BWR6PBUVhEu7cpYPt27e3rVzpI0lYiGR4AhFPNuLeX6Z9LMsCjoNzwMMiOCdUB3gghBClGIOzPB4LisIkXLdubVutWlX74YfvS8JCJIKAKbt27Njxkdx+FE8xyb27DACLg4FS8fe89yimwozvKebcMEMY50qIUorBWR6PBUVhEv7kk4q2fPkX7fvvvy0JCxGDVHbv3u2mc0TAyRLKVMT36FL25rnBjEr++uuvbd++fV0JmNuFBg4c6L6nPM7czy1atHATbJCdFvdEIbSVSUqoFkjEopRicJbHY0FRmITfeONv9he/+Jl95+03EiS8yy/hr7t2sk0kYVHKYeTvwYMHnfCKqw84li8jkJHrxIkT7cyZM6P/v2/t6tWr3T3JfE0MXlu1apV7GhKTajByuWfPnk7IxfmEJvqIhw4dag8fPqxR06I0YnCWx2NBgYTLRxLu2CmScK9uduy4vBKuXftLW6VKZftBhXfvSXi+R8IbIgkPlIRF6YfRvmfPnrWjR492csm0yNg+wqxTp47t16+fXbBggZsCc9OmTe4rsmVGLkZl9+rVy/XDkp2TfTJKedasWU7G8Tpr16519/MmPjyiOI6Bh0CMGzfOPadYI6ZFKcPgLI/HgiJRwj09Ep45c5o9dOiA/azqJ5KwKNsgD2aFmj9/vpsDOtPyiuVLSRmZIlBkSvY7YcIEJ9wGDRq4AWFkyZSaWYfge16jBN2oUSMn5smTJ7t12QaBvNu1a+cuJjJ9TzPniiyexyLyJCmJWJQiDM7yeCwoCpNwjx5f22HDBtsK779zTRIWZRakwTOAV65c6eaBzuQ0lAiLQVWtWrVyJWRKymS8lJQHDBhgmzZt6sQbmsXG2TRCZr7nwYMHu2x4zZo1dvny5XbEiBG2SZMmGX+qE6Knf5r98mxiIUoJBmd5PBYUhUm4UeOvptetXfPz9u3b/0gSFmUWbrNhIBZl3EwOxIoFTPZLxk3GynN8eYQgWS8jnx/mAgARInBETt/y0qVLXYZN/zKCzPQob7bPsezdu1e3LonSgsFZHo8FRWESbtmySb3/I0YSFmURsmD6MslKySYzJSm2iyApHZNx81AESsjxE5geRr7JwbaQPaOrKXVv3LjRCblTp04Zne+a7TKYjXL6+fPnVZYWpQGDszweCwpJWIhCYNYnBjdlsgyNnMhyud0IGbK/SZMm2caNG2e0v5a+Y0RMqRsRL1y40LZv3z6j2X5cluYiQzNqiVKAwVkejwVFihL+XhIWZQKeCHT8+HFXQkVYyUJJV7Bt5IcEEfCwYcOK7SEQ7Ju+Ym57Yt+zZ892P2dy3/H9wzzwQk9dElmOwVkejwVFChKeIwmLMgOjoclIM3k7Etk1A6MQMH3AY8eOdaOvM5V1+4JBWQ0bNnRlYtpAiZqR2Zk6ZrbLLVKU2xktLUQWY3CWx2NBIQkLkQ/xYKw2bdpkLCtERgh+1KhRrjxLWRghZ2p/BQUi5hnIDAgjI+a+Y0rkyculKzhGbpFikJYm8RBZjMFZHo8FhSQshAcGDF24cMFlhgwkShZIugLxdejQwQ3E4nahLl26ZLQ/trBgYBiTgjBimpm26C/O1K1L8QUIlYaLFy9qkJbIVgzO8ngsKCRhITyQBe/atcv102ZSQkwhiYQoAZeEZxGzb+ak5pYlMvMxY8a42a4y1SbOLSOymVtatyyJLMXgLI/HgqLIEp4XSXinV8J9Iwl3jCTcQBIWWc/Vq1ftjBkzXKaWLI50BQKiHLtixQo3kxXyy5TsihL0RTMwK57Mg2w4k+VxzjGDwTjnQmQhBmd5PBYUP0i4bSThrpGER0nComzDaN1jx465CTMylQUT9LeSaZIFjxw5MqP9r0UN7oeeMmWK6xvmCU2ZHBnOOebWLEZKqyQtshCDszweC4rUJLxTEhalF6ZU5EEJmcyC47IvmSbBFJWZzDaLGolZOqXpTJ4LgpHSzCut6SxFFmJwlsdjQVF0Cc+ThEXphUzszJkzLjPLZBaMcHngPQOgpk6dWiwPhChKxBcJ3KrERQJTZiYvk87gfPBACp5QpWxYZBkGZ3k8FhRFk/AfJGFRuuHB88wcxT2yyaJIZ1Du5XYkHi/IxBwlqRRNxNNLUibn4RFcMGQ6U+dCZMuWLe53IEQWYXCWx2NBUSQJ/0ESFqUcJo6gn5b5k5Mlkc5AONyWxBOSMt33nGpwqxT9wUiYc5LpCwW2z/zcV65cSf61CFGSMTjL47GgkISFuAdl0NOnT9uePXtmdCASWSbP+GX0Mf2gmZ4iMtWIS+bx6G36bZOXSWdwzpnKku4AlaRFFmFwlsdjQVEkCT/99JP5SnhAJOEuX3e0jZtIwiI7oQxKeTiTD2og2Db7IMNkdiqEnMn9pRpImNnCEDAZO9l78jLpDPbHjF3btm1TSVpkEwZneTwWFE7C5cvZDh1zJTxmbAoSXi8Ji1IA96lyv2qmRwIj3LZt27pMeO7cue5BDSVpUFYc8cUC2ToXDMwtnel2km3PmTPH5uTkJP96hCipGJzl8VhQJEq4R89CJfxE05kzp9vNmzdKwqJUQfmTqRPpk8x032c8ZzISRjjMmpVpuaUSSLhp06Z20aJFTsLFkbEzbSZPc+LBGUJkCQZneTwWFEWS8O9+90TTQYMG2LFjR9u69WpJwqLUgIRPnjxp+/Tpk9H+YAIJKxP2B4PBBg4c6Prm1S8ssgSDszweC4oiSfjJJx9r2q5d6+jF5rZO3ZqSsCg18BSfffv2ucwv06KJ5YaES3qfMFNW0ieMhIsjY+c8tGjRwu7fv19PVhLZgsFZHo8FRZElXLNmDVuhwnu2dp0vJWFRaogHZWV6BDARj45mog6yzEwPBEs1uG2KB1gwWQe3U/Egh+RlMhHsZ+vWrRqcJbIFg7M8HguKokn4iV83ffvtN+yvf/0rW7PWF5KwKDUwXSJ9n0yikSyFdAcSJqskE+b2H0RXEm9RojTM7VqMjOaRjpnuK4+DSUKWLl1qr1+/nvxrEqIkYnCWx2NBUSQJPxFJ+NMqlaMVXrS1ateQhEWpgZHRPLCAgUHJUshEIBqmhGR2rkGDBmV8cpBUgguS4cOHu1J0pqfxTAx+B8wmpqcqiSzB4CyPx4KiyBIeMmRgdFU8TgOzRKmCmbJGjx5dbNkeQuvatat7StHkyZPdNJmZ7m8tSsTZOjIkW6d8Xlzt44JEM2eJLMLgLI/HgqJIEv7Tn55uOmXKJHvgwH7doiRKFdye1K9fv4yPjI4jfkACfa0MfGJAWEnqF6Y8zpOdaBsjuDN973Ri8DugOqDblESWYHCWx2NBUSQJ9+7S5Z+feurJ9r///W97165T45YkLEoL58+ft506dSrWvtn4mb08T3jAgAGuDzZ5mUcVVASYL5rBYwixONvG74AqwYULF5J/TUKURAzO8ngsKIok4UTq1K2ZIwmL0gKP0GMO5+IquRKUpDt06OD6XBmIxP3Cycs8iuAckJnHzzrmNqXivDihIsA+z507l/xrEqIkYnCWx2NBkSYJr7kn4Q6RhL+ShEXWwUMDirPfk2BfiDcxG2ZQUnG2ITnYN/3T9AVv2LDBjh071t0yVJxtYl/ctsWFkRBZgMFZHo8FRa6EX4wk3CaS8NeRhEdKwqLsgYQz/eB6X1DmpfRK3/CSJUvcAxOKaxSyLxgUxW1JlKGXLVvmMvXi6iePAwk3adLE/U6EyAIMzvJ4LCgkYSFsroQZKJUshExHnHmSDZN5Tpo0yV0MPIpBWpScKUNz6xRtGTZsmLuVqjizYIL9NW7cWBIW2YLBWR6PBYUkLITNlTBzIycLoTgifoQfmTDyGzlyZLGXgJE+pXFuDeLe5Xnz5rmLkuJsQxxxn7TK0SJLMDjL47GgkISFsLkDs4pj3uj8grJ0586d3QAtZtJiRDJTaBZHe7gIIPtmNDR90wiYi4LiHIyVGPH80ZKwyBIMzvJ4LCgkYSEiGIlLf+yjKAMTyJZBWTzFickxGDE9ePBglxFnsk2IlgFpTEtJBsx9wcyOVZy3JCUHberYsaO7bUyILMDgLI/HgkISFiKCe1J79OhR7IOQEgMRc+8wk4YgYQZHMTqZMjntSmdWjNjZJgOg6I/m4RVk4L169XL3CKdzX0UN2tW3b183gYoQWYDBWR6PBUXaJNx/QF/buUsH26ixJCyyD2ZnGjp06COfwxn5MRgKCfGEJaa1nD17tstOGcD1sDJmXbJcys+MguZRipSgmRWLyUo4/ofZfjqCNtAvzlSiQmQBBmd5PBYUSLhcJOH2HSRhUYZhnuKJEycW2wMcCoq4NM3TlaZNm+YyVDJjBk116dLFlaiLKksyX9apW7euy/jZLpk222VENn3Aj7IEnRhk4mTneoCDyBIMzvJ4LCgSJdy9hyQsyig5OTl2zpw5xfIow5BAsGS9jFCmPM19xIyc5iu3EDGxB2VqZI08WZb7ixOD13iPY6LszDpkvIiX7JdHN9IHzYMaHuW9yclBe8nQebykEFmAwVkejwWFJCxExI0bN9xzc4vzQQUhEWewTKlJdohAeeD95s2bXXuZ2YoyOn25lKwZYU223K1bN1fS5lGElLMpa2/ZssWti8gZCY3EkXRRMuriCH4HZOn8ToTIAgzO8ngsKCRhISJu3bpld+zY8cjujc0v4j5cbldi9ioee8ggqp07d7rYtm2by5Dj0nJi8Brvbd++/f7yZMCMhG7btq2TXUmTMG1htPbu3bvt7du3k39NQpREDM7yeCwoJGEhIu7cuWOPHDniMsmSUpqlHQzGog933LhxduHChU7AZLR8JbvlNcTMs5BHjBhhhwwZ4oLvee2bb75xA7yQL+uQQSPmBQsWuG2SQTNJx6McFZ4YtKN79+722LFj7nciRBZgcJbHY0EhCQsRcffuXXdfKqNyH+UIacrPyJcsFRnR/xtntNzHy1ONKCVTbqafl0FajKamb5hgUBPB9/Stsh1EzgMRWIfjY0IQthdn0PSFsy+ybSSYyfuSCwvazsUDt4zxOxEiCzA4y+OxoJCEhbgHI6SnTp36SAZnxWVnslKEOGPGDFdSZmQ0mSwjo8nSESqiQtTIsrBSMu8T8X3B8Qhp+o/ZJpl0XL5G+GTG3L70qMrUXFAwcpvfhRBZgsFZHo8FhSQsxD2uX7/uMs3i7hdmX2SsiJHBVwy4QoqUmRm9zHSaXBgg3nS0Kx55TbbMgxJ69+59f9AX++ZChLbQpuLMitkXg8UYOMbvQogsweAsj8eCQhIW4h70QR4+fLhY+4URD7cIUSbmAoB+3rg8zOtkrpkUYTz6mgwc8ZKF0gbaMmrUKJcVF9cc0pxz2nD06FH1B4tswuAsj8eCQhIWIgGmSmTO5uKYuALpkIlSFkZ8ZKL09zI6+GFnxipqxNkxmShTZVIGZzAX2TiZeHFclHDOud1K01WKLMPgLI/HgkISFiIBJu1gQgv6JpMlka5AeGSf7dq1c32/yI6+We7rZXBUJjPfwoJ904b+/fu7CTO4OCA7bt26dZFn6SpqUP5m1LYm6RBZhsFZHo8FxUNI+MskCfeJJNw+knB9SVhkLZRBDxw44CbHyJQMkRklb4SDgJEc9+0+6gcnxEEbaEurVq3clJaMoI7nls5UhYBzzdSZhw4dUilaZBsGZ3k8FhQ/SLh1JOEukrAQPMyB+2wzcasSJV+ySp7ZG5d7udWopNynmxhxuXzmzJnu9igyYx73mInSNNKnFM+5FyLLMDjL47GgkISFSIKZmnbt2uX6ZtOZmTLAift1kRoCZhRycQ58SiVoGxcJDBbjvmKmwOQY0tlmzjGy37dvn2bJEtmIwVkejwWFJCyEBwYHMe9yurLh+PYbMl9khoCRfKZK3ukMhEvbuY2J0jRPm+I2rnS1nSyYyoOyYJGlGJzl8VhQSMJCeODhAQiHLPBhZUOmx2An5mwmAyarpL81E2XdTAUipp+cLJ7BWpSOGbz2sJUCzi2ZNedFD2wQWYrBWR6PBYUkLIQHpkw8ffq0u13pYbNh+nt5stGKFSvssmXL3ACnktgHXFjQZgaUcRzcR9yxY8eHPg7O7bBhw+yZM2c0TaXIVgzO8ngsKCRhIfKBW2WYZ5l+21Sz4bgMzSMHySARTjoyyEcRcUbPgx8YqEVWnFxS/ySKqpUq2S8qVrS1oqjz8ce23r3ge16rEQXLxOeGCxPdliSyGIOzPB4LirRJuF//PrZT5/a2YSNJWJQOuFXm5MmT7p7ZVG/NIdNj/fjZv+nsS30UEQ/UYqQ0E3r069fPnZsq0XufR2KtH4m22/vv2ylvvWVXvfaa3fbqq3bvyy/bvS+9ZLe98op7jfdYpnF0Hob06mVPnzqlLFhkMwZneTwWFE7C5V607dr7JdxcEhZlGZ4zzHN4mTUqFXki3UWLFrkSbvv27dM6qvhRRVyWZoavhQsW2AZRdtw4ku+Yd96x2yPpHitf3p4pV85eePFFeymKKy+84ILveY33WGbv22/bY3372psHDti7ZMISschODM7yeCwoEiXcrXsk4TGSsBB5uHz5shsZTCm2KGVkHpDAY/ni0dA8vago65fU4BiY13pqdE42L11qZzdoYLdGGe7JSK6I9mok3JC4HC1/JRLxtWj9W9GFyt3z5yVikY0YnOXxWFBIwkIUQvxgBx7zF1qWJmsme+aJQJRteZZv6LrZENWqVrX927Sxe6Ls/kwk0qLIN0+w3ssv25xKlezNsWPt3VOnOOHJvwIhSjIGZ3k8FhSSsBABMHCIfl1u0wkpKdMXzMhqBjAxwcXDDO4qacHgq/oVK9qF779vz0YZsBNpslyLGlFWnBNt70b//rkiVkYssgeDszweCwpJWIgAGDh07tw5V14ubHQz71F6njVrlrv/tWfPnqUmC0bAjHCe8NZb9nj58q6v9wGhphqRzBGxy4hVmhbZg8FZHo8FhSQsRCCUpY8fP+5GBBf0sAUyZSbjWLJkicueUx3UVRKjWqVKtv9779mD6RZwHGTE0T5uLVyYO1hLiJKPwVkejwWFJCxEEWC09O7du93D5/PLbnmd7BcBM6CLR/QlL5ONwW1IjT/6yG5+9VV70VeCjgR6lfL0m2/aq1GmfPWNN1x/b5HL1S+95AZr3Tl8WP3DIhswOMvjsaCQhIUoIvQPM/EGzwNOnjGK7LhGjRp25MiR7hYebuUJ6UPOhuA+YG5DYhR0Hmki2UjMOdEyN/r0sTdHj7Y3x4yxN4YOtdcaNbI5H35oc6Ls2Rtvv22vvvLKA6LOifZza9Ike/fq1eTTL0RJw+Asj8eCQhIWoojQP8xtS5SbKTUnSja+fYdnBHNvMAOykmWWjUFf8Fcff+zuA84zEprvX3/dXm/Vyt6KzsedffvsrW+/tbcWL7Z3Nm60d3bvtrei83Br6dIHI1r+5pQp9nrz5m4beURcvry9VqeOvXv8uPqGRUnH4CyPx4JCEhYiBRDxhQsX7k/dGIuYvl/Ey/OCmfKydu3aDwgtG4NpJpnlikk2vKXjnTvt7W3b7M0RI1xGnPPBB7n3/86d+6B841i2zN7evt3e2bHDXvvqK7etPNlwhQr29po11t68mXz6hShJGJzl8VhQSMJCpEgs4oULF7rn4SJiJMz3CJgJOihNJwstG4O5oJluktmu8kg4ymBvDBpkb2/ebK9FFxyuP5hl4vt/I3HnROfkWrVq7ityvl+Kjt4j22XdGwMH5mbDidt+4w0n9buXLyefeiFKEgZneTwWFGmUcG9JWJQ5YhEzlzLyZVAW9xIzKIvbmRhFnSy0bAxuS2LeZ6adzCPKSLr0/1J+Rqp53oskfO2LL+yNSKS3Zs92X/nZDdaKs91oHdalH9kJPHH9V16xN9q0sXfPnUs+7UKUJAzO8ngsKH6QcCtJWIhUQMQXL160CxYssG0iafCoQgZlDYoyxPxGUGdb8AQkHsbwwMxYUXbsJBwdO9nt/dfp042Ee3v9etcvnPjVifheWZt1WJdtuBHVidt+6SV7vV49e/fMmeRTLkRJwuAsj8eCQhIWIg0g4kuXLrkpKhmUxejp3r17PzB6OluDRxHyNKQH7g3OT8JvvOEyX8R7vXVrd+8vX/mZ193tS4VJuFw5ey06f24GLSFKLgZneTwWFJKwEGkCEXP70okTJ+yOHTvcvcKlSsJRZhoqYXeL0ezZLvPNqVgxdxKO6Cs/8zrvFyphZtCqWlUSFiUdg7M8HgsKSViINHP79m03xeXYsWPdowyrRiLJb3atbAlXjn7llfBy9Jtv2hujRtk7u3bZ682a2Zxofb7yM6/H/b8FSji+TUnlaFGyMTjL47GgkISFyABMcXn27Fm7ePFi10fMYxCzedIOBmat/tvfHhyYlZ+EEWjNmm7kM7cv3Vq5Mvc2JkZRR68H9QlH0uf+Yw3MEiUcg7M8HgsKSViIDEF5+urVq3ZnJJ9x48bZZlEmSHk6G7PiGpGEp0fZ69nkW5Ti0dGLFuWV8D2JksnenDjRvc9XfnYzZN1bxkmY95Bw8ujoe7c/3b10KfnUClGSMDjL47GgSJ+E+/W2HTtFEm4oCQsRg4iZb/r8+fN227Zt7rnCZMXZVqKuFkWfChXsieTJOhiANXRo7qjnzz/P7etlKsp74e4Tjo6Tvl33lduY4veiZVmHddlGPFjrvqC5fWn5cnv3xo3k0ypEScLgLI/HgiKWcNt2Dynhvvck3EASFuIBkPHNmzfdoC3uKe7SpYub3pLMuCQ/YYm20cb6UVv7N29uj3/wQe5kHAnZ7vUWLVxfL8K8OWOGvTltWlhEy7KO6zeOtpGYIbtydo0a9s6RI5q2UpR0DM7yeCwoEiXctVsXO1oSFiJz0Feck5NjDx8+bOfOnetuY2Lay+rVq5coGdMW2tSwYUPbq1cvNw3n0d277bXhw21OYt8tI5ijn2907+4eP3h75Up7a9WqoHDLRuuwrttmQn8zP98cNUqzZYlswOAsj8eCQhIW4hGAjOkvPhJleisjGQ0ePNi2iLJBprl8VDKmPM7gMdrQsmVLO2TIEDfz19GjR11b79y6ZW/v32+v1ap1f2BVLGIeYZjz7ru55eeiRLSOe/xh8sMbon2wLz3KUGQBBmd5PBYUkrAQjxBkfP36dTfj1sGDB+2sWbNsx44d3a1NyJC+YwI5prMPORZuvH32xYMnePQibaAttIm20cYYHi14a/p093jC5McPpiXIrKNtsw89xlBkCQZneTwWFJKwECWEuFTNrU179+51M2/16dPH9R+TJdepU8fNRc1UmPTTEgiUzNknaF7jPZaJl2ddtsG2yHbZNvtgX/v27XP3N9OGRPHm4e5dd9/ujQEDcp8FnE4RI+Bom2zb3RusvmCRHRic5fFYUEjCQpRAmPCDEjBSpGS9ceNG14c8ceJEO2zYMNu3b183IxcSRaZNmjRxmSwZNMH3vMZ7ZLcsyzqsyzbo4920aZMrNbMP9sU+g4gEfTdq041ou2kTcSzgaJtsW2VokUUYnOXxWFBIwkKUYBhVTVbKyGoy1CtXrrg5qikVI88zUcZ46tQpN+r6+PHj9tixY+4rwWu8xzLcIsU6rMs22BbbZNvso8hEwr57+LC9EYmd5/7m6SMuakTrso0b/fq5bbJtIbIIg7M8HgsKSViILAV5hkZGQOCnT9tb33yT+2Qk7vNNnsyjoGDZaB3WvTV5stuWMmCRhRic5fFYUEjCQojUQfJRZn2bpyMNHJg7KQcTdvztb7nZcWKpmu95LXqPZViWGbFYl22oD1hkKQZneTwWFJKwEOLhoTx98aK9s3+/vTVnjr3etau9Vru2zalc2eZ89FFuVKrkpq283q2bW4ZlWUflZ5HlGJzl8VhQSMJCiPRBifraNXv3wgVXXr578qS9c/y4C753r/FetIxKz6KUYHCWx2NBkUYJ94ok3C6ScD1JWAghRFnB4CyPx4IiV8IvRBJuGUm4cyThEZKwEEIIEYjBWR6PBYUkLIQQQqSOwVkejwWFJCyEEEKkjsFZHo8FhSQshBBCpI7BWR6PBYUkLIQQQqSOwVkejwWFJCyEEEKkjsFZHo8FRVol3KGjJCyEEKJMYXCWx2NBgYRfjCTcpu3DSHh9JOG+uRL+qoEkLIQQosxgcJbHY0GRKOGvu3a2o0ZLwkIIIUQoBmd5PBYUkrAQQgiROgZneTwWFJKwEEIIkToGZ3k8FhSSsBBCCJE6Bmd5PBYUkrAQQgiROgZneTwWFJKwEEIIkToGZ3k8FhSSsBBCCJE6Bmd5PBYUkrAQQgiROgZneTwWFJKwEEIIkToGZ3k8FhSSsBBCCJE6Bmd5PBYUaZRwz0jCbSMJ15WEhRBClBUMzvJ4LCh+kHCLSMKdIgkPl4SFEEKIQAzO8ngsKCRhIYQQInUMzvJ4LCgkYSGEECJ1DM7yeCwoJGEhhBAidQzO8ngsKCRhIYQQInUMzvJ4LCgkYSGEECJ1DM7yeCwoJGEhhBAidQzO8ngsKNIi4XWRhPtEEm7foa2t/5UkLIQQosxgcJbHY0HhJPziC7Z1mxa2y9ed7MhRkrAQQggRisFZHo8FhSQshBBCpI7BWR6PBYUkLIQQQqSOwVkejwWFJCyEEEKkjsFZHo8FhSQshBBCpI7BWR6PBYUkLIQQQqSOwVkejwWFJCyEEEKkjsFZHo8FhSQshBBCpI7BWR6PBYUkLIQQQqSOwVkejwWFJCyEEEKkjsFZHo8FRZokvPqehNtEEq4jCQuRAe7cuXP/+7t379pr167Zixcv2hs3briffcsVF+z/6tWrrj23bt1KfluI0ozBWR6PBUWuhJ+PJNw8knBHj4QbScJCFIVYkOfOnbM5OTl5BBmDKK9cueKWSZZoMiyL3Pbt2+fWibe/bNky26tXL/vdd9/ZmzdvepcrLhDw9OnTXXuOHj36SC4EhHhEGJzl8VhQSMJCpJnr16/b5cuX21atWtklS5a4n5NBkt98841b5vvvv3fZI+K6dOmSE2yiQFl23Lhx9pNPPrFLly5127t8+bIdOnSoffvtt+3ChQvda77liovz58/b9u3bu/ZwUXD79u3kRYQorRic5fFYUEjCQqQZssJJkybZN954w0mRn5O5cOGC7dq1q1tm5cqVLhsmKx48eLBdvXp1HoHG2/v0009d9suyyHrAgAH21VdftXPnznXi9i1XXNB2Lihoz7Zt2yRhUZYwOMvjsaCQhIVIM8hw/Pjx9pVXXrGjR492GWoySLhz585uGbJmltm8ebP94IMP3DpnzpxxpWwyZISG5Pbu3evkS5bskzCZdOJyrMc2aE9y8HpyH3OcTbNu8vuJsCyCT1yW9uYnYZbnOFiO5VmPfSVm+3xPST0+jrjtLJ+8rBAlDIOzPB4LCklYiDRTVAlTst60aZNt3bq1feaZZ2y9evXsyJEj7dSpU60xxslox44ddvbs2fbw4cNOUD4JI7HE5egfnjlzpmtLcsyYMcMJOxbkkSNHXFl7+PDhtk+fPq5Uvnv3blf2Th70xXqrVq2yo0aNsv369XN9wevXr7dNmjR5QMLxBQOvsc2+ffvaYcOGuWM+efLk/UFccds5llOnTtldu3bZKVOmuGNkX8VZWheiiBic5fFYUEjCQqSZokoYUZJFvvTSS/bxxx+3zz33nOtbpaxM3y5Z5ogRI1yWvHjxYickn4QRZuJyiLhGjRr23XffdfHOO++45RH9e++9Z/fs2eNkeeLECVu/fn37+uuv29dee819ZTnWmTBhwv1yOkI9e/asE2+87FtvveW2+9FHH7mv5cuXvy9hludCgHPx/vvvu3Uov/OVaNGihRM9Io7bXqFCBXcBwrG/+eab7lgS2yBECcTgLI/HgkISFiLNFFXCiJYS8sCBA225cuVcJrpz504nUdZFZMnC9Uk4+TXWZaTywYMH7YEDB1ymSSb617/+1UmXjDMWJVktWTClcSSKELkY+PDDD+3x48ddm9nHvHnz3PY//vhjO3/+fDcSe8WKFS57f/rpp906sYQpWbM9ZMp2yJiR7rp161zWz0VHhw4d3EVG3PY///nP7pzQvgULFrhBXmTM6mMWJRiDszweCwpJWIg0U1QJIypGFzOoCsExmCvxFqNkufqEm99rbCPub926dautWLGiy0oRIa8BJWYyUYLSN8FFQaVKlZwoKQ2zDFlw48aN3YUC5ey4VE1mTjmaLPj555+/L2HK1mS7vI6AkT3bYb/Iu2rVqi6bphTPsrGEaSMXDLSf7eTXNy1ECcHgLI/HgkISFiLNpCJhfk6UcGL51SfX0NcAUZLNIsS//e1vrrzLsrHkER37p18YgZKZ0x/LrU4IdMuWLffL1mS0lMrJrhP7islWq1WrlqcczfJkzCx/6NChPMuzf8raL7/8sp02bZrLymk7gucr7wuRJRic5fFYUEjCQqQZBDpx4kQnWMq8+Um4U6dObhnKuZmScDwwauzYsU7AlIGRYyxE+mPJdLt16+aEST8w/cWIk6yUzJZR2/HgLbZBhox0EyFLbtiwoZMqEo6XJ9Mls01enmyb42V57nfmIoG2cz7IsuMLCCGyAIOzPB4LirRJuHefSMLtJWEhEAiDrRAM2Z4vq6P82qxZM7cMpWFKtZmQMKXftWvXOrFWrlzZ9bHGI5IRMRlogwYNXNm5efPmds6cOS7zpURMPy/tiyVM/zIDqhiEhcgTQcJsJ5YwmTBipfTN8nG/cgzHN2bMGLc8FypsL7ntQmQJBmd5PBYU9yXcOl0Sri8Ji7IN4qOPFKGQHSZmnkAfJwOlyCgZLcz3SIkSMOswOjgxe/bJNeQ1sk3KwMgUeXLrEq/FIMrt27e75atUqeL6adkOwj127Jj94osvXHk5ljDCpkRNdhv3EwPHxvK8Rzk5ljBi/uqrr9y+k2fR4iKkY8eOTsIM8Dp9+vQDxyNElmBwlsdjQRFLuBUS7iIJC/HQICWyxs8++8xlmMiVTJBsl2DUMyOhX3zxRdu0aVMnq3gkMeXYli1bumUQJkJPlqtPuL7X4uwSkTKlJP24yJ1A+gyo2rBhg3ufC4J4kg9Kx4yCpn2Mdo4lTMm8S5cu7vVBgwY58bIt2s/+WDZxdDQDt7gnmGPq2bOnOyZeYxDamjVrXMmbW5DYL9tOPh4hsgSDszweCwpJWIgMgESQCbfnkO2REfJwg+7du9uaNWu61+gr3bhxoxMt4kZSyBARMWhr8uTJ7lYlskakzevIMZ47uqDXZs2a5fqa+f73v/+9uxWI244o/RJMnMH+yMIpU9P3S3mc8jlt5f7fF154wQk3ljDB99zLy8VFmzZt3G1N9Cfz2l/+8he3TixhMmXEz4hqsme2j5QRMgO8eI2Ba7Qb+ScfjxBZgsFZHo8FhSQsRAZAqsiFOZyRGllfPFkFwiIz5ZahxCkZyU4ZKfzll186CSJkRM59tIy2ZgILsuV4ysiCXuMeW/p3GWhFiTieVCOeuIMsnSwY+X377bdOkPQbc9FAHy4XDJTFq1ev7m4XiiffIDtnf1xIsM24nVw09O7d222Xe4Hj0jPiZlIQMmjK1ZwH1mE5ZgQji2a7vuMRIkswOMvjsaCQhIXIEMgFmSBR+mbJEBEapWpKsvEAqcTlETHlYPpQWRZJxqVdXo8fjRjf25vfa2wHsVEGZ3/JQamabJ11uBBAhsYY90Qn3qdszvr0Ayc+ajE+Jl6nD5k+ZUZBU05mHV6P7z+OiW+BonzNcVF+Tmw3+I5HiCzB4CyPx4JCEhaiGEAqyChxcFJ+JC5bnDKKH5wQus+iLh8flybfEKUMg7M8HgsKSVgIIYRIHYOzPB4LijRKuEck4daRhGtLwkIIIcoKBmd5PBYUuRJ+LpJws0jCHSIJD5OEhRBCiEAMzvJ4LCgkYSGyEPpXr127bm/evBXcJ+vjYdZNN7TlVkKfcbqOUYgMY3CWx2NBIQkLkYXk5Fy3y9dstnv3H35glHVBONHdum1zIrldunzFnj573p6/eMleuZpjb9y7X/lRgWzNoaP23Pncpy2leoxCFDMGZ3k8FhSSsBBZyOUrV+2UmYvt5u07nTxDQLDId+/+Q3ZFJLcZc7+1E6YusJOmLbTzl6y2W7bvjsR89ZGJmAuBeUtW2e927nNCTuUYhXgEGJzl8VhQSMJC3OMO5c/rN9yHPzJCWLdv37E3bty0V3Ou2dtJZVLej4XlWzexrMrP15lQ4+o1l4EiHERzIwq+v5ywv7zrRPu+t87lKzmuLbzHPr6ZvtBu3LrDvfZgG67ktvneLVGsw89btu+y0+csdevtM4ft0eOn7cHDx+2W73bb6ZGUl6/e7NbP5HGR1eYeU+42r127EW3zrr0ZvX7oyAmXmbMP3zEmkti2i5dy9x0fb2HnoqjtFqIADM7yeCwoJGEhLPe83rXnL1yyK9ZutpOj7GtS9OG/ePk6e+zEabtzj7HzFq+2J06ecR/KfEAvW73Jrl6/zX3Q57fu6TPnnUwQwJLl6+3ajdvt3IUr7cRpC+zMecuijG+v3RrJb/b85XbyjEV26Yr19uixU04W8TrrNn7n1pkwbb6dMmuJ3bxtl83JyRVHoqBow7moDSvXbnFtmDB1vp0TrWcOHr0nl5t2+469dtrsJXbPvkPuWDZv2+2WX7Vuq92x29j90bJkx7v2HnBCzMRx0ed76Mhxl3mzvUnR+5zLC9F+rkQXGWw/3n9BEr5/vGu2uH2MnzLfzl6wwpXX2U9B5yKVdgtRAAZneTwWFJKwEBFkPd+u3GAnRR/IfDiv3/Rd9OGcW6Y9cuyk+5BesGSNPRN9yG/dvtuVcc2Bo04q+a27YOka94FPNjZu8lw7fOz06IN9g90crU82OnT0VDs+en31+q2RaHY64SCLxHWGjpnmxIR850SSGTl+ZnRRcMD1myYKyoklkgbrLFu1yW7YssPtY/yUefb4ydPuwoH2bIr2c/rMOXdc30Si+XblRjsjOrZ50c9nzl5w4lodSZmLi0wcF/3RSHjNhu2u7Lx+8/d2QtTGbd/vsWejY5o8c5HdtG2nO6aCJByLdMyk2W7fbItt8Hph5+LipctFbrcQBWBwlsdjQSEJizIP5UkyqNETZ0cf2hvtydNnXfABPXL8LJc1UrodP3me++Dnw3zNhm1u4BBlz4LWJWukVMo6cxetdJklpWwyz8Gjprp14lIzAmQf/IyAEAWZ3NlzF10mizzJ6hAo+4gFdT0S5qnoPdqwKtrGpWh/lLGPnThlR02Y5aR68tRZl3ky8ImBTmO+meOOCZmTCSPWCxcv2+2RzOYtXuUEm4nj4lwj1IvR96x/PDq3s6LMc9G3a/McU0ESZhsc76iobSvXbHbbibN9MvQCz0UkWI6rqO0WogAMzvJ4LCgkYVHmocRMqXLQiMlOcnw4E5QpR0SZJ5kwUiKrGhgtw+vICxkUtu7RaF3kNmn6Aidu+iERBVLg/Z17D7jsEIls+35vlNnNcVJBQGxj+epNLisFMjJkSVkaecWCImOlDSPGzbR7I7GSnQNtnhZleLRn975Drn2nItFRlmbbtIsLCcS6aNk61xe7efsuO3/xaievTBwXr9EG2r00yrLnLlrl5Eil4cSpMAnH59wd7/5Dbpve9zznIr6AKWq7hSgAg7M8HgsKSViUeejzIyskE1oYSY5RwnwAb/1uj/1ux777A3eWrdx4T8LzXXaaK+HC1s0dNJS3//aOK4sinwOHjjlx8KFPFpooYURBvzOZLiBbZDl51mK3fqKED0TioVSNgOLBRLQZuc1ZuCKS8EE7firtvuCWoQ+V/u4Tp864sjTLHT56wi6MMlJKxayb7uMi64yz3Wmzl9q10X4oIU+NLipmzlvuKg5hEs4950iTzD5x8BTfF3QuyPKpChSl3ZKwKASDszweC4q0SbhX7x62XSThepKwyDIY5IMA+OBmkBBZrusTvde/yAc1WdW4KT+Uoylr8h4f4AWt6xvlm/ihfzCfD33WmRCJkgFh/MzIbCSGMOmnTBQJ2RxyHT1ptl23cbsbeUwGeOr0uei1Oa5dRyPh0m5GH5+7cNGNhEaEM+Yuc33CY7+Z6zJFyt9k2WSD6T6uM1Eb6bsdPm6GGxzGQCzaOHHqAteOgiTMhci169fd65wLLiBo27pN37kRzuyLNtOGgs4Fo78ppRel3ZKwKASDszweCwok/IIkLMo6ZEqUKskQ12/63slqT5Q90lfIBz4Dd8gSGbxENjhh6jy7Z/8hN4o3v3UZ5Us/5Q8yyR1whPQR3agJs/N86COoRAnz/bAx092gqENRlrph8w7XDxoPYkrcJmJctGxtJOmFrqRMpkh72Qa3INEHSxZICRgJsz7t4xgYbEbWyP4pCSMzsvx0HxciJ9PkfQaIsT0y/SGjp0Xn99vcrDxhe4nbp/RNaX5rdOy8R58tGT6l8nhb+8wR1+arOTkFnovz0baK0m5JWBSCwVkejwVFLOGWrZrZzkh4pCQsyiBkQ5RKFy6NPqyjrJCBPWSH9MEycMllapGgyMIYacztK5Rpr1y56sqjvnUZWcygH8RA9hpPQpE7sOi869ulb5V9c+8sJWOy0/ieXDJhSrUMqBr7zRyXyTLJBu/nSuiHbSISMkDK1SzHqGEkRP8vWSRtREBk0mSDXFiwPEEGuv/gEbdP2lLYOUn1uNg+63AhwLEx8GxmdF7ZHq8xYCpxe4nbR+Bsg3559h1nw3MWrXSiJBjgxQUFx1rQuShquznfQhSAwVkejwWFJCzEPfjwpdzq+i4j4fLBzwc2fa58TZysg9euRq/F0vKtS3bKsggyLmvHk2CQbVGOjQcV8XosnrjUi3zXbtruyrgI6sLFS64km982eY12sRwyoi87lgzw/YFIxJS4ySCnzFzk7odlsFU8OjpeNibdxxWfO7ZHvzqCiyc+Yd3E7SVun5IyYuUCiNfdvqLtUYqmTbnHywVR/PvI/1yk0m4hCsDgLI/HgkISFsIDtx4lCymUh1k3Jrm/tajby295skTEcvbsBTcQi0CGiRcZ+ZGO44phO0XdVn7r5Pd6TEHvCZEGDM7yeCwoJGEhSiCUm5m9auv3uzMybzJiQrqEJCXEQ2FwlsdjQSEJC1ECoRTKYClKqSqHClGiMTjL47GgkISFKIGQnSY+W1cIUWIxOMvjsaBIo4S7RxJuFUm4liQshBCirGBwlsdjQSEJCyGEEKljcJbHY0GRV8LtJWEhhBCiCBic5fFYUEjCQgghROoYnOXxWFBIwkIIIUTqGJzl8VhQSMJCCCFE6hic5fFYUEjCQgghROoYnOXxWFBIwkIIIUTqGJzl8VhQSMJCCCFE6hic5fFYUEjCQgghROoYnOXxWFBIwkIIIUTqGJzl8VhQpC7hOkkS7tXdtm3XytatJwkLIYQoMxic5fFYUDgJv/CDhEckS7h5gITXrltte0rCQgghyh4GZ3k8FhSxhFu0bGY7dZaEhRBCiKJgcJbHY0EhCQshhBCpY3CWx2NBIQkLIYQQqWNwlsdjQSEJl2J4MPyVK1fs6dOn7YkTJ+ypU6fspUuX9KB4IYRIHwZneTwWFJJwKeXGjRt23759dtiwYbZKlSr29ddftxUrVrQ9evSwO3bssDk5OU7SQgghHgqDszweCwpJuBSCgJcvX27//Oc/23/5l3+x//mf/2l//vOf2//6r/9yPz/++ON20qRJLksWQgjxUBic5fFYUKRRwt0iCbeUhB8xlJr37Nlj//SnP9l/+Id/sJ988ondtGmTPXDggN2+fbtt1qyZE/F///d/29WrV9tbt24lb0IIIUQ4Bmd5PBYUP0i46T0JD01FwqsSJFxTEn6EXLx40Xbq1Mn+0z/9kxMwQr59+7Z7D0EfPXrUduzY0f7jP/6jK0/TTyyEEInQVUVFTeNHgjA4y+OxoMgr4XaScLZz7Ngx+9xzz9l/+7d/cxlwLOAY/qnoE/7pT39qf/GLX9hDhw7leT+b4FiK0q/N8levXrXXrl0r0npClCX43+BifvWqlfbAAWNv3ryZvIjIi8FZHo8FhSRcyjh8+LB97LHHXP8vJWgfR44csU899ZT7PeW3zMNCmfvMmTMZG43N9jkOMvnkC438oA98+vTp0d/st07E2YguHkSmIQNetXKlfeetN2zlih/ZrZs3S8QFY3CWx2NBIQmXMig3//GPf7T//u//7vqAkwXIh/jevXtdFvyTn/zEHjx4MM/76QApso86derYwYMHOxGnm3PnztkOHToUaftcFDRu3Nj27t3bXelnE/zeyOLPnj0bfNEhRCrwt0aFDAH/7skn7McfVrBbJOKCMDjL47GgkIRLGcipQYMGrk+4efPmrjwdi5h/rvPnz9sRI0a497ltifuH0w0Z5+jRo6M/rBfsBx984ESffDHwsCCkuXPnusFloVktWXPdunVt165d7YULF5LfLtFwS9nChQtt//793e9QiEyCcMmAEbBEXCgGZ3k8FhSScCmDLGnr1q32N7/5jf3Xf/1X27lzZ7tz505XuiU7HTlypP3Zz35mf/zjH9s5c+bY69evJ2/ioUD0x48ft7Vr17Yff/yxfemll+yMGTPyFSVyRohks1xAsC4XBrzGPzxf+Zkge42zQMrRvEZ2y2vxdi5fvuwkFa8Tb4d2xRLmnHBhcPLkSReJy8QDUmhLvA2+5zzlVwpm3+yX7VOJYJv8zOsFvRevW1i7WYbfH+1u2rSp3bVrlztuzkFR2ypEKPz9IV6JuFAMzvJ4LCgk4VIIWeLEiRPtr371KzcKmkFY9AFTgv7nf/5nJ+Bu3bq5D+x0f1jH9yi/++67duDAgfbTTz91t0Uxa5cPxEN5eMCAAbZ9+/a2WrVq9rPPPrNdunRxWW737t3tF198YWvUqGH79u3r5Il04/UmTJhwX2D8PGjQICcr1vn888/dcW7bts19cCBCLg4Qcbt27eyXX37pomfPnq50zzIE3zPCnPVpC8suXbrUeyGBILlwYFIUtsWFB1+nTJni2sV7w4cPv/8e7RoyZMj9CkVIu9kO63BB8+KLL7pt0SaEXpS2ClFUfCJWH/EDGJzl8VhQSMKlEMRKSRiJ8cGPfPmd0AdMCZoyLgJOd4kYkAoyqVy5spPI0KFD7fvvv2+3bNnivScZOSPYl19+2bZp08bJCymVL1/evvHGG66k/s0337i+348++siOHz/+/lSc9evXd5Ima0zcTosWLdxkJJTEq1ev7iRFu5AwP1Mm58KAZcaMGZNnGT5cvv/+e7c/2sJAroYNG7r+bTLN5IsWsnMuDt577z3bunVrO23aNDtz5kw3Mp398V6FChXcbWHsj6/8jPjZX0i7adO6devca0iasvTm6IMQORelrUKkQiziDyu8Z3/7xOO20scf2n379mbk8yNLMTjL47GgkIRLMXH2xyALRkGTRfLhnKlyJf+U3JeMLNu2bev2uWbNGvv222+7vkzfACrah4TI4iiXk8WzHhJ/7bXXXGkd6TLqm0FVSJnBScn9u/F2yLx3797ttsNrZNiVKlVy5yBkGY6B/lcyVcrH+/fvd1J85513nPgSLyQ4h7SVfm8EyvllXYJzbIxx77Vq1cptm/1xHAwo48KENvD7KKxN7Iesl1I0+2EdfrdFaasQqcLfHxd8UyZ/Y5/54x/ss3/+o50xfZr72xMOg7M8HgsKSbiUwQdv3I9KPyIf+siB4AOdn/nQRmTpljECIVMliyUb69Onj5MkMkWq7Dt5f3GJmCyY7BxoG5kqr/M+cEyUaOPXfBJO3g4fEvRHk6XGwitoGfpaKePShz5u3DiXZbds2dKVyDmmlStX5inDca43bNhg33rrLbc8x5/43saNG917nJP4PfZHtvzmm2+6sj3yLKhNtBvZck64ACHb5nug9B/aViFShc+J9evW2ffffdv+7n8et59+UskeiC4wlQnfx+Asj8eCImUJ1/ZIuE3blrZOXUn4UUA/KSJav369y0IpO//ud79zA7ToEyboI37yySddObZWrVquLI2Y+TB/WJArkkOMyKNJkyZOLGSB9GG+8sordt68eQ/0VcYy/frrr++PWEYyrIeIY+HwHiVc2p2fhJO3w75mzZrl2oOs4vbltwylXZaj5FuzZk0nz3hEMhcSK1asyHOu4jIxoqWMnCxhslGqAPRbx++xPwSLhJctW+YkXFCbaE+ihDkv8W1KCDq0rUKkQizgCu+9Y5968glbpXJFuyP6P1GVJQ8GZ3k8FhRI+PkECQ8fkaqEe0rCjwo+pMl0GZzDuWfwFTNm/cd//IebtIO+4Dh4jXuI//f//t9u9DRCTscHNkKiDxpxMCgszrYJRFK1atU8WVxMskwhlnBceoZQCSduJ1lmsYTzW4Z+a0aM0xfNMVACJnvnyVOvvvrqA+eJ886TqliXCx8qD3xosU2+8jMVAN5j33xw0U4GnYW2KZYwWTLnr1GjRm6wF1Lnoia0rUIUFQk4GIOzPB4LiljCzVs0tR07ScJZCYODKNVy7y/ZLgIjQ6OPMO4LjoOfmbaSwTxMb/l3f/d39tlnn3UZ2cNAGxAAj02kLzSxVEVfMCOl6R/97rvv8kw24ZPno5IwbWNAFf21iJKZtbili8Ft5cqV84qNgVOxVPkdLF682MmRigSDruK+XTJVXiNj5mcGXSHWkHZzLumT4/5u+tsZ+EVb165dW6S2ChEKfzt5BVxJAs4fg7M8HgsKSbgUgFwob5Ll8mGMGAqaVSkePU25lFuXWA9hPwwIhywN6STPRsU/LiOlKZ0ikMQBHUiWTDFx5qtYuPRzxhNT8B63+sTZdPJ6yT8DV/JLlixx5XCOjzYWtgzb4YKBzP3DDz90g6YY4c379PEm97NynrnooJyMIBn5TEWCEd3xLUqcE46d93moBsJlX6wb0m4kzDnk4okyP+2iH5nbk9h2aFuFCIG/t/379tmPP6ggAYdhcJbHY0EhCZcCKEVyXy4laPp5kTLlSt/AiXgyCuRGZvbEE0/YH/3oRw89hzRCQXII2LffeKR24kQVwHpkhInr8RUR08bE1+IJPVgneb3kn4FjRfi0i/2HLBPvh8oAfa5IlDbzfn4D2eL7likHM7iLdeM5s+PtUZ7nPUrUHFt8kRTSpvg1vuc1RqDz+6I9RW2rEIXhxjqsWW0/fP9dW61qFQm4cAzO8ngsKCThUgBZLRkQfb0IlXLnqFGj3EAjsrTE4AOccikZ1eOPP27//u//3t2jyge4+AEE5ruYKIh4nfzkV9B7RSGWe0wqbRUiP+JKWXxHQUFVNeEwOMvjsaCQhEsB8chkZkv65S9/6TLieHIOpqiMR0fH3zNYKxY2GTT34upKVwgRw2cK8k3HRWMZwOAsj8eCQhIuJcQlXPoQuVWlV69eLttl0A99hkwGQV8hMyoxaxMjahncE4/aFUIIkRIGZ3k8FhRplnALSfgRE/f5xvMpM/CHPkKCSf/j/kf6HFXCFEKIh8bgLI/HgiJXwn910s2V8JBUJdz1noS/lISFEEKUFQzO8ngsKCRhIYQQInUMzvJ4LCgkYSGEECJ1DM7yeCwoJGEhhBAidQzO8ngsKCRhIYQQInUMzvJ4LCgkYSGEECJ1DM7yeCwoJGEhhBAidQzO8ngsKCRhIYQQInUMzvJ4LCgkYSGEECJ1DM7yeCwoJGEhhBAidQzO8ngsKCRhIYQQInUMzvJ4LCjSJuEekYRbt2lho9clYSGEEGUFg7M8HgsKJPzc83+1zZo3sR06trPDhkvCQgghRCgGZ3k8FhSSsBBCCJE6Bmd5PBYUkrAQQgiROgZneTwWFJKwEEIIkToGZ3k8FhSSsBBCCJE6Bmd5PBYUkrAQQgiROgZneTwWFGmWcHNJWAghRFnC4CyPx4LiBwk3jiTc9mEk/PU9CdeQhIUQQpQVDM7yeCwoHpTwYElYCCGECMTgLI/HgkISFkIIIVLH4CyPx4JCEhZCCCFSx+Asj8eCQhIWQgghUsfgLI/HgkISzgLu3r1r79y5o1AoFKUu+HzLcgzO8ngsKCThEg5/oFevXrWXL19WKBSKUhd8vmW5iA3O8ngsKCThEo4krFAoSnNIwpJwiUflaIVCUVojywUMBmd5PBYUknAp5tatW/bSpUv27Nmz9ty5c/bKlSvuj14IIUTaMDjL47GgkIRLKdevX7ebN2+2PXv2tE2aNIl+kc3t4MGD7b59+5ychRBCpAWDszweC4q0SHjN2lW2e4+vbavWzW2t2pLwo4Zsd+fOnfaFF16wjz/+uH3zzTfta6+9Zn/1q1/ZSpUq2ePHj5eGEpAQQpQEDM7yeCwonISfiyTcrLFt3yGS8DBJOOtAqGS+DHK4du2a+zpixAj7s5/9zH09cOCA3b17t23atKn95S9/aVevXm1v3Lhhc3JyXIn65s2bkrIQQqSGwVkejwWFJJzlkPWeOXPGzp8/3/bt29dOnjzZrly50n788cf2f/7nf+yuXbvcMkh65syZ9uc//7lt3bq1XbdunZ0wYYIrUSNl+o4lYiGEKDIGZ3k8FhSScBaDNM+fP2+7du3qMtyf/OQn94MsGNnyfrzs4cOH7UcffWR//OMf25/+9KduOb5/4okn7Pjx492tAiUF2hsPLLtw4YLL2m/fvl3kC4VURl8mrpPK+kKIMoXBWR6PBYUknMUgqTVr1jiJvvfee3b27NnRL3CYbd++vcuIT548mWc0NMvv3bvXDhgwwLZq1cqOGjXKTpw40T777LPRH8Fzdv/+/SkLh/0gTPZ54sQJ9/X06dNOoGThRd1uPLBs4MCBtk+fPnbevHl2z5499tSpU07GIXC8R44cCV4nriqwH46Bth88eNBevHhRo8qFEPlhcJbHY0EhCWcxSI/Rz4899lj0e/j2fh8v0uB7JIRIkBC3KNEPjIzoM+Z1Ml++0m/MoK1Fixa5ZVKBtnAB8Nlnn9nq1avbGjVq2IYNG9ouXbrYhQsXOiGHiozluCCoWrWqrVatmv3666/tyJEjoz/SZq58zr5C4Jg7dOgQtA4XCQi4Y8eOtnLlyrZu3bq2f//+tkWLFnbHjh0aUS7KDPwvpFJ1KsMYnOXxWFBIwlkMpea2bdvaP/3pT3bbtm15sj1kymu8j1QaNWpklyxZ8kDfLxknkqScPX36dPdzKtCWTp062Q8//NBJfdy4ce4C4YsvvrBvv/227datmxNxyD82g8vmzJlj3333Xbtq1Sp3nzMXErxG/zXvh8BFxty5c4PW4dxRJUDanA/61+vUqeOqBsg8pN1CZDv8nXMBv2vnTnvyxIno/0IXnwEYnOXxWFCkWcLNJOFiBMkgO7LYevXquT5fskiEgoDLlSvn5Eq5+Te/+Y0bqIVoYyGR3W3fvt3Jjvc3bNiQcsYXS7hmzZr20KFDLiMny+ZWKbJJbpOipMy+aSPZOCXrY8eOOTnzOh8AvMfrlKGR95YtW9z7XFRQIiZb5fhYju2zHfbNe3EJOR7tzbEkrgPxvpH60aNH3b74OR68xjmk/bSbc8MyieekoLbHH2BcNPAe+6ZttF0SF9kA/ycIuEb1arZZk8bRhemelD8TyhAGZ3k8FhQ/SLhRJOE2qUp4ZSThLpJwMcMHOx/2DRo0cAOxEFdcam7Xrp0T8OjRo90EHWTBZMyIDTkAGR4l41/84heu35X1UpVFLGGyRwQXwz/w999/bytWrOiycaTFfcqUrr/88kv3OhcQZLm0HXkzSIyM+g9/+IPLpDkWytO9e/d2I7pj8fLzoEGDbOfOnd1yn3/+ucu4uQBBxPEy8ToINHHfjCDn65QpU9z7vDd8+PD777HNIUOGuHPMusnrJ7adCgPb4Ps2bdq4sjzL0B5uD9MHmcgG+P8/FV1gIuDyLzxnGzf8SiIuHIOzPB4LigclPEgSzib451i/fr3LZGvXrn2/dPvJJ5+4DBgBIw9eQypkwww2AuTy6quv2vLly9+/lSlV8pMwIHv6WhmZzX7oa0VgiJ8BZMzm9cEHH7iyMRIm+6WMzgQjSI2fGWBVv3592717d3exgMzpd3755Zddpj1p0iR3wUF/NO2gPSyTuA595ZSZGcTGyPFp06a527Y2bdrk2sx7FSpUcG1le3zlZ8rqbI/1KU/72r5ixQr73Xff2U8//dSNVqd/fcaMGa5SwUXPw5xbIYqT3K6ZPU7AEnEQBmd5PBYUknAWw1UrguvXr5+75YiMEFHEGS4DtsiAEQzZIcJ98cUXXYkVkBTSYlatqVOnPtQtSgVJmAyRjPWtt95y7UFsTKW5detWd0HAa6+//rrt0aOHaz/CHDp0qMuGKQ2T1bJNBkshuHiwGRJGemSatJ3XkCSzgrFe4jq0j0lLECbSZr+UjgnK0MYY9x6jxlmX7VGapo/4/fffdxcPLEObfG1nABri5dgYCEbmThmc4wkZmS1ESSL3TgqJOBCDszweCwpJOItBHgw8IgumzMwoXj7w6YNEDmS9lKDJgBEw5WnKs/FIYZZbvny5uz3pqaeecplcqsIoSMKIiGzynXfecX3S9FWTjVKeZsQz2Soio+zMduIZvygJk62DT8Jk/pR+uegAhEr2ybYRMxlovA5CpM+bCwGy08QLDj5YNm7c6N5LvF+a7ZEt05/N+eR2MKoGvraTuXNrE1l3XKYeO3asq0SkOuJciEdJfiLWYK0HMDjL47GgkISzGGREyfTpp592JWkyRiBDRrQIDzlzHzHiQ8CJpVGWQziUZBE0Xx92dHSyhNkHGSWvczHAvcyvvPKKbdy4sRMcFxGUnHkdEcbTb4ZImJ+5fYmfgQFSs2bNcpJkYFWihMn6mSUM0VJqTpYw9yRzrug/jt9je0gdCS9evNjNRJZf2xE80uaCgO/J6snI6aeOL46EyDZiETf8qr594a9/sU0aN7THo//JVMeOlFIMzvJ4LCgk4SyGDJMS9JNPPukkwj8Mgcj4ihQQEWVTStCIGQEjawSDGFiGUjQSRigPK+FatWq5fcVzWNOXy2AnRmCTgTLiGElSLidbZT2CTDV+1GJRJBz/DAVJGDmSlfIeWSvt4lhZh6/8zK1cvMd6nD/2QZmZdRAptzDl13baTMaLwDmnrEt5Oj7uhyn1C/Eo4X/k26VL7BuvvWrffP1v0cXs2vsX/MJhcJbHY0EhCWcxfOgvWLDA3aJEeZR+X0qmZGYMZkq+JxjBkRFSgiaTo1+T7JBMj3I0okl1ABEyov+UwVeMNqYNTLBBu+hT5T1GFrMcpWlkhrRpP7cuUQamHM4/NzJOt4RZhn3HUuU1slv2TRWB8xL3J9MWXiNj5mfaicTZRn5t53xz/qgmcE65KGKgGMtyPhCzENkG/487o7/rerVr2XLP/9W2atHc3T+sTDgPBmd5PBYUknAWwz8CoqFvlIFZZMQ8oCH+HgkitHhZRNOyZUsnbZbh1qRf//rX7iulajLrVGFdRgxT0kW68e0/jEJGyEgzvs2H8jQjkREcyxIcw9q1a+9nk4w8RqBxaZtR32Sp8exXyT8DGS19t+yXgVEcb+IyZP4MrkKglJVfeuklNyPXN998c/8WJURM2ZyLCUaYI2u2Fd+bnF/bKVUzyprzy3r0C1OCZ9CcRkeLbMQJeOcOW79ObVv+xedty+bN3OBGda08gMFZHo8FhSSc5fAPwT8GEmWiDCTALUAMtmJQFgJBwPxDkQEjYCRBptm0aVMnCsqlRZlW0gfrkikiMsrRZLBMaEEGGU9mkbgs0mY5skdKu6yXOGEHUqRN8T88X9lWPI9z8s/AumScrMfx+pbhNUQaTyxC/238PoGsaTujoSlRc0yJHzr5tT0eZc2+Kf/H808n7luIbCFRwC9JwIVhcJbHY0EhCZcCYnnQNxnfH4uUmcCDwVnIEPGQ1ZEpU0ZleZYloyTzfBTlpVi4xSkp9okYGYBVpUoVV0qOqwWJ0KaCzklBbY/fEyIbYTxEHgG3aC4BF4zBWR6PBYUkXAqJJ/D47W9/a5955hl3uwxZH6OkmdyC+2ALEkxphnPDAK0xY8a4QWQ8RconYSHKInwuUNlp1OAr+3K5FyTgMAzO8ngsKNIm4W7du9iWrZrZmrUk4UcN/0iUc+nr5JYc7hdm4BX9mDxtKdUR0KUBymyM0OYeXkaDq79WiB9Atnv27LZf1atj27dtIwGHYXCWx2NBEUu4aSThdu3b2KGScOkg7h+Nb1GKZ5Aq6w8T4Ng5B5TjOT8SsBA/wP8HF+lHjxxx4yn0/xGEwVkejwWFJCyEECIPZflCPQUMzvJ4LCgkYSGEECJ1DM7yeCwoJGEhhBAidQzO8ngsKCRhIYQQInUMzvJ4LCgkYSGEECJ1DM7yeCwoMiDhLyRhIYQQZQWDszweC4pcCT8bSbhhJOHWDyvhppKwEEKIsoTBWR6PBYUkLIQQQqSOwVkejwWFJCyEEEKkjsFZHo8FhSQshBBCpI7BWR6PBYUkLIQQQqSOwVkejwWFJCyEEEKkjsFZHo8FhSQshBBCpI7BWR6PBYUkLIQQQqSOwVkejwWFJCyEEEKkjsFZHo8FhSQshBBCpI7BWR6PBYUkLIQQQqSOwVkejwVF2iTctVsX26JlU/tlTUlYCCFEmcHgLI/HggIJ/zWScJOmkYTbtbZDhkrCQgghRCgGZ3k8FhSSsBBCCJE6Bmd5PBYUkrAQQgiROgZneTwWFJKwEEIIkToGZ3k8FhSSsBBCCJE6Bmd5PBYUkrAQQgiROgZneTwWFA8h4RpJEu58T8KfS8Jp5u7du/bOnTsKhUJR6oLPtyzH4CyPx4LiBwk3kIRLIvyBXr161V6+fFmhUChKXfD5luUiNjjL47GgyCvhVpGEB0rCJQlJWKFQlOaQhCXhEo/K0QqForRGlgsYDM7yeCwoJGEhhBAidQzO8ngsKCRhIYQQInUMzvJ4LCgkYSGEECJ1DM7yeCwoJGEhhBAidQzO8ngsKCRhIYQQInUMzvJ4LCgkYSGEECJ1DM7yeCwoJGEhhBAidQzO8ngsKCRhIYQQInUMzvJ4LCjSI+E1K+3XXTtHKzW1Nb6UhIUQQpQZDM7yeCwonIT/+qxt3KSBbRtJePAQSVgIIYQIxeAsj8eCQhIWQgghUsfgLI/HgkISFkIIIVLH4CyPx4JCEhZCCCFSx+Asj8eCQhIWQgghUsfgLI/HgkISLqXweLCbN2/aK1eu2AsXLthz58654Hte471S8AgxIYR41Bic5fFYUKRZwk0iCVeXhB8hPJ+TB2UfOnTILlu2zA4fPtx27drVtmnTxgXf8xrvsQzLso4QQoiUMDjL47GgyJXwXyIJf/WwEu4kCT9CyGpv3LhhjTG2b9++9pVXXrGPP/64/ctf/mIrVqxo69Sp44LveY33Xn75Zbcs67CuMmMhhCgyBmd5PBYUeSXcMpLwAEk420CeV69etcuXL7cVKlSwTzzxhK1ataqdOnWq3bdvnz1x4oQ9ffq0C77ntWnTptlPP/3ULcs6rJuTkyMRCyFE0TA4y+OxoJCESwHXrl2zCxcutM8++2z0y/yrHT9+vD169Kh73SdVXuM9lmFZ1iEWL17sXhdCCBGMwVkejwWFJJzl3Lp1y27ZssW+8MIL9vnnn7dLly51/bw++SbDMizLOki4XLlyduvWrfb27dvJiwohhPBjcJbHY0EhCWc5Z86csfXq1XN9vDNmzHBl6RABx8SlbNZ97LHHbMOGDd02U4VBXmyPkdiUvo8dO+a2d+nSpbQPACvKcYaSiW0KIUo1Bmd5PBYUknAWQ8a6efNmJ+D69evbkydPpiQR1mHdunXrum2lmg2zzpEjR+yECRPcSOzq1avbypUr20aNGrkR2efPn0+pfcnEFw5nz55NqZ0+MrFNIUSZwOAsj8eCQhLOYpDGmDFj7K9+9SvXn8sI5xikkii8wn5m3fnz57ttjR071g3SKgps6/jx47ZFixb2rbfeiv5wmru2jR492nbu3Nn269fP3aOcDmgbfeD9+/d3Yk8HmdimENkI/8tciKbjgrmMYHCWx2NBIQlnMUitQ4cO9o9//KM1xtz/p6GfmDIwwfeF/Qysyzb+/Oc/O2levHgxcVeFgsQYjf3666/bLl262IMHD7pJQQikRlspR8f3MZ86dcoNDCMDT7xXma8sy2usR0mb4DUmGImzbdrYtGlTu2vXLlfujj80uJiIS+EE31+/fv3+ufHtn2PlnmnfNuPlWY7zxQjz/Aa8xRR2DAW1JfFcsBznleycfbMNtqfbyUSmiP/mdu3caU9Gf2+3b+d+PogCMTjL47GgkISzGASDNJ577jknphg+1LlFiVuQ+GAv7OcYRPDaa6+5bJZtFwWWJ/tlm3v27PGWdJEL2TKl6S+//NJ+/PHH9osvvrBDhgxxkuF9JNO7d287aNAgJ0Xe//zzz223bt3stm3b3H5Y/qWXXrIvvvii2067du2cqBDc9u3bbadOndw6n332mXuPgWeIM97/sGHD7u+fryNHjrS9evV6YJsIN3F57rGm/33OnDkFDn4r7BhoZ2HngvPHBQz7orTPsbAc29i9e/f9iych0gl/dwi4RvVqtlmTxnbv3j36Wyscg7M8HgsKSTiL4cMeYTIqmkwuhkFQiGPo0KEuyyvs5xhEXr58edu6desilWSREeKoUqWK7d69e75lZ/bF5CDcl9yxY0c7adIk95Wfe/bs6faJ+GrUqOEmEuHYWIaSNv3LyJWLhnXr1rmfkRYlZPrFyXaR2/fff28HDx5sp0yZYqdPn+4GmjFJSZyJsv/33nvPHSP3Ss+cOdOuXbvWrlix4oFt0pYBAwY4+fbp08dOnjzZXWh88MEHdvXq1W5/Pgo7Bi4kCjsXXFQgWy5qmOVs0aJFbvDcuHHj3LGke5CbEMD/8qnofwwBl3/hOdu44VcSceEYnOXxWFBIwlkMMuUDm1HNmzZtup99xmXOuLRZ2M/xOgjsySefdFkc2w6F/e7YscO+8847dtSoUS6DS4Z/7gMHDjiBtWrVyl000Kd9+PBhV1J///33nXQQDAJDPvzMMmTuyLBSpUpuPZahAoDg+D4u8calNC4IyOr379/v5Ee7OD979+51+2c9yuUsSyDw5G1S8qW9H374oW3SpIkbrMY6S5YscSX3Hj16OKmzLkLle77SFtpb0DGwHUr/BZ2L7777Lvq/WuOkzEUFx0KJnH34qgxCpAv+vhAvApaIgzA4y+OxoJCEsxgEMHv2bPvzn//cDXxCqqmCOMmOGZg1b968PIO8CgOBU4J+++23nTB87eAfeOPGjW7QFhOEIB1AgmSkb775ppu1C3nWrl3blWDjkjjLkAWSwSI1Mk0yUrJZMsYY2rxz506XLZKRt2zZ0larVs1l999++63LXtk/78f7j2E7iduM28u67JcR3s2aNXOj0JEw5Wqy8g0bNriyMxculJI5D5SZCzoGLnbWr19f4Llgbm/OBccRl8EZMMdsZ0X53QiRCvz9S8TBGJzl8VhQSMJZDJkfGdIzzzzjsicyuFSIJfrqq6+6ST/IAPPr78wPxPP/s3cW4FFc6xtf/vf29vbWqbvbrVK7dactLW1pgboL7gkSICHBgjvFKRQpLoVixV2Kuw5eHLJx/f7nPbNnmcyeJJPdTbJJvvd53geS7MzOzu7Ob77vfOc7gAVAhajPvj2+vEjxAtSYwqTAg7FawMkKHkyV6t69uzetjcfMmDFDAgyQVRBGFKkgjLt3ABrp5EaNGkm4qWpnjHNjXHj58uUSfEj95gRhtU8cL0CJHtyRkZESjrNnz5ZjtLjxAaCRLUC0ivFkFKMhvYzjQySe22tAlIvt8zoX+BkQB+gReSOKxtgysg4cDbMKWjmBmIu1fGSAWRqOOTJDuJgLwEDUhZQ0gGyHX14CgAENRIBPP/20LBTSpZPzEmCDsUuABVOdVFUyojZEeAAK0q2YNxwbGytvGPAlB7ABMAVY/B4Aw750AMNjkJbF8SI6BfwBJDwGEfwnn3xCEyZMkFEqng/wws0Fomxsi33g+TH+jePDdvgX59G6Txwbzicej3FlAB5j1jCeH+dIPS+OUy0TideL15TXa0AKOq9zgeMCoHH+8DeMC3/55ZfaSJ7FKggpELeIaEYVBSiiIlvQ3+J6kd/rTAmXAWZpOObIDOFiLkSFGHt8+eWX5YUdUHUyxw9/x/glxidRwau6ZQHIeW2rkxoXRhUvxjqRHp87d64cQ0WBFCBoHRdFpIpIE1EpflYFS04AhnHRESNG0Pfffy8Lq/A7QBHtO5ERAMiQfkbVM6qO0Y4ThVcAs4IcqowXLFggwY3jAFjt+8TjMeaOx+P48HrweBw7otmcCrOcvAb8PrdzgX1gDBvHgkI0ZBEwvo3tUXSW33ncLJa/wmd38aKF9EnVyvTpx1XE53F1jp/9UioDzNJwzJGDAuGVAsLduneh6BgB4QYM4cIUIPrSSy9J+ABCmKKDizbGDnEhx/ismhID4//4HaIvpDwxVQldsjDmiGKhQKpuEQVivBNVvqiURlERgIwiJYxnIn2LKBPwQdoYwKtevbqEFaJOgBwRKaJDjC2r4jBEhIA5pujgcXgeAB8FUyicQiYAkS0gPnjwYPma8Hs8LyrAsR3Sv7iY4DUiTYznxvEhvTtp0iQJdvs+cVMDI80MOOIcw/gbKqpzGpt18hoQYeR2LvB4gB7j2vi9Wo4SNzdcHc0qLOF6sUN8L5qGh9H771agtq1j5Pxhf27US7AMMEvDMUdWEG4ZGUHtYwWEhzKEi41UxTEg/OKLL8oiIgAVaeXXXntNTokBlABbwBmARISI36FgCZXQGE9GYRHGYoNxYQdckLJFRI0ULm4GABvVOxrG//F3NMUAPBEVqjFO/Kum8KjjUVXPiPpVJTT+xc8Yy8Y5ABDVvvFa8Nx4Xtxw4HGqYQf2j+NDqhrPj8eqY9PtE4/HseBxgLTaL4Ce04XIyWuAcjsXeDyeH4/HjRaOCfC17pPFKkhJAO/YTs0ah9MH771LbWKi5feC6xF8ZIBZGo45MkO4mAuQQZoSaeCIiAgZfaFzFaa6IHUJ0GLN4Oeff14akMa/GLtF5S2iLYAgJ6AEIsAit/3m9XcnUmC3Cvu0/84u9Rjd8+e2T/vvg6WcjgVy8npYrGDKCuBKDOC8ZIBZGo45cpAhHCkgXIchXIjCBVrNQ0UaFGOjqlgIERvGFREFIx0Lo2MTolNEX4Avf6lYLJZVyGZlA3DrGAZw7jLALA3HHPk8hJsFAuFlAsKdGcIhKBVF4QsE5xZxsVis0i1cG3Dz3rJ5BH34fkUGsDMZYJaGY46cHcKtGcIsFotVWgXY7t69iyKaNqaOse0ZwM5kgFkajjk5Lql5AABs0ElEQVQyQ5jFYrFYUoiEUcR4xDPbgGsRHMkAszQcc2SGMIvFYrGyiYes8iUDzNJwzJEZwiwWi8Vi+S8DzNJwzJEZwiwWi8Vi+S8DzNJwzJEZwiwWi8Vi+S8DzNJwzJEZwiwWi8Vi+S8DzNJwzJEZwiwWi8Vi+S8DzNJwzJEZwiwWi8Vi+S8DzNJwzJEZwiwWi8Vi+S8DzNJwzJEZwiwWi8Vi+S8DzNJwzJEZwiwWi8Vi+S8DzNJwzJEZwiwWi8Vi+S8DzNJwzJEZwiwWi8Vi+S8DzNJwzJGDB+FunalVdCTVZwizWCwWq/TIALM0HHNkQPhtAeEWLZtRu/ataQhDmMVisVgsxzLALA3HHJkhzGKxWCyW/zLALA3HHDnIEG7JEGaxWCxWaZIBZmk45sjnIdzUA+GB/kK4kwfCtRnCLBaLxSotMsAsDcccmSHMYrFYLJb/MsAsDcccmSHMYrFYLJb/MsAsDcccmSHMYrFYLJb/MsAsDcccmSFcDJSVlUWZmZlsNptd4ozrWzGXAWZpOObIDOEQFz6giYmJFB8fz2az2SXOuL4VcxAbYJaGY47MEA5xMYTZbHZJNkOYIRzy4nQ0m80uqS7mAIYMMEvDMUdmCLNYLBaL5b8MMEvDMUdmCLNYLBaL5b8MMEvDMUdmCLNYLBaL5b8MMEvDMUdmCLNYLBaL5b8MMEvDMUdmCLNYLBaL5b8MMEvDMUdmCLNYLBaL5b8MMEvDMUdmCLNYLBaL5b8MMEvDMUcOGoS7AsKtWlK9+gxhFovFYpUaGWCWhmOOLCH89lvUvEVTatvOF8JRDGEWi8VisXKUAWZpOObIDGEWi8VisfyXAWZpOObIQYZwC4Ywi8VisUqTDDBLwzFHNiH8poBwEwHhmEAg3NED4VoMYRaLxWKVFhlgloZjjswQZrFYLBbLfxlgloZjjswQZrFYLBbLfxlgloZjjswQZrFYLBbLfxlgloZjjswQZrFYLBbLfxlgloZjjswQZrFYLBbLfxlgloZjjswQZrFYLBbLfxlgloZjjswQZrFYLBbLfxlgloZjjswQZrFYLBbLfxlgloZjjswQZrFYLBbLfxlgloZjjswQZrFYLBbLfxlgloZjjswQZrFYLBbLfxlgloZjjswQZrFYLBbLfxlgloZjjswQZrFYLBbLfxlgloZjjswQZrFYLBbLfxlgloZjjhwcCK9cRl26dqQoAeG69RjCLBaLxSo1MsAsDcccGRB+S0A4onkTatM2hgYPYQizWCwWi+VUBpil4ZgjM4RZLBaLxfJfBpil4Zgj+w3hsPAGab4Qbs4QZrFYLFZpkgFmaTjmyOch3FhAOFpAeEA2CLdq1aK5SyffSLiDB8I1GcIsFovFKi0ywCwNxxw5LwjnGAkzhFksFovFYgizWCwWi1VUMsAsDcccmSHMYrFYLJb/MsAsDcccmSHMYrFYLJb/MsAsDcccmSHMYrFYLJb/MsAsDcccmSHMYrFYLJb/MsAsDcccmSHMYrFYLJb/MsAsDcccmSHMYrFYLJb/MsAsDcccmSHMYrFYLJb/MsAsDcccmSHMYrFYLJb/MsAsDcccmSHMYrFYLJb/MsAsDcccmSHMYrFYLJb/MsAsDcccOagQjoxqTnXqMoSLVOnpRAkJROfOEZ09m934XXw8UWoqUVaWfUsWi8Vi5V8GmKXhmCNLCL/1JjWLMCE8aLAfEF4hINy5C0O4SAWout1EGzcSjR5N1LMnUefORJ06nXe3bkTDhhEtXUp06hRRZqZ9LywWi8XKnwwwS8MxR7ZCuHUbhnDxFQA8ZgxR5cpEH3xAVK0aUf36RA0anHetWkRVqhC9+64J6OPHOSJmsViswGSAWRqOOTJDuCQIKWhEwABwnTpEq1YRHT1qQtbqY8eItm0jatOGqEIFonHjiBIT7XtjsVgslnMZYJaGY44cJAgv9UA4giFcFMIYMFLQiIAB4JQU+yPOKyODaPduom+/Japbl+jECfsjSpaQci+t0T5etxpywP/x3pfWc8FiFZwMMEvDMUc+D+FwAeFWAsL9GcLFTii4whgwUtCIgPMSirQQDX/4IdGRI/a/+idc4AF0PL/OiMKTkwsXAmlpRAcOmM+N4ystwjnGjdjBg0S7dpnvy+nTRDt3mkV5LBYrmDLALA3HHJkhXBIEqGKMF2PASDvnJVRIDxlC9M03JiARLSEtjd/7W6yFQq9mzcx9fvUVUdWqRB99RPTll0Rff21G3evWmWAsLOGYIiOJ+vQxb1RKi3COV68m+vFHswYgIoKoe3fzxgvnhMViBVMGmKXhmCMzhEuCAGFUP6P4ygmEERUiAl6zxoxOAeDp083KafzeHxAjJT51KtGIEUQDBpggLl/eBOCvvxKNH0906FDhRqS4qfj9dxIfUvN1lhbhdeN89+9PNHGieXNUrx7RrFlESUn2R7NYrMBkgFkajjkyQ7gkKL8QhgBaRExIXeKiDQC//z5RbKwJy/yCGPsBzAHjw4eJYmKIPv+caM8ec//4GwrIsN+4OKK//zafB8cLMKgxS7wWPB7/qjQ2Uqj4GdshksP+8bczZ8y/4V+V9kbEi+eB8C9uKpCOxb7V/rEfpGfxePxd7QfHoFK5eB71d/zfmkrP6TjtNxjqnJw8ef6YsS/1XLmdi9y2VZkL3d/UecTfDMM8/5s2mQV5eJ3qfcW/qKhXz41/cSz5fd9ZLJYBZmk45sgM4ZKg3CCMiyrAiIuyvVpaGQDZsIEoPJzoxReJ2rU7n6b2RzgewBxpaOxHCfsD1H7+mei778xq7ho1iKZMOQ/GLl3MVDnS6ygeQ4odY5l4fT16ELVsSfTFFybgW7c2o9z27c00OPaJ7QEfgAjQwXbDh5vAUT/36kUUHW1ug2PE60WqHBDDjQnOBf6OaB7P1aIF0Zw556NI7Ed3nPYiN0Aarw2RKI4Xj2vb1gQiniu3c4HjzWlbnN+c/oYbj7xeA94HwLtfP/O5MWyAfSBrUdjZChar+MsAszQcc2SGcElQbhBGxIQ0cVgYUe3aObtmTXMc9777iJ55hui33/yfvpQThBGlYmwSF30cLyq6cVyo6l60yCwkAhTeeMMEJNKpCxYQ7d9vQuKll8zxTWyH7V94wXwsbh5GjSLq3dssNgN0AUDcXOB1AdIAJ37GfnCjgecdOZJo8GBz3BrAwk0AAIbIEfvCOUBaF+PZKHoDNBFpYj+647SmegEyQPHTT01Azphh7uuXX85H8TmdC+wLENVtC0hu2aL/m7pxyus14P3pKr5i771njpnj3LVqZWZCOnQwj43FYjmVAWZpOObIDOGSoEAhjCYe1aubALj3XhNSkyb5P36ogzDgtXev+RyIGteuJdq3z4zOXn/dfDwiXgARP6OrF6CN1DBSpYAnor4dO8zIHmlW3DS89pq5L0AXsMbYJ6CMyB+wBHhQkKQgDGgCYAAk9oPfAYYoYML2KtWLSBE3BZjOBVBjXjWKnRBpYhvdcap0NQQQLl9ugg4wxGvDe4Nzg7/ldi4Q4QOuum3xnixbpv+bimBVKlv3GjCFDecQwG3SxMwa4DzgtQPIFSsSbd3K0TCL5VwGmKXhmCMzhEuCcoOwk3Q0ILdyJdH33xO9+irRwIHm461QyY90EAZ48BzPP0/0zjtmZNawoRmpAqRIlwKMOAbcFAB0Svg/Kn0RBavqXhwftv/pJ/P4IYAWqWX8DtvoIIz9II2r9gOoIVJEFzHABz8j0kRkiQgaoEI6F8eNCBVpZOxHd5xW4dzh3GIfKtWMfQKaeD9yOxfNmxNt367fFrDPab9qTBiPyek1/PmnmcJ/802zDgDHAgHaY8eaxXTz5/NUJhbLuQwwS8MxR2YIlwTlBmEnwvgjxiaRGkXEhLFNf8eDoZwgjAju5ZfNaBUXfEToGNucPJloxQozGgM0UdRlTYkqmCJCVL8HhAGXRo3M/0PqeX/4wQSzDsL2/QC6iPoBQ3QdA7wQdWMfSGsjIkXPbcBRwUntx36cduEcAvZ4bTguQBPnBOPPAGFu5wJQ1G27ebN5DDn9DQDGzUxOrwHRNt6Ht94y/6YgjPMwYYIJ53nzGMIslnMZYJaGY47MEC4Jyi+EES3hoqtSmKj8ReoUU1iCsbCDDsLYJ9KiiDjRWlNV62IcFtDHjQAea4Wmkh2mkIKwSj1DTiFs3Y8Vwn/9ZYIQ0SCmVeF4cGOAfb7yii+E7cdpFc4xHgvIAajYZuZM83mGDjXHfHM7F4CpbltEt3is7m+IbPH+TZuW+2vA+4D0OyJujBHjBgnnCzcn2A9uRDgdzWI5lQFmaTjmyAzhkqD8QhjQRbSDyl5c+FUKM1gdrawQVqliCPBA4Q8u9CiEwtxkRICAB6CEoiMd3HTQywnC2L+/EMYxYNwX46KIcpG6RWoeGYLnnsuejrbvxy6ADWOviC4ReWJO9qBB5vOgWArjtTmdC9wMIKrVbYt52IikdX/DflFZje1zew0APSrNMaaOaBgRNYrUAGYcCzf0YLHyIwPM0nDMkRnCJUGAD6pdMbboBMK4UKvKXMAg2ML+kd5Gqtg6bQfRFdpIYnqPWs0JBUYYp0WBE6IyRGcoOLJ2uAJk7b9XQMeYJ24kIDwvpt00bWo+r307+88QbjxmzzarndHiEQBCC1AUgVWqZKZ11TQijOMCrrr92KWmCeFG4eOPzXONsWq8T3idKPDK6VwAlLgZ0G2LqBYQ1v1NNVrB+cjtNeCGC48FiL/5xnwMgIxqa0TJHAWzWPmRAWZpOObIDOGSIKQvEe2g+AZVtrlFs6pgqHFjcw6pNVINlgACBT37BR0/42+o2kW0h1QsgICIFGACBPF3a0oc29h/j9+pFK56Dvvz2rez/wypSmJEtwCn2geOD8eGmxTAHedMZQp0+7FLZRewnWGYhVZ4ndhGHW9O5wLHg+fKadu89uvkNajH4G8oSAPccT7t7xeLxcpLBpil4ZgjM4RLgnBhxbggoimkFwFWQA0Xa6vxOFxokYpG1IV0KqLoopCCWU4QK2opUAVDee0rt3OR27a5/Q3K6++Qem78y2Kx/JEBZmk45shBhXDLSAHhOgzhQhcuoIiGMCYMEGMsEGOGALPV6KOs0tCYK7t+/fkWjywWi8XyRwaYpeGYIysIN23mgfAgPyHcqbMJ4doM4aIRYIq5ohjXQxMIwBjFOVar3wHWGBssTYsasFgsVsHIALM0HHPkbBBu3YoGMoSLsZBWRHpZrSOL6lyrAWmM/WHMFOOfnIJksVisQGWAWRqOOTJDuKRKjQfazeBlsVisYMoAszQcc+QCgHANhjCLxWKxSosMMEvDMUc2IVw+Fwg3dwrhWAHhZgxhFovFYpUmGWCWhmOOfB7CYQLCUQLC/RjCLBaLxWI5lAFmaTjmyAxhFovFYrH8lwFmaTjmyAxhFovFYrH8lwFmaTjmyAxhFovFYrH8lwFmaTjmyAxhFovFYrH8lwFmaTjmyAxhFovFYrH8lwFmaTjmyAxhFovFYrH8lwFmaTjmyAxhFovFYrH8lwFmaTjmyAxhFovFYrH8lwFmaTjmyAxhFovFYrH8lwFmaTjmyAxhFovFYrH8lwFmaTjmyAxhFovFYrH8lwFmaTjmyAxhFovFYrH8lwFmaTjmyP5DONwXwi1aMoRZLBaLVapkgFkajjkyIPymgHCTpmESvD4QjnIA4eUrllLHTiaEa9VmCLNYLBar1MgAszQcc2QfCA9kCLNYLBaL5VQGmKXhmCMzhFksFovF8l8GmKXhmCMXAISrM4RZLBaLVVpkgFkajjlykCC8REC4vYBwU4Ywi8VisUqTDDBLwzFHPg/hRgK8kQLCPzOEWSwWi8VyKAPM0nDMkRnCLBaLxWL5LwPM0nDMkRnCLBaLxWL5LwPM0nDMkRnCLBaLxWL5LwPM0nDMkRnCLBaLxWL5LwPM0nDMkRnCLBaLxWL5LwPM0nDMkRnCLBaLxWL5LwPM0nDMkRnCLBaLxWL5LwPM0nDMkRnCLBaLxWL5LwPM0nDMkRnCLBaLxWL5LwPM0nDMkRnCLBaLxWL5LwPM0nDMkRnCLBaLxWL5LwPM0nDMkRnCLBaLxWL5LwPM0nDMkf2GcJgGws1bMIRZrKJSVpb9N34oK0j7YbFKjwwwS8MxR5YQfrM8NW7SiKJjAoBwh44mhGvWYgizWAUtHSjl7yy/x8/K8vc2e/9mle53+LXmdywWS8oAszQcc2Q7hAcwhFmsEJUdhJ6fFWStwPUCONPyf50tf7fuywpj9a9X9p9ZrNItA8zScMyRGcIsVgjLB4BKCpIWYEqgWpypnGGz5/fWx9m39YLZ+jye57Uqx+NjsUqPDDBLwzFHLgAIV2MIs1iBygo3CwC1kawOtOmmM3Kw+rt6jHVbHyBrwCwPx3KMDGNWKZYBZmk45sgmhN8IBoTbCQg3YQizWIEol0jTCkI7eL2ATTOdDqeed5rl/3arbaR1YLZFyyr6Pn9glv8yjFmlTwaYpeGYI5+HcEMB4ZYMYRarKJQNXgq0VlsgqCLdbNBVsE0579RkZ7Zukw3WHijbgZwtKrYeNsOYVTplgFkajjkyQ5jFChHZIaaDrwKvNdK1AjclyeNEomTlBI0tf8dj1XZeMCs4KxhbomSfCBnHzQBmlV4ZYJaGY47MEGaxikg+sPLALFf4WqJdCUwrcAVck+I9dhMlxuXgc5b/u83HSsefh7QCM/avomUVHasI2R4ZWyP4bC/L/jpZrJIlA8zScMyRGcIsVhHKG/Fa7YkwFXxV1JsNvEkW8AK4sIBrAnyWKP4Mkfu0zaeyLBaPOW0+TvqsuR22B5wVmLMB2ZK6zpaqttwweIFseX3mf87/jsUqYTLALA3HHJkhzGIVpWwRpBW+EsCIPj3w9aaZFXg9Ua2E7mkB1hPp5D6cTG7DTXG7TlPctuMUt+kIudcfIPdfBsX9tY/i1giL/7vXip83HCL35qPkFo9z7z5N7v1uch8V25/MkGDGfrF/a5SM51fRsXXc2Keq2hoVM4BZJVsGmKXhmCMzhFmsIpSKfK2pZ1l0ZY1+EfWqVLMHvohcZUT7d6qErnvrMYpfsIEShk2mpLY9KKV2Y0qt8iWlv/ImZZR7ijIfeIgy73/wvP/7MGU88T9Kf+MdSv30G0qp14ySYvtQwqjp5F62neK2nxBQjif3sTQJeAlkT4TshbElTe0dM/aMF+O1eOHLEGaVbBlgloZjjswQZrGKQCpC9KafNeO+Mvq1RL5IFcvUMSLeAwKQW45SwqT5Aro9KfXrapT+7EuUedc9lHXzrZR1/Q2UdfU1lHVlWaLLLye69FJfi99nlS1LWddcS1k33EhZt9xGmffcR+kvv0EpP9alxC79Kf6P5WakfDBRRMiZ8vlVdKxgrIq47CBWRVvW9DSLVQJlgFkajjkyQ5jFKmDZIaSLfq0AtsMX0Is/I6Le4+kUt+csuRdvpsTuQyj1mxqU8dhTEp5Z115HdMWVAq6X+cI2P77sMgnurOuup6zb76QMAfaUag0osf9ocq/ea0bdJzKyRcYpCWa0rouKralpFquEygCzNBxzZIYwi1WI8o6VqtSzpfhKpZ4BYKSeATnADtBz7z1H8fPWUlKb7pRWsbIZ8QK8l1/hC9Kg+TIJdkTVmffcT6lVv6LErgPJvXy7mao+ZaapZVQcnz0q1lVQq8ifxSphMsAsDcccmSHMYhWSFIDV/Fpv8ZUFwNlSzyi2Qhp45S5K6tDXhO8dd1GW+NIiYvWFZgEaEfI111Lm3fdS6sdfU2Kf4eTedJjcR1IoQUTp3qjYU7jlnV/seY0q6ufxYVYJlAFmaTjmyAxhFqsQ5I2APRBW8PUpvgKAPdEviqNQaJX6VTUJvyKBr90Kxvc/SCk1GlHChD9lZXX8qczzUTHGiq3paVv1NIOYVcJkgFkajjkyQ5jFKmBZi7B0AJbjvyr9jLFfTDNasZOSozpR+rMvyqKpIoev3SjquukWWV2d1KkfuTcfkZXUKirOBmL7GLFnnNjnHLFYxVMGmKXhmCMzhFmsIMsOFGshlhoDRrrWGwEDwJjvi/SzEUfxUxZS6o/15Lgvobo51ACsjKj4qqsp877/UnLDlhQ/fz25DyXKIjIFYu+cYvsYsRofVv+yWMVXBpil4ZgjBxXCEc0ZwiwWZE0/e8eBMywRsKf5hirAkuO/e85Q4rAplPrhZ7LimS7LYWpRqFlExZm33ymrteMnzZdNP6wRsbVyWs6BtqWmGcKsYi4DzNJwzJEVhMMbCwhHBwLhDh4I12QIs0qxrEBRkZ6lEEsB2BsBKwDvOkWJ/UdRWvl3QzP9nJcRFd98K6VW/oISRv9B7n3nzoM4/jyIMX0JILampa0QZiCziqEMMEvDMUe2QriVgHD/AQxhFisoUmlobyW0pwraHgGjxWRi3xGU/kp5c9pRcQOwMkB8402U9n5Vs/MWUuvi9SVZxoitrS6zQZgjYlbxlQFmaTjmyAxhFivI8qahPSloOQ6spiElm0DyRsB7z1LiwLGU/upbxRvAygrEH35KCePmkPtAghwjVk09kAVQDT2s48NcMc0qxjLALA3HHJkhzGIFWXYIW9PQshGH29MBSwAKqdu0CpVkh6piD2BlgPimWyj1s+8ofsYKcy6xZ/qSbOiRYhamKRDbU9IsVjGTAWZpOObIQYRwWwHhxgxhVqmVN6LzQEUWY1macahOWGjE4f47jeJnr5agyrrx5pIDYGWA+NbbKaVmGLlX75HznmXPacv4MM5LbuPDLFYxkQFmaTjmyL4Q7ssQZrHyIys4FEis48CqH7R3HPhUJrk3HaGU+s0o67Y7Sh6AlS+7XDYZSY7uQu4dJ2T63VsxrdLS1vnDDGFW8ZQBZmk45sgMYRYrCPLCw5qGtgAYUbB1KlJSlwFyfm2OKxyVFF9ZltKfeZEShk6QKz8lnLG0t7TNH/YBMQOZVTxkgFkajjkyQ5jFCpY8AJYQ1qWh0Y7yaAolTF5IaW++Jxtd+ECrxPkyuQCEHB9esoXij6fLdLxc8ME6bckDYa6SZhVDGWCWhmOOzBBmsQKRBxhqPFg15VDFWD7V0Fv/ppT6EZ5mHCU0DW23eJ2Zd95NSa27mX2mMX/Y02NapaVx06KNhlms0JcBZmk45sgMYRYrCJLgAIA9Y8HeKNgzJ1hGwYeTKPGXSZRR7kmiKwpyCcLQc9ZVV1H6GxUo4ffF5P47VUbDOC+6aFgBmEHMKiYywCwNxxyZIcxiBSgVudmnJPlEwZuPUMqPdSnr+ht9IFXijWj41tspuVlrcu886S3SUmsQe6NhBWEGMKv4yACzNBxzZIYwi+WnrGlT/OtNRaMgy7M4g08U/OCjJb8YKwdnlS1L6S+/QQnTlshoGFOWZEtLWwMPHhtmFTMZYJaGY47MEGaxApSCsb0xR7YoeNtxSqnV2OwLrQFUqbAnGk6K6kRxe85SvKVSWkbDqouWp4GHOrcsVojLALM0HHNkhjCLFaCypaItUTAgbDbmSJVjoRnPvEh05ZW+cAqWUeglvtB0/fVENwrY33AD0VVX5V4AhuOxPv6aawo0UkdFeNp7Vci9Yge5T2Zo5w2rsXVOSbOKiQwwS8MxR2YIs1gByBsFewqysi3S4Pakoo04SmrbQ3aQwpQdO5gCNiALeD70ENGHHxI1aEDUtClRo0ZEb79t/s2+DQwAP/44UZ06RM2aETVuTPTll0RPP010000FA2NEw3ffR4kDfpNrD2cr0NI072CxioEMMEvDMUdmCLNYfsgLCBUFW6qivQVZAsJuT0FW6qffUtY11/pCKVADwIhiP/mEaO5cokOHiI4fJzp6VFwaDKJRo4juvNN3OxjbhYURbd1qPv7YMaK//ybasIEoIoLonnsKBMRIySfXbSaXb0RKWk5XQvMO1crSCmEGMSv0ZYBZGo45MkOYxfJXnihYpaMBYURzKZbxYPexVEqYuogyHn2iQIAmo9yqVU1wJognPXGCaONGohkziEaPJvr+ezPdbN8OLluW6OWXiQYOJJo+nWj5cqLDh8WBCyIeOEAUHU102225p7P9cFbZqyi9fEVyr9pF7pOZOaakrQVaHBWzQlgGmKXhmCMzhFmsAGUtypIQtlRFxx+Ip6SuA80e0RogBWTAESnoWbNMAO/aRdSkCVG5ckR3321GwNddlzNE8XuMGd9+u/n4Bx8k+uwzogULzP3t2EFUsaL5GPu2gRgp6Xvup4SR08h9JNmskgaEbSlpnq7EKiYywCwNxxw5uBCOaEw1GMKsUiR7UZZ1PDheQDhu12lKqdO0YOYGIwr+/HOiI0eITp8matmS6K67/I+4AWVEzZUqmUA/K15Ajx5Et97q+9gAnXXzrXKc3L0/7vwyh9bVlSxTlVisEJcBZmk45siAcHlAODxACMcKCDdjCLNKkRSAJYQtU5POrxlM5N7yN6W9X7Vg+kTffDNR69ZEZ8QT7dlD9Mwz/gNYGSC+916iCRNMCM+ZY44N2x8XoLF+ckq1+ua4sIIwpirpxoVZrNCWAWZpOObICsJhAsJRrVpSv/4MYRbLmTxjld51g1WXrETPeDCWLFy1mzKe+F/gcNQZEWrPnmYUvHIl0f33+z7GH2O/iIAB91WriO67z/cxAVpOVXr3I3mTIouzVPcsC4RVOppBzApxGWCWhmOOzBBmsQKQNx2taVXpPp5B7nnrzCULNSAK2IiE27Uj2r+faNo0c1zX/hh/jOlJkZHmfgsoEsZNScaTz5L7L0NWkOdYnMVjwqzQlwFmaTjmyAUA4Z8YwqwSLxWdZZueZIGwbNJxLI3ipy+V82J9IBQMq+rmTp3MsWEUYdkf448xf/jZZ4k6dCD6+uvg7dfmzAceJPey7TJjoIOwtzCLxQptGWCWhmOOfB7CDQSEWzCEWay85J2WpNLR9spoD4TjjqZS/IS5lHlXAUSSMMZvr72W6I47zDm/gDIAGqixH7VfdNEqiFS6cOa9D5B70SbZOUuuMeypkGYIs4qZDDBLwzFH9oVwH4Ywi5WrdBC2VkZjehIgfCSF4kfPkGvp2gEUsAFGTEF68UWi114rGL/6KtFzz5lp7wIAcea998t0fdxxC4StkTCKsxjCrNCXAWZpOObIDGEWK7+yQlg3PUmtnHQkWc6FLRAIo3iqc2dzKhEabBSUN28m+umnAklJSwjP+Yvcx9NzhjAXZ7FCXwaYpeGYIzOEWaz8CkBwAOG4w8kU/+vvBQNhdLLq00d8/Q2z3WRBeft2otq1c+66FYAVhOM8EEYaH93GdD2kGcKsEJYBZmk45sgMYZuyMjPFlz9DXFTT2KXImenplJXhMP/pJBJGYVZBRsIYu0WHq48+MrtcFYQ//ZTo/ffNtHdBpaP/XGtGwnHBiYSzxAPxPuL9tL/H7JJrvN+4buP6XQQywCwNxxy51EMYb1pqQgIlnDhBZ0RUcXzLFjq8Zg3tX7qUjMWL2aXA+5csoUOrVtHfGzfSmX37KF5EgCnx8Tl+ob0A9tinMMubjk6hhN9mFgyEYYARSxeic1ZBOa+lEAOwOSa8ntwnAhsTxsU3OS6O3EeP0qndu+no+vV0cOVK+b7a32t2CbR4nw8sW0aH//qLjm/bRucOHqTEU6coLSlJ3pQVggwwS8MxRy61EMabkyoutPjSrhs+nCb/9BP1LleOOt1+O3W85RbqcNNN7FLkjjffTJ1uu416PvQQjRER4Mp+/eiE+EInnzunhbH6bucK4b9TKX7i/IKtjgYog13FrNYlRgSMqutg7ddmszp68/lFHBLzN0UJ8E08fZqOrFtHizt1opGVKlH3+++njrfeSh3E+2l/j9kl2OL9xnW7s/gu9Hv2WZpWrx5tnjCBzh44UBgwNsAsDcccuVRCGOkLvDlrBg+mIa+/TrHiAhZ9ySXU8h//oObi+dml1y3+7/+o1UUXUbtrr6X+4su8pHNneaOWnpKiJYI3Ha3mCSd5mnWgOhrzhP9YXnDzhAFKLLAwYoS5JjBAbH+MP0b0i3WIsQxieLjZvMP+mCA484GHyL1iJ7lP6Zt15ARhXFDTEhPp2ObNNKdFC+r96KPUVhxz1L//Ld8/+3vKLkUW3Gn5z39SjPh8AcojP/xQwhhZEty0FZAMMEvDMUcuXRDGl1fcFSH1OPbLL+UdVOS//iXfOJ83k126jS/zBRdQ++uuo1GVK9OeefPMFLWNCjIS1jTrkB2zTmSQe/4Gyrz/QR8ABcXiIkMdO5oLOGAlpWB1tsKUpJgYc78LF5q9pO2PCdRXXEHpz7xA7nX7KV51zMopEraccpz/pDNnaIu4sOIGuo2AL988s3VuIb7DuKFGdDy9fn2Zqs5ITdXf2QUmA8zScMyRSw+EkX5OSKBdM2fKLy/ulPAm2d84Nttq+UW++GLq98wztHXyZEqJizsPYjUm7ImG0fPYCmHAxb16r4QNoOMDokBt7fG8Zg3RAw/4PsYfY7+9exds72hx4Un74GNyb/X0jnZnhzDagNp7R+O8J548SWsGDaIeDz5IURdeyDfQ7DyN7AgyJaOqVKEDK1aYWa3gygCzNBxz5FID4fTkZNo7f75MMSJtxV9edn6MjEmfxx+nbVOnylQoJAEBUFgrpJPNhQgAFbmK0tZjlFr5CwGda3xAFLCRJo6KMhdwMAyzcUegsMd4MBaC+P13onPniGbMCF5Paouzrr+BUmqHy6UecZ4wjq6WMsR5tFZGq5OdfPYsrR44kLqJyBwpR/t7xGbnZNxMI/AaXrGiLNxDNXUQZYBZGo45cqmAME743xs20LAKFajVf/7j8wax2U6MyGvQK6/QodWrKTMtTX62FIizTVNKNJfmk8VZe85QcsOWlHVDAYyrYkwYU5QOHjSXHUTzDkTDmL5kf6wTowALKW70iz5wwIyEY2PN9LT9sQE665bbKKlDH3Lvd5vrCesgbMka4iYaWaxejz7KAGb7Z8Gk1uIzPuHbb+UsCF3BpZ8ywCwNxxy5xEMYKaz4v/+maXXrUhtxceIImO23cTctvsSopHcfOeJNS8uUtL04S80VPphAib2HU+Ydd/mAKGAjakWqePx4org4s8NVt25mu0nxHZRjuYiWc6puVtXViHQR/T79NFGDBkQiUqAk8SLEjatsX4le0vZtA7F4XqwslTB2NrmPpmTvG22DsHRGpiyOG/7uuxR10UW+7wub7dCIiFGIu7hjR0rCjWtwZIBZGo45comHMPL/O2fMoC533cWVk+yAjS9x59tvp22TJ1N6UrIXFDkWZx1Po/iZKynj6ecCTxXrjErmt94iWrLEBDFSyIiMAdIFC4gaNzanGdm3g1V1NVLPGFPeu5fo5Elx9yAOfudOInHjKiEe5HnCci3hipVlUZa3MlpTlCULsoST49y0vFdvWSTHN9HsQI1MSp8nnpDzioOUljbALA3HHDnoEK5eI7QgjCh43FdfcRqaHTTjszT288/JLT5b2YqzAGFbSloWZ239m1K/qUFZ1wa//7J3JaXy5c0pRQDp0aNmZfO+fUQjR5rzfe3bwYBzWBjR1q3m47Ed0tDz5xN9953ZGjPIAIazbryJksOjZapejge7baloVZSFc5qZRafFaxrw0ksUecEFPu8Fm+2PkRXF9DZU2gdBBpil4ZgjSwiXDxDCy5Yvofaxbalps9CCMO5yMH7X9Z57OApmB834LOEzhaluGWnpvsVZqn2lZ1w4fr+bkjr1o8zb7yoQqMl9ImV8113mqkcffmiuL/zxx2aKOad0MiJzpLPV46tWJXr9dTOVjQUbCuhY0aQjcdhkch9OMlPR8b6paFUZjWzD1kmTqIO4YeAomB0sIxrGjIfTGBu2Fh/4JwPM0nDMkRWEG4U1oMgoAeF+JQjCKW43rejTh9qKF2l/E9jsQIwpD8t69pSfsWzFWdZxYU/TDjeadsxeTemvlKesnIAYLAOsSFFjrBfp5rxS4NbWl/gXRV0FAV+Ps8TzpFb5wpOKzr1TFoz2g9MbNqQYcUz294DN9tuCT+iytXvOHHPucGAywCwNxxzZbwjHdmiT3KlzO1q5cimtWr2MBg8ZQD17dpUbhgqE0Q96wnffUfTFF/u+CWx2AG510X/ot08/k8MdCsKwz7iwJyUdt+MkJTeKpKybbvEBU6kxouA77qLE2N7kNtyUoFLRiWb2AKn87Is2IBW9T7Yh5IpodrBtvZEOUAaYpeGYIwPCH31Uibp260Q/9+tN48b/Rvv376FBg36m2A6tqUOHts1cOk2bPjFt3boVtH37Btq8eS2tXbucVq1aTHPnzqCHHnooJCAcd+QIDX3zTXNSv8v3TWCz/TVS0j3++6Bc8APVu9aUtHdc2NpHGisq/TaTMp58RkSnfk4hKuaWBVlvvU/uuVhDOE1mCWQqGssXalLRackptGP6dNnZjlPR7GAb05XmtGwZjHFhA8zScMyRAeH6DepIfv7113LJU3B1w4bVtGLFIho6dEALl07FAcJYTQNVcNzWjl0QRrXu+pEjZfMOa0paFmjZq6RlgdYxSqnXTETDNxdoyjckjSj49rsoKboLxe0+I6LgLG8UnOqJgmUq2jI1CRdHXCRbX3GFz7lnswN1tPhc/l67thzyCFAGmKXhmCOXaAif3b9fTk3iu2h2QRiLfkz66SeKP37CC47cCrRkNDxmFqU/9zLRlQU8NhxiRsewtPeqUPzctXKMXBVkyapoNRZsiYIpM0susjL49TfM/u6a889mB2IMU47/5hs5bBmgDDBLwzFHLtEQxvrAWJrQfvLZ7GC4xT/+IZc+xDrEmekZXhBnK9Cy95LefoKSI9qKqPDO0hMNX3Y5Zd5zPyV1GUDuveeyR8GWgiyV0sc5xPz+XbNmUcdbbuWbaHaBGFMNx335pbiJPm5HR35lgFkajjkyQ5jNDsBtRYS3onfv7FXSngItaxtLbwctVEr/uYZSP/qsYOYNh5rFjQbS7yk/1CX3WsNcO1ichxTPsoW6gizMvU44cVKuCYt+v/ZzzmYHwwzh3N3V/ir9EUOYXdBG0R96kmPoA40lsqWkPc07ABtvP2kRBbqNOErsN4oyHn+6xBdpoRgr/fUKlDh2ljkv+Ky4IXGbU7iszTmsUXBGegYdWbuWej70sMw22M85mx0MF3sI+05R6k89e3YJqSlKDGF2QRttLDuISG/T2LFyrepsBVq6ecMo0jolQLztGCU3b0eZd94j07V2eJUIX345ZT7wECV17kfu3aflDQhev4qCZRraVhENJ587RwtjO1CbsmV9zjebHSyHEoTNKUod6ed+vWjc+NHOpihlb9axmNrHtqGmzcKpeo0fGcLsUmV8mcd89hmdO3TofDRsGRtWaWm1sINs4HEindzLtlHKj/XkikIlbnwY48B33E3JjaPJveXI+cYcnu5Y1jS0NRWdmZEpF1/v/8KL3KayGLuFxy09Vj/bH1eUDiUIly//OjUKq0+RUc2dN+tgCLPZphENd7z1Vto8fvz5aBhAsaalUzHv1bbM4ZFkip+2mFI//rpkTVvCOPBtt1NKtfrkXrKV3MfTs7WnVADOVowljLFgrGyzqGNHanvNNVyQVQwN4EYKRwlH29zK8zcFZfu2hW2GcO7uan+V/oghzC4st7roIhr50Ud0xjM2DGUbH1bRsKWTlhwfPhBPCWNmUtr7Vc01h4s7iAFgEdmnfl1Nrh4lp2VhvWB7NbS1GEtFwenpcmWbPk8+WegdstB8pdXFF8ulKmOuKACL/UaLcyOnW5XAmwtAFYCNFm4n3Fm4u3Av4d7CPYW7CMcKx7hMSAPG9v0UpkMFwteIG86gQrhmrWoMYXaps1yn9MYbafWgQXLpPanc0tJq2hJAvO8cJYz4Xc6jxQpDxRbECsBf/kjxUxeT+2CidjpStsYcaixY3LhgvvWsZs2o9RVX+pzfgjYaN4z48gua0jicpjZrGnw3bUIT6tahno8/XuLmPQPAgGobYUEiGig8Rnia8GzhP4VnCE8Q/kW4h8sEdStX0YI4lCD85lvl/YfwwkXzaOWqZQzhAI2LOO7G8a/9b+ziYYxh9n/+BTq6fr2M6lRaOlu1NNLSatqSdf4wQDxqOqVV/oKybr61+IFYRHpZt99Jqd/VooTpSwWAE7wAxuv0aU2pirGQhhZKT06hXbNnU/f7Hyj8DnfiO9f+5ptp7R/TadfGDQXmrcuX0RQB45gS1AFMRcAAMOA6WniZ8BFxTuOFkzxOFD4jvE38barwzy4zKm7l2Yd9v4XhUILwWxYI9x/Q1wPhyDwgHFY/AQ+YN38OQ9hfi3MUeeGFcvyr4513Upf77qOOd9whfy6paSsY006Q+mt9VVlqd/311F5EkHDb666j1ldeSVEXXaRdelKmDMUXp3VZ23bXi+3Kiu3+o9+u0CzeLxz/jPBwudawTEt7IKwDsbdQK86Tmt7vpoTJCyj125pyoQO5wpEddiHny2T3r8y776OUek0pft46ORUJEb69EMsKYG8EDGdk0MmdO2lkpUoyre9zXgvayGJgTH/xItq/b2+BeffmTfRHTDTFXFn4kX5BGZEs0stIPSP63SwM+GYIk81ZwqnCR4Vnisf1FW7rMqPoogBxqEJ4wMCfJYSjWjXPHcKNGtWLwwPmzpvNEPbDiHgxRtT/1VdpQb+fadOC+bRl6RL574K+fanvCy9Qq0suKVGRMQAZfdml1OX++2nEF1/Q7M6daOX4cbRhzhxaN3MGLR89mv5oHUNDK31AHW671YSxeP3yXIlz0emuu2jEp5/Q7A6xtHLcWFo/exatmzWTVoz5jWa2a0vDqlSWNzEAfFGdN7zGzuKGasOoUZTqjvempFWhlkxLe+YPq0KtbBHxoUSKX7CRksOjKPO/D8t2jyEbFSP9fN31lP7085Qc04Xca/eJm49UCWAVAcu2lPbe0JZCLNyooG3g3OhoaicuRkXyvpVhCPtjlYbu4DLTzGuFEfECtnYAW50ufFgY6eluLhPiRZGWDjUIh4WbEB44qF82CLdoEdHIpZMdwrECws0izkP4HyLacWme0KG72l+lPwpVCONCg2hueJUqtHbGH7Rn21bav3eP+WUV/+7ZuoXWTJlMg995RxZ0FMmFKchGoU3sLTfTmGo/0erJk2n7mtXyde7btZMM8ZqNPbtp384d8kK1bcVyWjp8GP0iIiNEx+1vuolGff21AO842r56Fe3ZstncTmzj3U78btuqlRLkv376KbUT2xVVowdkMQaIm6hDK1eK6C9NfhZVWjpbRJxmpmkBKgDLrJrOkl213JuPUlK3QZT29gfmFKbL81gXuFCN6PdK2XoztcqXlDhwrGzH6T6ZIaug5RgwUtAaAEsIe25KAOHUhETaOmkydb333iJ7v7QQFp/Jfbt30d7t27TG5w+PwWd3747tPn+XFr/H33OCsBx+stjnuELcKgpG0dXvwqcdAFg5RXi92GaQyxwfRkrbvv+CdqhA+Nprr/VCOKpVC+cQbuiB8Jw/Z9LqNSu8EK5dpzpDOBfjy9b22mto9Dff0MZ5c80vs+auGWBBdDisahUJ7OIMYgC4ywMP0BwR+QKUOb1m6wUQF7BNixbKyPjPbl3leJqT7XDekFGY1qKFiKZvK5oLu3ivUOgzXtw4nNqzR4DXM/CpA7EaI04ywSVBjHnEJzMpbs8Zip+ykFLqNqWMh8vJqLPIo2JxM4DisfRnXpQ9sOOxLOF+t4zivQBGEZYCsGZxBgVgLKZ+UNyoDH71NTks43MeC8saCOOztnH+PFoyZAgt7N8/mxcPHiy/m/iMYqx36bBhPo9ZOGAALR810rzB9uzTCuGWF1wgh6A633cfdRY3IJ3E//GZKU7fc4ATAAVI1wgDrHbY5uRM4ePCGEPu6CqaseFQgfB1ImB4u8JbXggPGtxfQjgyKiJ3CNdvUPcEHjBr9h+05q+VFNuhrYRwnbo1GMI5GABud8MNNL5ObfGFX0yGuNP2AYnF8kIwbx6N/vZbAe5ri+XdMiCIFPG8nj1o5/p12SKDvIwoFxcuRMz53Q4R8/RWreT5LorzhotpO/GezWnenNxHjkgQW6NhOFtq2jJ9CWsQo6EHwBZ3NEVGxQkDxlDqV9Uo8977zZ7ThT1efIWA7w03ipuBxyilekNZRObecdzshW0Z/1VV0LlGwISfM+j41q00uurHFH3JpUVb/1DGF8L43M0QN4AYAmlzzTXZ3EFcUybUq0c71v5F62fNpG4PPeTzGGRw+jz7rLh5XJ5tnwrC7cXnctWE8fKGEV47fRoNqfiuHILxOb4QtCrIQnHVcOHdZcw0sx22uRljx1NcZkV1tKvwU9KhBOEKFggPGTpQQrh5iyYSwk2bN67t0qle/dqH8IA/ZkyltetWeyFct15NCeF/iujHpXlCh+5qf5X+KJQgDBh1EF/0qc2ayS8mQGGHh84A9eYli2lC3bqyCKkogOK3xZes9VVXyYrQHX+tyRdIAzWeC+f5t++/lxGGz7EVgvFedRLv+fLevSnh5EnCNBwVBcpo2JaaRtRoTU/Lgq2zAsZoc3kwgdxr91Ni3xGU+k11yvzvIzIizSp7VcFFxxjzvepqWa2d8cT/KKWGgO8vk+RNgftwcrboV47/Jp6Pfn3GgC0Axg0JvptTa9eWrSmLPPor4wthRLhTI5ppK5lRn/DbDz/QdvGZRl0Cph2hutrq2FtvoZ9ffom2rljh3acVwrG33JLt+QD0kQIIqGewP18o2joePFL4QBl9MVZuxvgxpi6hqCvaVXohfP3119O7FSt4IfzLsMECwoepabMwCeHwpo1+culUp17NvXjA79Mm0/oNa70Qrt+gNj344IN0wQUX+DxZPtzV/ir9UahAGOnYTnffRTPbtpURmlMAK+PxW1csp9+bR8gUa6FP4fDTGBvt8/xztGHe3Hy/5mAYmQSMP3cVN4VFkpYWxnvV7b77aO0vv8hF6rM8JPJWBmtAjIItpHNVevo8jDNNGG86Qgm/TqXkRi0p/Y13KPOue2WjDwAz4D7USDeLSA4dvLD8YNq7H8ke1wnj5pB769+y8hm9r2UDDmv0a00/KwCrqN8G4HMHD9KfUVHUXlx8QuKm0k8I71i3lvZi+GPZUrltdi+W31mMK6t95gnhr74qNhCGEQm3d5mR8J4y/kXCmK5U2iPhG264gSpWfMcL4eG/DpWRcOMmDQHhrLCwet+4dKpdt8ZGQHjK1Am0YeM6NJmWEG7QsI6E8L/EBdileUKHLjEQBoi6/vcBmtu9G+0UX1p/o0GZYl2zWlYBd7777kLvKOSPcQGbFhlJuzdt9Hk9hWVc3MZWq1Zk0TCM96qH+E6gYloHYm9EDCsQe9LT1qItL4xRRS0i0bhdp8i9eAsl9h8tgBwpu24hXYzpTVm33CrTx0hdo8IaEXOWuPhnXXGl+S9+xu+vvd6MqG+5TS4mgZWdUGyF8d7EYZPJvXo3ufecJTfS4oh8z5rHoeCL45PpZ130a4GwGf1n0tkDB+hP8ZnocNNNoQFgOAAIowZh28qVtHXZsuxevsy84S7BEAY0McVooPBfrvyPCZ8oc35MuCimKYUKhG+88UZ6//2KEsKtolvQiBHD6MjRQ/JnQLhug1ofuXSqUavaIkB44qRxtGnzBurQsZ03En744Yfpwgsv9HmyfLj4Q1h8wKL+/W/q8Xg5Wjigv/xS+wtgZWwPkM/t2YO6PvjfkO+8g/T56smTskUDhW1UqS4aOMDsRaw5xsIyGnn0FN+LdcOHU+KpUxJIABNkBbGKinOEcbwZgWLMOOEMFoLIkNOa3HvOiAj5sGwVmTh4PCW160kpDVpQ6jc1KO3DTyn9zXcp/aXXKf35Vyj95Tco7c33KLXy55TyXS1KDm9FSR36UoKAbvzcteTecpTce8+aUe/JTIo/Yz4f4IvnV1OPvGO/ttWQ7AVY8vWJOwy09JwdERFaAIb9hDDS0SiuHFD+DepRrlw2I0U99IMPaJsAsdpnSYQwqqPRpAPdsdCMw2l1NOYLb3KZAAfIS2t1NKby3iS+D5UqveeF8KjRv0oII6AFhGvXrl7epVONmj+NA4THjh1F27Ztpo6d2gsIN5YQfvSxR+nfAkAuzZM6dPGGMAB80UXU97lnaemIX+X0Ge8UpAANEOMCsWjgQLMFXlFWleZijPOh+nPzooU+r6EwjfO14c85cpqT/RgL24iIu99/P63q108288jK8BRrySjxfPrWC+IcYKzmFnujYwBZRciY3nRIwNNwm2DeeZLcW49R3OajFLfpCMVtPGz+i5+3id/vOCmrsFHhjOgaqzvJsd6z5n4leD1jvsnWyNeeevbcQCgAK/jCGalpdHLnLvqjURjFFlGhXK7WQBjZmz+io2URFmYnWB178800vk4dZ4VZK/SFWSUBwmpcGMVZQ4Ux5QjdsfICMcaOjwlPcvE8YUD4ZvF5+vCjDzwQbkljBFOPHD0oi5wB4WrVqj3s0qlWrWqtAeGRo4bTzl3bqJOAcETzxpLej4vo7z/iBbo0T+rQxRrCcixUfAFXjh2bfQ5wsCz2B7Av/XW4vOvGdAf7MRS1caFFBzBUfvocfyEbFzsUxRVpBa7HGCPujGrxmBj5+cxIS/d+XrOlp22RsSx2ygnGCsgwgKygDJ8x7YZPn7f8vfrX81gJXVvEqwquMOZrha9KPXsBbBv7NV9PFqUlJtKh1atp7BdfyGxEyAEY1kAYaea106fT7E6daEabNtk8u0MHWjV+vPxuA56YQmd/DOo/5vfpbd6Ae/ZZ0iAMq2gYMEXHrB1lzDaVOhDjdxg3Rhoa/aS5Y5YJ4VvFZ69KlQ8pvHEDio6JpAkTx9LhwwdkUVat2tUyq1at+i+XTg0b1o3Cg4YPH0J79u6iTp1jZUk1IPzkk0/SxeLD5NI8qUMXWwjjIoMIcMkvQ7PNEQy6AWLxpcYXPRbpvRAAjNUSwiLqCxUI4yIbChCGcW5QlDTpp5/o6IYNnuUPz69DnC06VhGmPTLOAcjelDWmOcGeaFla/d/yL+At7dlGQVdFvF7w5gBf+9iv1yLKTzx9mrZPm0aDX3uNYi4N4TmwGggjg4LvFyJZFF5ZrcZ7MeUO48K5PaYkjwnDaqoSYIq09G8us3MWGndgjDjNA16knxOE95UxK6L7u873ji6KKBgOFQjfLhj18cdVvBCeMmUi7d+/V0K4br2ama6c1LRpmITwkCEDyDD2UOcuHahFi6YCwnXp6aefpkvFl86leVKHLrYQRqvJ377/ThZRBT0CttszDeeXDyuF3PxCXHDRgMB6oSkKy3T03D9DIh1tteyadvkVNPTNN2nblClyChMWtJdCNOmBsNU5AjnFU1HtsYSyB8wSzlZ70srKCrjKErrWiFeBV5d2tqWezePOkk048N1b1r2HHAePwpBJqAIY1kAYjTjQUhXT6ybWr59/N6hPf7RuLYeO1D5LKoQB0VYuE6pYtnCUy1w9aZ3wbuF9wluFFwmPFx4g3Em4tcsEeFFEwXCoQPhOcZ389LOPBYQbUuvWUTRt+hTas2enhHDDRnVzhnBkZISEcP8BfejgIYO6dO1ILVo2xUb03HPP0uWXX+7zhPlwsYUwUm4oBEJBkB0IBWGku5D6wsIB9mMpaiNC/2va73k2JSlI42K6ZNgvstmJ/fiK3OILCEB1v+8+mt+mjVzEAFGxWo9YSsE4K3uKOhuQPTC2pqytVnD2se1x2VLNFvBmSzmriBf3C1b4Eh6TKau/9y5YQGM//1yO/xaHKn4dhCUwc2jW4cSlYUwYBoDVMoZYQ7ify1xJ6Q/hxcKrXWY3LaysNMdlQhgdtpC+ti5nWBQgDhUI33333fTlV5/JKUmt27SimbOm0/YdWySEw8Lr5wzhmJiWkXhQr17d5Jymrt06UcvIZhLCL770ApUtW9bnCfPhYgthVARjUYHCmhcLyKDPcihCRq4o1Ka1vPjYj7uwjJQhGp1gsQz78YWKMU6MxQuGvfMObR4/gdxHj8poEs09pDyws6apcyzk8kBZWc49VraAWsFW2QpdO+i16WYrfMVxpsYn0Mldu2hJly7U69FHKboIF9HItzUQRpe2hf370dAPK9GAN8vn2wPfeotGf/etbFKj9lnSIKwiYMAUqehfXGYPaUB3vzinp8qYc4Hhc8J/CyMinusyQd3HZTb7wJhyUUTEoQLhe++9l7759ktq0qQRtWkbTX/OnU0bN62TEBZgzhXCLfAgVEWju0fv3t1JRMfUKKwevfbaK3T11Vf7PGE+XHwhfPPNhVoRvG/XTlo1YYJc2s9+LEVtVG4PeON12QM60OlZ/hgROHr8yuK1EI/IACxMaUPR1tRatWjfwkVydSEsAGGdV2z+x7SCobeQyx4p24BqBbX1b5ifrAVvDtBVxyELr0Tkju/ZX0OHytQ6WnUWl2YyXmsgrFqmIpLdijHe/LqEjwkDwNEuE6JYG3iiy0w/nxTnMrmMOQ6MucAoxlJGVTTGiAHlvcKzxOOHCHdxFU1qOlQgfP/999MPP35LTZo2orbtYmjR4vlyUSQPhNNdOallVPPGeFBM6ygJYayBiGWYAOHyb74hV4ZwaZ7UoYs3hAtxHBQQXj1pouyRbD+WIrf4gCE9jwsPItICHyO3GNDHRXBivXrauZ6hahRtoYgJU5n+CAujA8uWUfyxY5SekiKhdx6A5//1sYpcbRGziprtv7f+XcHXCnmf5xPUTnG76ez+/bRpzBga8cEHFHvjjaE/9puTdRAW8Ny2cgWtmTKFVk2c4IcnyhXSkKlS+ywpEFYRMACM8V0UWhke+AK89qpou1WVNIq3Vohtf3WZXbNURGx/voJyKED4/8T3Hc2tqtf4UbapbNe+Na1YuZQWLpqn0tFJrpzUuGmjmpjDhAYdSEcP/WUQtWrVQs51euedt2UrLpfmSR269EBYwALjx4CUrLhEKzzxs9PIMaQh7DLnxqKxyOLBg4I6XzpX7zXnUmPqiFxJKRSnxeRhHHPryy+XLS+nVK9OO6ZPp7MHDlJKXJyIYtPl51uB0fp/LzitEFU/q+g20/K7HB7v3bf391mUnpwsG40c27KFlvfqRcMqVJCNNxDBF5vUs84aCAOYM9u2kSsctbvh+nwbw1JYE7ykjQmrucFIQSMCBoCPljEjXDts8zKA7RZG+nqYyyzWinYVXrV0KEAYaywAwrXr1JDNrtrHtqG/1q6S48KAcIOGdY67clKdOjUrAcIYA0Z3D3T5wERjQPj9D96TXUAQars0T+zApQLCarWfRQJQY6tXoyHvVaTffvieFg0aKKurnYwrhzqEYcyb7vXEE7T011/lWFuBghgA3rRRdinrKj7coZ6GzsuAMTo0dRSQGP7uu3LMFfNusTJT8tlzcuzYSmMvdC1ScLXbR7bfo6sX5vkmnDxFZ/bupe2//05/NGpEvcuVk2PYiHyLNXyVyzCEnRqAROoYY8BIQWPhBn8ArIyoOE4YRVyYtgS4F9a84VCAMDpLPvTQQ7LJFZpdof3zxk3rafKUCRLCtetU3+DKSbVr174KE4mF6fCRAzRx4jg5xyksvAFVrvIh3SYiEIZwzkaki7V1x9euLaO16EsvkREFLrj4eWL9evLveUXExQHCMMaHez39lCwiKzAQewC8oH8/6vbwwyHZxMRfyzFjcQ7bXHUVdb37bhr54Ye0MDaW9sydS2f27ZMpa1Qmo0AKHarUOLJToa0kUt7JcW5KFNCNO3xYRrwbRo+m3+vUoZ//9z8Z9cZcdlnxG/PNy2V8IczpaF+rKBhp6GEus0MWUtB2sObXiIjRQQtQL8wOWqEAYTS1KlfuMdlfI6J5E1ljtWPnNhr9268SwjVq/dTblZvEhhl4IOY0Tf9jqpzjhAnHmPOEuU8M4ZwNEP3ZvZv4Mt7sky7Fz/iS/tm1qwkszfbKxQXCzct4QPzkkxLEQU9NyxS0AHC/n2UbwZIEYLvx+cANWxtxMe8gPm+9H3uMRletSrMiImjtsGG0b+FCWamMxRIAU7TIRJEX5iLj33jxM36HKuxzhw5JiB9dt452zppFy3v2ktAdUr48db3nHmp/3XVyjFpmFMqUgKhX5zIaCHNhlo9Vd6yeLrNXNKqfdZ2x/DEae6Cwa6DLjIYLY2w4yBDuoeFYnkY/jadFcAIIo9kVml4Z+/fINYVlYVbjhuK+JxeFN24oIbxp83qaO3e2LK9u3KQRff3NF3TvvfdQABDund87eZ1CGcJo7D6oQgV5MbXvA0bzjaHvvy+/yPZtrS42EPZYgviJJ2jJL78EDcSqn/b8vn3NFHQJBrDOiExbic8LxpBRnYyIFVXWPR95hAa+9BKNrFSJJv7wgxxbnvTjjzSqcmUaIX73a8WK1O/ZZyVske7GvN62ItLGilMYQigRqWYnLuMLYZ6i5GuAEYAc7DKnIeVn1aS8jGgYU5jUqkqtXAWfkg4WhAWrDMGsvhqO5ekrxWfhhReep4YN61KLls2oa7eOsm90n749JYSjYlqK056LGjdpmIoHopprydKF1K5djCyz/qnad/TAAw9QABAekomSzQAVyhBGO0e0dbRHwcqIPHqWKyfvqO3bWl3cIAwDxFh8YsnQoQGD2AvgPn3kusGlDcC5GZ8trN4khznExR1DHTBu8PA7uERHuE5dxhfC3Kwju1UqGoBERyzMA8aUIztMAzGmLk1xmSnpaFfBp6SDDOEhGo7laUzlff31V2V/jZaRERK+mG3UsVM7CWFMBXblpgYN657EA1HJ9dfa1bKyC2XWtetUp/+KC+IF4gLg0jyxA09I91SABqJQhvAm8Rh8Ee3bK2MR+m4iqkMfWvu2VhdHCMMAcQ8B4sVDh5jNPPwA8XkA96au4qaPAcz2y2V8IVyQbSvRxEYP4S9DHsKY0zvBFdxUtDIWfpjjMtPdhTEuHCwIp6Wl7QezNBzL05hFVOGdt+TU3qio5nKWESCM1DTY2rRp47qu3FSzVrXpeOC48b/J5QzNNYU9yxk++ihdJO64XZonduB5qaj6DFAhDeFFC+Vj7dsrA8JIrW5ZWjIhDCPl2aPcY+b0pXyCWK6tvGE9ze/diwHMDsxlfCEspw4KEAOi+Jz5492bNmWb4YCsz6z27eVyiOhlvmHeXG/hJdLWv376iQSDz/GFgAHhVi4zSp0sjIrmYEMYRV4LXGb/6eIE4ZSUlP1gloZjuRqZ4lvEzdiHH71vWcZwtJxtVLdeTbmCUq1aPz3nyk3h4Q1k60rQWy3i0NyziMP//vc0XXbZZT5P7NCbk5KS7K8132IIh74liB97VE7LcgpiBeC5PXvIlD4DmB2oY8V3EQt95DUbIRDLPuZDh8jvapurr6a5PbrLGRC7xGcZrW77vvC8/D7Yjy0UrCCMphpYBxjze+0QDdSA8EKx716u4gXhxMTEA4JZWzQcy9WA8F133UWfff6JXLwBja9+nzaZ9u3bLaPgevVrZbjyEvpHY4pST/SPFvTu3r2Lt3/0K6+8RFdddZXPEzv0ObfbbX+t+VapgfDE0Gxb6dS48HR/9FG58MWuTbmDWAJ4/Xp5AWMAs4PlNtdcTQt+7lugy4/is4trQ79XX5Fj85iDPPrbb2ligwY06J13zP7mZUJzfF6lo9FQA8VTKKJy0h0rP8ZSh2j+UdzGhOPi4g6CWRqO5WrVsvK777+WBc2t20TTvPlzaONGs290eOMGeUM4MjIiHA9uFd1C5rEHDe7vbV1ZocJbAXXN2r9/v/215ltFAmGkmf6ck+cdddAgvHMHLRs5QhaC2PdRnCxB/MgjsskG5vrqQGwCeB392a0bdbnvvmLfiIMdOkaNQr9XXqY1UybLFDS+V0gl4zMXTKPqetGgQbIwEe1UUYkO+BaHrmNq3WA01cCqSGfLmFOLsFZwoE4UNoSHu8wlEQujYUewILx3796jdn45seqWhUC2SVO0rIyhVauXSxCDq43C6se78lLt+rVfEg/OFGGzLKseO240RaNrVlh9qly5Et16662S9i7NAeTlP/74w/5a862igDDSTCgUyuuOOlgQBrCmt4qimCuLT3/knNxSgBhNNtBsww5iXMAkgLt2kREEA5gdVIvrFC7KvZ56iqZFRtLykSNp/exZ8oY62F7z+1Sa3akjDXyzfMitA56b1aINqJAeKDxdeKU4b+uEN/rpDcJry5hjwSNcZuFXYfWQDhaEp0yZku8oGEajjscee8zTLStc1lRt3baZxk8YIyFcs3Z1cVocSOxAzhXevXsHzZg5nWJat5L57a+++lyuk+gvhGNjY+2vNd8qCgjjjhbzf9eLLxtSxXZoeiG8cIGAcM4LzWN6CabcYCqTfVvlveJufe0f02V7vFAdS8qvkV5Gsw0UXGF6B6ISjJnhPMzu2IE633MPA5hdMBbXKnz+EKEis4TWk8hsBd1iv1h6tNUll+Q4RTEUjcgUcIwWbi/c3WX2j8YiDgNd5jrB+TW2Q2SNceDCXtYwWBBu165dmp1fTnyF+Jw99/yznkYdTWVN1YGD+2jwkP4Swk2aNMp9jrCSAG4aNli5chktXbZIhtSYK4xVITBN6R8ionNpDiAvf/LJJ5SRkWF/vflSUUAYKSV8iX/97DNaPXmS7J6D9nfbVq70GnBZPnpUruO42E/HO+6QLfDs2+NnTF1aOW4sDa30gUxphepYkj8GZDGF45fKH9Hk8DCa1Kih7Kvd/sYbSl7LRDa7GBlwRESMdDGA2cZlpqgDMfaBfbVyFR6A4WBAGIz69NNPffjlxFhpECsOqjnCffv2or//PkydOrV3NkdYqW69WtuxweQp42nzlo0ipG4rQ2ukqBFqI+R2aQ4gL6NqLDEx0f6a86WigDAMgGK+Xwfx3Ehv9Xv1Ver/+ute93vlFerywAOykYJ9W6sxToX0bPbtX6N+L79MPZ94QoIqSpzfUB9L8seyNeNFF1HM5ZebY2YXhf6YGZtdWqxgDAOcgRr7KSz4KgcDwmAUMr52fuVlZIgxXPvRRx/IGirUVY0e/aucnoSfBVOzwsMbfu5yovDwBtGAMELoAwcNyzSlOvTiiy/ItlwuzUHkZRzkrl277K85XyoqCCsDGojqkCoGUL1GS0AnEV0u23OnIzabHSoGQP21fV+F5WBAePfu3X4NuWIbtHZGi2cM32LdhRkzp9HuPTu805NatXrlny4nioppGYGNsBgxKqT7D+grK6QRYr/7bgW68cYbfQ7Aqfv06WN/zflSUUOYzWaz2aHpYEC4b9++PtxyYnSTNNcRri67TIKfK1YslUO65vSkhqkup6rbsO7L6OyBDh+HDh+giZPGUUzrSLmaEiYhB7KaUqVKldASzP66HYshzGaz2WydA4UwWiuDUXZuOTEaWaGhVf0G5hKGnTrF0s6d22jsuFGedYRrLHDlR2Hh9dOx4foNf9GiRfOpbTuzOKtGzZ8CKs7CgZ48edL+2h2LIcxms9lsnQOF8KlTp+jyyy/34ZYTX3fddfTW2+W9RVmy4dXfh8S/XSWEIyMjWrryo/oNah/EhlN/n0RbtmyUCxNHNDd7SGOtRKyZ6NIciBP/+uuv9tfuWAxhNpvNZuscKIRHjBjhwysnRmb4jjvuoE8+qUJh4Q0oOqYl/TZmpCzKQgYZRVmNm4X96MqPGjdtGAMI9/25Jx0+cpB69uwq6Q7Kv/32m5L6Ls3BOPH777/vd0qaIcxms9lsnQOBMJj0wQcf+PDKiZEZfvDB/8pMMdpVtm1rtqvcsnWjjILRe6Nq1ar/cuVHERHh1WVJtaD4EQHhMWNGCbpHypUhPg9wXPjCCy+kffv22c+BIzGE2Ww2m61zIBA2BFv+/e9/+/DKiTHM+syzz8hMMTLGyBwDwFi8ARBu0LAu2mDmTyilbtiwrhwX3rR5PS1cNI/atYvxri388MMP07/+9S+fg3HqqKgoLJxsPw95iiHMZrPZbJ39hTBYFBkZ6cMpp8aMoYoV35HzgTGTqHfv7rLtc+8+3T1rCIfFuPxR/fq1dmAHWFt41+7t1LlzrHe+cIArKsmDPnPmjP1c5CmGMJvNZrN19hfCZ8+epZtuusmHU06MjPB9991H3373lXf5wkmTx9Ohw/slK5FRbtIs7AuXP2oRGdEcq0HEdmjjWVFpgOwCAtp//HFlul3A0N+UNOzPnOGzAsJd7rzT5+Sz2Ww2u3QbEB7/9deUkE8Ig0V2Pjn1JZdcQk8++QTVq28u2hDboS2tXLWclq9YolZOSnP5qwYNaj9eu071DKSfsZjDnD9neqcqAc6PPBJYShptLM+dO2c/H7nq3MGD1Ouxx5x1p2Kz2Wx2qTHWdJ5asyYl5mMabFxcnF9tKpWR1X23YgXP1KRm1L1HFzp4yKAhQweaRVn1a012BSJB8ZPY0ZSpE2jHjq3UuUsstWjZlBo2rEuvv/EaXXPNNT4HlR/37NkzX2PDcUeO0JDXXy8xKwyx2Ww2OzhuffnlNCsigpIcDnWCPb169fLhklOjKvqBBx6gH3/6zpuKnjBxLB0+csA7NalFiyb1XIGoefMmkYAwVlLCxONfhg2WVdLh4Q3oy68+o3vuuYf+7//+z+fgnBp5+BMnTtjPTY5CmmHcF1/ItIP9DWCz2Wx26XWbsmVpSdeulCKiWycCe/wdC4axjsJzzz9HDWSXrMZy/eC/1q6ipcsWyihYRMdpjvtF56R69eo9VLdeTbm+MKqklyxdSO3bt6amzcxVlZ566ilZnu3SHKBTh4WFOV7iECd3SefO8mTb3wA2m81ml153uPFG2jF9OqWnpNjR4SMwJzw83IdHTo16KEzV/fiTyrJOKiqqBf3cr7ec0tunb09zalKjumNcwVD9BnX/wg6HDR8iFyjuYWnc8eFHHwRcoIW5WatXr7afI60y0tLIWLxYVkjzMnhsNpvNhrEuee9y5ejUrl2OhjjXrFnj97xg+OKLL6Zy4vnq1K0h66TatI2h2XNm0N69O+XvsP5Ck4iwSq5gqHnLpnWR2wbtDxzYR9OmT6HWbVpR4yYNZYHWY4896vcaw8rPPPOMs7WGxcmNO3yYRlaqRFHiBNrfCDabzWaXPsdcdhlNq1ePEk+dslPDR2ANmGPnkFOrtYPff/9dOQ0JdVJdu3aivft20fgJv3lS0fVOu4IlccxlRNSbiB2jA8iuXduzrTFc8b135AEFEg3DMTExlJmZaT9fPkpLSqJNY8ZQR/GcHA2z2Wx26Tai4B4PPiizpBmpqXZkZBMY07p1ax/+5McIOh999BG1RKFlbvABOU2pZq1qFBHRtJkrmGoaEdYGTxgZFSF7SY+fMEY+MQ6gRs0f6ZFHHqGLLrrI52DzY7SzXLRokf2c+QiphrhDh+R8sOhLL6XmDGI2m80ulUYg1vbqq2lO8+bm1KQ8UtGLBajBGjt/nBrB5i233ELvvPu2DEIRjHbqHEvbtm+R6WhPQVbKV199dbErmKpT5/sbxROm4gnmzptNW7dtkk+somHMkwpGNIy5w4cPH7afNx/hbmf/kiU04PnnKVKcUPsbw2az2ewSbsGb6IsvphEffEDHt26lzDwKfI8cOSIZY+dOfowo+BERBWOxBkxDio6JorHjRsuCrOjolmZ0HF7vZ1dBqFFYg0F4gpjWkbIvJp5YRcP4/aOPPiq7h7g0B54fv/XWW5SUlGQ/f9kl7nZSExJoy6RJ1EtE4ZEXXOD7BrHZbDa7ZFoAOOqii2jACy+QsWhRnhXRYMrbb7/tw5v8GEHmbbfdJodgrVHw1q2baP6CP9WKSWk/1vnxDldBqFatWnfjCVQ0vF2E3+gn3aJlM3lAH1R6L6DVlayuU6dOnssdIi2dfPYsrR8xgvo+/ji1QqEWp6bZbDa7RBspaAxFDn71Vdo5cyaloqg3lzQ0WFK3bl0fzuTXmI5b7vFysiBZjQWPHz/GjIJjzCi4UVj9X1wFqbCwBkPwRFGtmsuuIBiMbuOplEZZ9lNPPSknMLs0LyC/jo2NzXP+sATxuXO0a9Ys+kVE0BgbaPnPf/q8aWw2m80u5hbwRdYz9oYbaMynn9LBFSsoLQ8AgyEdOnTw4Ut+jaZUaG9ZpcqHnoroZtSlS0fasXOrbOmsomAEq66ClHiCW9TY8PQ/ptKevTupW/fOct5wo0b16LPPP5ErSvxTgNCleSH5MV503759866YFm9AenIyHduyhebFxFDvxx6TzTyiLryQq6fZbDa7mLuFYAGmpLa75hpZB7S8Z086vXevo0ron3/+OaCujspo0fzcc89S3Xo1PfOCo+V03YOH9sspSuZYcIP+rsKQeKKueMLGTRqRsX8vzZkzk9rJLlphsovWK6++LJtaByMtfYG46xk4cGDeIBbCoHzS6dN0eM0aWtC2LQ2rUIG63HUXdbjpJnnn1P6669hsNptdTIzrdoebb6ZuIrAb+dFHtKxHD1mAhc6JWXkwAcwAO8AQO1fya1RTP/jgf+mbb7/ydMdqTr16dxf820MTJ40zo+CGtZN//PHH61yFoWrVqv1HRMNxeOIRI3+hQ+JOoP+An6lVdEsKC29A1ar/IIu0Lr30Up8X448RVffu3TvP1LRSZnq6TFGjqcexzZtp38KFspXZ5vHjadO4cWw2m80OceN6vWPGDDn398T27eQ+epRS3G7KcsABsAKLA2GBBTtP8msEk+gKWeGdt5Bulj2i28e2oSVLFtKu3dtl50jBwqzGjRu2dBWmmjQJ/wFtuTAOvGHjWlq7djV17NTeO2WpStWP6N577w1KWhpGOqF58+aUmkf6wS7cLaHVJSrn0OSDzWaz2cXDuG7j+p1X1GsVGNGiRYugpKDhq6++mp5++inCkr4oxsKUpOHDh8oZQj/362X2iG5Y+6B46jKuwlZYeP3lOADcFaCBx+TJE2SevElTpKVr06uvviInNQcjLa38+eefy/UfWSwWi8WyCmz44osvfLjhrzEn+KGHHqRvPWlo1D517dZJFmNhMSNUSdepUyOjefOm77qKQs2ahT2lpixN/X0i7d+/V64igbS0Zy1FevLJJ6hs2bI+Ly4QP/7447Rjxw77+WexWCxWKRWY8MQTT/jwwl8ji4tqaEy9RXZXpaHnzZ8jWYefwbgmTRpNdhWlwsLqdkE+HLnyzZs30Pr1f8nJy7JaWtw5fPPtl/JOItAFHuy+6qqraOTIkY7HiVksFotV8gQGjBo1SjLBzgl/rVpTvvLKy7LYGEXHWLRo5Mjhck7woEH9PFOSarm///77G11FrYZh9TbigNq0bUWHDu+nmbOmyzuGiOZN5B1E5cqV5LSlf/3rXz4vNhDjRH311Vd07Ngx+/vCYrFYrBIuXPu//vrroA55Yl/XXXedHAfGQgzI6iK727tPDzklV3XGqlO3RkazZo2rukJBjRs3eFzNHf51xFA5Pjxy1HA5Pty0WbisKHu7wpuym1awCrWsvuGGG2RUnJ6ebn+PWCwWi1XChGs9ol9c++08CNRoNvXYY4/RDz9+S2H/396VB1VZr+Fz7226Nd2WudPitMytKSdURCtDzQzTXDLb1INLm4YLHM6+cc6BAwcEdyt3ULTMPfclNyDEQhIRVCQUBHJpme69U9duZWW+9/e8x8+hg5XdoBDfd+b5Rz8Vv+837/N73tVpIX+yj7cG7istpsrKcv415IJdCfbVuuZkNpvFGG8c+wN+ONwUamurKTNrNo/1QqEWGpwh7TF3s7Gq1kLRs2dPKi4uvqiFzmJiYmJil5bBt+/du5d69erVwP83BtBWGx4eTi+8OJzTqZiKNXFSBuXkbuOhHOkZAS0MXWcwGP6ma26WkGBfCxJG39T+A6U81Pq16dNYymOsJUq8u3V7iG6//fYmI2Io7ejoaCovLxcyFhMTE2sBBl8Onz5kyJAmiaYC11xzDbVt24aGDNWfK8Ry8xAqDONAO9L87GAeGFFfv9/zoK45ml6vv1oR8EH8oLhBHK2pUreW92mqkvKYMAIZj/VPXbt2odtuu63JiBjAlJSBmLBSWHhR07bExMTExJqXwXfDhw8aNKhRJl/9FEDAYWFhPBca6VOkUZFOXbzkDa5zWr9hDRNwvDH2jN1uHaFrzuZwmNqaLQaepjVh4jg6fryOCnbl8yCPYMW0hcbGjqIuXbo0qSLWgCR7586dKSsriz7//PPQbywmJiYm1szsiy++YJ8dGRnZqEVXFwLW74KABw3SCDhYCZ29IItbkfLzczmKiy4gu8O8QHcpWCCQ+JBWqDV9xjQu1MrN3c6xdShkEDEU8UPdunKOuDFGi10M8LIHDx5MK1euFEIWExMTa0YGnwzfDB/dGHvpLwbXX389tW3blvTRA5mAUb+EOqasrDkcyX1/TyG3KCHN6vE5N+suJXN7Hc+oH54HeWRmzeKY+vbtW5iIk/ye8xVmUVHduWq6KUMNFwIGckdFRVFaWpq6IOTSqVOnQs+EmJiYmFgTGXxuXl4e+2D4YvjkUD/dVIC6xhCp9u3b07Dh0ecVMAh4buYsqj56mEr27eHiLN4d7LYVmkyP/1V3qZnFEm82meO+BxHPz85kIs5RihihaX+yl5c9YPZ0nz6P8Zzpxh7o8WuAZD96mXELw9zR7OxsysnJof3799OJEyd4HNrp06el2EtMTEzsZww+Er4SPhO+Ez4UvhQ+Fb4VPrax1t3+P0AKFK1N999/H7340nNchOXxOjkEnTVvriLgI1RaVsJCkQux7KZyg2FEK92lamar0R9vHHsmqIhnc2h6Z8E73HeVnJLI6xAxZ/qZZ5/isAB6tJo6ByAQCASCyw+IuCIFipqk0WNeJpvdTD6fm9LTA7Tw9flUU1tNe0veP0/ASiHXxMfH/EN3qZvZbEjBdBH8p2bOfJX7rfYU76ZXXp1CgVQ/hwEQDkBvFuZCo3L698oTCwQCgaDlA3lmRFx79+7FhVaoTUpMSqDx49No6bLFdOx4HRUW7tJWE6IX+LDBYLhH11LMYjE4zBYDh6YnTkrnYR7lhw7QnDkzOQzg8brIajPxLmLkiVu3bs1l47oLvEyBQCAQCC4GCD+3atWKOnSI4BW7KLTCKEq/38s1Shs3reMIbU7OVh4qhRyw4qIDMS1BAYeay2XXW23G0yBi5ITLD+3nCrRFby6kjPGpvIsYtxO8iGeffYqT5nh5oooFAoFA8GsBIYdNSBgSNWr0CKVujVwBjQFS06ZNooJd79BHH5+glW8tY/IF3G77OzExMX/XtVTz+/3dLNb4L0HEqDzDSzj50THavHkDF2whT+xOsPPLihn1EnXv3o1V8XXXXSe5YoFAIBD8IlD0deutt1JERHsWdCZTHAs8TMEaNy7AFdCIxKIPeMbMVzn8rAj4rMfnWq3X6/+ia+nmdDrDlSI+ot08li1/k4kYCXFsqkgbl8wvS1PFev1ArmRDQv3qq69u8MIFAoFAIEDoGSsNw8LupUcf7UGjx4xkQYcCYCximDAxnVavWUkfHqulsv37OCILAkaq1GYzTdZdTjZmzJjrE7yudbh9aNO1Pqgsp9q6ag4N4GXhpUEVo4QczzzxRD9q3z6cC7d+z54ygUAgEDRfIEp6ww03UOvW9/BY5OdfGMa5X1Q5Q9Ch7giKd3fRexx+Rh4Yv88tSFbjf71eV3/d5WrqBSQq8HQtVKVt3bqJPlYvCZNKZs2ezvM7UcGGRDoqqHGz6d3nMWrXrh2HG4SMBQKB4PKERr533303PRj5IEUPGURGUxxzCbpuUlISufhq1eoVSuAdpcOHK2jaK5O18DPZ7Za9Joepre5yt8TExE5Wa3w1XgpeztRpE1kVo2R889sbuKcYrUy40WDAB/qKsesRZBwe3o5nUGPQh+SMBQKBoOUDxboIO6PoKlKRL8ZOYvATOmwQPUWYOT0jlebNn8uDN6B+wSVa+xHCz4qAZxLRn3RiQTOZTH91OKxZWhsTQgUIS6On+PCRClq+Ygm3NqGqzet1cb4Yz4wZ+zL179+POnbsQHfeeScP+5BqaoFAIGh5QE0Qpl3dG3YvPfxwNxo2LPo8+SLvi5HIiJ4i9FxQgKLf47SvtJi7bzT1qwRfnd/v7a4Tu7Cpl9PVZjN+oKlihKJz87ZziPrAgVJ6c/HrnC9mMva5OOaPMDWeRw8YStHbtAnjvDEqqpt6S5NAIBAImg5IOd500028YwBiq2+/PjTy5RfJZDawsq1Pvthfv2PHVo6iHqmqpKx5c7QNSOCJ7+xOy/SUlJQrdGK/bC6X1W21Gr/CywNwkyncvYs+/uQElZWV8J5HxPoRpvYlusnlsvFtyKw+DELVA558gjp3jlSE3IbuuOMOVsj4mBKyFggEguYLRDIx3eqWW27hXG9ERAQ92rMHDR2qZ0KF6HI4LJzzRfFuenqApk9/hbbv2MItRyjuXbpsET8H7sCfcTit+U6fM0In9uvMYDC0crisC9TL5BA1MGlyBu0ueleR8Uke9oGEO3LGaeMCnAfAMmaoY1RUo70JhPzMM0/SI488zMM/0HOMHDLyCcgjS+haIBAI/hhAFF155ZW8UhCDmZBShHDq1KkT9e3bm4YNH0KG+LGcegyqXhuLrkDAT+MnjON+3/yduXT8RB1PYUTaUsv7BidfGT90e90DdWK/zWwJtnZOt3WV+hA/1FfG7+TncMz/aM0RvgXNnjODPwzUMcLYmIyCQi4QsrYTEvOpn3pqAD0S1Z17j/HBkdyHWsbNC4oZU1ZwMCSULRAIBL8dGJ5x1VVXcYrwxhtv5M6Wu+66i7cphYeHU5cunXmbXnT0IBo1eiQLKChZu93MxIuxxlC9CDlPnjKBli9fwnMlUHBVefgQT13UWlnPjZ38zO1xGHRijWsun6uj0/ljMsatCM3XIGItVL1u3WrODWSMT2NCTvJ7eVUVQtb4qPi4yCcgoY/CruHqtvW0Usu9+/TinDKWSKAFCgSNgd84LCBpFATcfPPNrKJRFn/ttdcyYeNwgbRx0KCsJeQtEAhaIiBM4OOwjQjpPUQTEToGuULAgGChaFGTg+FKCCeHhYWxL0VYOTIykno8GkX9n+hHg/XP0ogRzzNpoq0IQgkpRUQyUeGMMcaYoIge30mTxvOWo/z8XKqprWJfj4goCrDgxzXyVSr4M6/XaU5JSfmzTqzpzOEwtXU4zAvUzec7jYzxIabPmMbqGKEJ7C4u21/CZelIziN/jFsUwhggZRR14UPjg2OdlaaWcQPD34UQCGaNoukbE7uefnoAPf54X+r1WE+KinqEHurWlfvS7lNqOqJDxHnS1oCDh1seSBwhcKhtFBaA0AGEXQQCgaC5QPNN8FMgT/gs+C74MI1INWDtLNJ7HTt2pAc6PUCdlZLt3v1hnlIFRTtgQH8aOPBpGjpMTyNGPk+xsaPYr8K/ws9CCIFwMbo4qHSdHL0E6aamJSsBNY637C1bvpgKduWzyPrk05N0qOIAh5whvjTfj5yv+ruqPB53bChXiDWxYci2z+dOUCT6sVYBB4BQZ8+ZTjtytlJd3VH18T7iZH3R++/Rxo3raMHCeTRlykRWyrhlBQJJvFEDNy+EPRISHHww6hM0gIODA6SRtQYcrngjiHsMjY2N4YEiL8e8xLc8LI1+QRH5c88PZcWN4oIhQwdz2AXQnwOq/ebOnUkLF2aeQ9Y5ZFJysu/8cwKBQNDYYH80ZDD7J7T9PPfcUBYgSN+9pHwY/BPqaxA5jI0LEh/8nkasGrkywVriz5GskfOzIFoMW0IVM2p2MO8hMckTJNzUZBZH6HiBqgXBohsG9T4QUqj9KS3by7+emuZnH6v5eYvVeMbmMK1yeWz9QrlB7A8wRZx9lTqerz74N/U/FA5LekaAlix9g94rLODqOZAyZlVXVBzk/ZFQy0uWLqI5igSRb0BeOV0dDNzIQNA4LCj6Qhk8iBqHCDc3jzpQIGwoapC206XgtDJ5A+hlDsLMYXAcyAsBN0L8G/k7t1NRUUEDLHozm58RCASCxkSoL9IAf8V+67wPC/o0IEioNiZV+D4QK/whootQqCBYRBuRw00JJHJKEGInIyOVyfbV16ayEEIaEYS7b18x1dRUsdJFKyrU7ua317OQwr+l+XJAkfxZi81YkZiY4GzRm44udUtIcA5XhDxbHaJT9RWyljcAmWZmzaI1a9/itqejR5FPPsnkjNtXdfVhDmXj96CmN2xYSytWLKXX38imzMxZfIgmTcrgAwXChqLGdBbc6FCljQPHBJ4K+INQZA6gvxkA6dbHFEX+hYX5VFKyuwHeWrW0wfMCgUDQmNB8E6D5q/P+S/ky+DT4Nvg5AD4Pvg8+cKLyhehSwQKe7OxMWrJkEZPsli2baOfOPCreW8Si59ixWiZb+NoTJ4/RgYOlXFSLltMpUyeQVlxVH1ar8azZGr8nKcnjNRqNd4X6e7FmbiaTqYPf7/WZLHEb1K3qWy2JHwp8fGxvQoU1esww4HvXu/l8SBDKRiEADo4GkPbx43V8g6usPEQHD5bxZBYcNhQM4M+iiAA3PTSPb9v+Nm3ZuolV96bN62nDxrVM7hre3rKRysr2qL+npAHefTeP1q5bJRAIBI2CdetX0/oNa37kg5Cqw0pZ+KKt2zaz38rJ3UZ5eTtoZ0EeRxIx07+kZA9vIDqkSLWqqpJTfuhS0cg1iJOKZIPTDuETIWZWr1nBChhjiaGcQwWSJpKUEj+r/PEJt9s+0e12xmCaYqhfF7uETd2kbvX5PDaPzxkwGmN3O5yW77Sm7p9DsOHbom6MPpo8ZTzf+OZnz+XSeOQrcLA3K3IF2aI4DAd2T3EREzOIHDkOzMM+UlVBVdWVXGigAdV+tbUg8wPqGTz3Y1RVHaIPj9UIBAJBowHioqaeH6o+elj5pw+45afig4N0sLyMI4Il+/ZwPQ12v4OUISYgIlatWs5pPFQto18XEUIoZBAscsOhPjQU53yqIlzTZyaLITM52ee3OW1PhvpsscvAevTocYXJZOiTlOxLSEr2pBjNsa8pxVxpd1i+Vur5rDYWM/QQNSYSE90cji4tLWqAxUsWNnheIBAImjMQdcRkK+VDz1isxn8ZDGO2ON3WQGpqkt+ZYB870jDyjlBfLCb2kxYb++JtZlt8tNebYE9Wh0ghJSnJE7A7zQGDYfSU2LjRbynkK7IuU4evymyJO6nI+59Wm/Fzm910SuEru8P8tSL201Df9aEO6fcpqYlnNm5afXbb9o0NMG/+7B9cLtv3AoFA0FhwKoT6IofT+q3Daf7GZjd/ZbOZvlQq9T+KQP9ttsR/ajLH1Sn1WqEItijOMGprrGH0PCVY0jweZ0Cp2JRU+MRkn9fhtsXGGmO76fX6K0P9qFhD+x8KeyBxctlNKgAAAABJRU5ErkJggg==;" vertex="1" parent="1">
          <mxGeometry x="309.63" y="197.5" width="300.37" height="607" as="geometry" />
        </mxCell>
        <mxCell id="YpN4zdeK5pnCccLMo8XV-3" value="" style="labelPosition=right;align=left;strokeWidth=1;shape=mxgraph.mockup.markup.curlyBrace;html=1;shadow=0;dashed=0;strokeColor=#FF6F0F;direction=north;rotation=-180;" vertex="1" parent="1">
          <mxGeometry x="610" y="370" width="30" height="340" as="geometry" />
        </mxCell>
        <mxCell id="YpN4zdeK5pnCccLMo8XV-4" value="&lt;div&gt;&lt;font style=&quot;font-size: 16px;&quot; color=&quot;#ff5500&quot;&gt;Account Settings&lt;/font&gt;&lt;/div&gt;" style="text;html=1;align=center;verticalAlign=middle;whiteSpace=wrap;rounded=0;" vertex="1" parent="1">
          <mxGeometry x="650" y="515" width="110" height="50" as="geometry" />
        </mxCell>
        <mxCell id="YpN4zdeK5pnCccLMo8XV-6" value="&lt;font style=&quot;font-size: 16px;&quot; color=&quot;#ff5500&quot;&gt;Header &amp;amp; Footer&lt;/font&gt;&lt;font style=&quot;font-size: 16px;&quot;&gt;&lt;br&gt;&lt;/font&gt;" style="text;html=1;align=center;verticalAlign=middle;whiteSpace=wrap;rounded=0;" vertex="1" parent="1">
          <mxGeometry x="110" y="476" width="110" height="50" as="geometry" />
        </mxCell>
        <mxCell id="YpN4zdeK5pnCccLMo8XV-7" value="" style="endArrow=classic;html=1;rounded=0;strokeColor=#FF5500;entryX=0.75;entryY=0;entryDx=0;entryDy=0;" edge="1" parent="1" target="YpN4zdeK5pnCccLMo8XV-6">
          <mxGeometry width="50" height="50" relative="1" as="geometry">
            <mxPoint x="320" y="286" as="sourcePoint" />
            <mxPoint x="200" y="466" as="targetPoint" />
          </mxGeometry>
        </mxCell>
        <mxCell id="YpN4zdeK5pnCccLMo8XV-8" value="" style="endArrow=classic;html=1;rounded=0;exitX=-0.012;exitY=0.204;exitDx=0;exitDy=0;exitPerimeter=0;strokeColor=#FF5500;entryX=0.673;entryY=1.04;entryDx=0;entryDy=0;entryPerimeter=0;" edge="1" parent="1" target="YpN4zdeK5pnCccLMo8XV-6">
          <mxGeometry width="50" height="50" relative="1" as="geometry">
            <mxPoint x="338" y="750" as="sourcePoint" />
            <mxPoint x="210" y="570" as="targetPoint" />
          </mxGeometry>
        </mxCell>
      </root>
    </mxGraphModel>
  </diagram>
</mxfile>
